M48
; DRILL file {KiCad (5.1.4)-1} date 9/10/2023 2:26:23 PM
; FORMAT={-:-/ absolute / inch / decimal}
; #@! TF.CreationDate,2023-09-10T14:26:23-07:00
; #@! TF.GenerationSoftware,Kicad,Pcbnew,(5.1.4)-1
; #@! TF.FileFunction,Plated,1,2,PTH
FMAT,2
INCH
T1C0.0157
T2C0.0276
T3C0.0579
%
G90
G05
T1
X3.6562Y-2.0312
X3.7812Y-1.75
X3.8438Y-1.25
X3.9062Y-1.7188
X3.9688Y-1.5625
X3.9688Y-1.6875
X4.0Y-1.125
X4.0312Y-1.3438
X4.0312Y-1.6875
X4.0624Y-1.5314
X4.0625Y-1.7188
X4.1875Y-2.0625
X4.5Y-2.0312
X4.5938Y-2.0312
X4.6562Y-1.8438
X4.9062Y-1.4688
T3
X5.225Y-1.0875
X5.2766Y-1.03
X5.4734Y-1.0103
X5.475Y-0.9875
X5.975Y-1.0875
X6.0266Y-1.03
X6.2234Y-1.0103
X6.225Y-0.9875
X5.975Y-1.8375
X6.0266Y-1.78
X6.2234Y-1.7603
X6.225Y-1.7375
X5.225Y-1.8375
X5.2766Y-1.78
X5.4734Y-1.7603
X5.475Y-1.7375
T2
G00X3.3563Y-0.8514
M15
G01X3.3563Y-0.8986
M16
G05
G00X3.3563Y-1.0285
M15
G01X3.3563Y-1.0758
M16
G05
G00X3.6437Y-0.8514
M15
G01X3.6437Y-0.8986
M16
G05
G00X3.6437Y-1.0285
M15
G01X3.6437Y-1.0758
M16
G05
T0
M30
