G04 #@! TF.GenerationSoftware,KiCad,Pcbnew,(5.1.4)-1*
G04 #@! TF.CreationDate,2023-09-10T14:26:21-07:00*
G04 #@! TF.ProjectId,KeyboardPCBProj,4b657962-6f61-4726-9450-434250726f6a,rev?*
G04 #@! TF.SameCoordinates,Original*
G04 #@! TF.FileFunction,Soldermask,Top*
G04 #@! TF.FilePolarity,Negative*
%FSLAX46Y46*%
G04 Gerber Fmt 4.6, Leading zero omitted, Abs format (unit mm)*
G04 Created by KiCad (PCBNEW (5.1.4)-1) date 2023-09-10 14:26:21*
%MOMM*%
%LPD*%
G04 APERTURE LIST*
%ADD10C,0.100000*%
G04 APERTURE END LIST*
D10*
G36*
X137121474Y-47246184D02*
G01*
X137339474Y-47336483D01*
X137493623Y-47400333D01*
X137828548Y-47624123D01*
X138113377Y-47908952D01*
X138337167Y-48243877D01*
X138369562Y-48322086D01*
X138491316Y-48616026D01*
X138569900Y-49011094D01*
X138569900Y-49413906D01*
X138491316Y-49808974D01*
X138440451Y-49931772D01*
X138337167Y-50181123D01*
X138113377Y-50516048D01*
X137828548Y-50800877D01*
X137493623Y-51024667D01*
X137339474Y-51088517D01*
X137121474Y-51178816D01*
X136726406Y-51257400D01*
X136323594Y-51257400D01*
X135928526Y-51178816D01*
X135710526Y-51088517D01*
X135556377Y-51024667D01*
X135221452Y-50800877D01*
X134936623Y-50516048D01*
X134712833Y-50181123D01*
X134609549Y-49931772D01*
X134558684Y-49808974D01*
X134480100Y-49413906D01*
X134480100Y-49011094D01*
X134558684Y-48616026D01*
X134680438Y-48322086D01*
X134712833Y-48243877D01*
X134936623Y-47908952D01*
X135221452Y-47624123D01*
X135556377Y-47400333D01*
X135710526Y-47336483D01*
X135928526Y-47246184D01*
X136323594Y-47167600D01*
X136726406Y-47167600D01*
X137121474Y-47246184D01*
X137121474Y-47246184D01*
G37*
G36*
X156171474Y-47246184D02*
G01*
X156389474Y-47336483D01*
X156543623Y-47400333D01*
X156878548Y-47624123D01*
X157163377Y-47908952D01*
X157387167Y-48243877D01*
X157419562Y-48322086D01*
X157541316Y-48616026D01*
X157619900Y-49011094D01*
X157619900Y-49413906D01*
X157541316Y-49808974D01*
X157490451Y-49931772D01*
X157387167Y-50181123D01*
X157163377Y-50516048D01*
X156878548Y-50800877D01*
X156543623Y-51024667D01*
X156389474Y-51088517D01*
X156171474Y-51178816D01*
X155776406Y-51257400D01*
X155373594Y-51257400D01*
X154978526Y-51178816D01*
X154760526Y-51088517D01*
X154606377Y-51024667D01*
X154271452Y-50800877D01*
X153986623Y-50516048D01*
X153762833Y-50181123D01*
X153659549Y-49931772D01*
X153608684Y-49808974D01*
X153530100Y-49413906D01*
X153530100Y-49011094D01*
X153608684Y-48616026D01*
X153730438Y-48322086D01*
X153762833Y-48243877D01*
X153986623Y-47908952D01*
X154271452Y-47624123D01*
X154606377Y-47400333D01*
X154760526Y-47336483D01*
X154978526Y-47246184D01*
X155373594Y-47167600D01*
X155776406Y-47167600D01*
X156171474Y-47246184D01*
X156171474Y-47246184D01*
G37*
G36*
X160925104Y-48322085D02*
G01*
X161093626Y-48391889D01*
X161245291Y-48493228D01*
X161374272Y-48622209D01*
X161475611Y-48773874D01*
X161545415Y-48942396D01*
X161581000Y-49121297D01*
X161581000Y-49303703D01*
X161545415Y-49482604D01*
X161475611Y-49651126D01*
X161374272Y-49802791D01*
X161245291Y-49931772D01*
X161093626Y-50033111D01*
X160925104Y-50102915D01*
X160746203Y-50138500D01*
X160563797Y-50138500D01*
X160384896Y-50102915D01*
X160216374Y-50033111D01*
X160064709Y-49931772D01*
X159935728Y-49802791D01*
X159834389Y-49651126D01*
X159764585Y-49482604D01*
X159729000Y-49303703D01*
X159729000Y-49121297D01*
X159764585Y-48942396D01*
X159834389Y-48773874D01*
X159935728Y-48622209D01*
X160064709Y-48493228D01*
X160216374Y-48391889D01*
X160384896Y-48322085D01*
X160563797Y-48286500D01*
X160746203Y-48286500D01*
X160925104Y-48322085D01*
X160925104Y-48322085D01*
G37*
G36*
X150765104Y-48322085D02*
G01*
X150933626Y-48391889D01*
X151085291Y-48493228D01*
X151214272Y-48622209D01*
X151315611Y-48773874D01*
X151385415Y-48942396D01*
X151421000Y-49121297D01*
X151421000Y-49303703D01*
X151385415Y-49482604D01*
X151315611Y-49651126D01*
X151214272Y-49802791D01*
X151085291Y-49931772D01*
X150933626Y-50033111D01*
X150765104Y-50102915D01*
X150586203Y-50138500D01*
X150403797Y-50138500D01*
X150224896Y-50102915D01*
X150056374Y-50033111D01*
X149904709Y-49931772D01*
X149775728Y-49802791D01*
X149674389Y-49651126D01*
X149604585Y-49482604D01*
X149569000Y-49303703D01*
X149569000Y-49121297D01*
X149604585Y-48942396D01*
X149674389Y-48773874D01*
X149775728Y-48622209D01*
X149904709Y-48493228D01*
X150056374Y-48391889D01*
X150224896Y-48322085D01*
X150403797Y-48286500D01*
X150586203Y-48286500D01*
X150765104Y-48322085D01*
X150765104Y-48322085D01*
G37*
G36*
X141875104Y-48322085D02*
G01*
X142043626Y-48391889D01*
X142195291Y-48493228D01*
X142324272Y-48622209D01*
X142425611Y-48773874D01*
X142495415Y-48942396D01*
X142531000Y-49121297D01*
X142531000Y-49303703D01*
X142495415Y-49482604D01*
X142425611Y-49651126D01*
X142324272Y-49802791D01*
X142195291Y-49931772D01*
X142043626Y-50033111D01*
X141875104Y-50102915D01*
X141696203Y-50138500D01*
X141513797Y-50138500D01*
X141334896Y-50102915D01*
X141166374Y-50033111D01*
X141014709Y-49931772D01*
X140885728Y-49802791D01*
X140784389Y-49651126D01*
X140714585Y-49482604D01*
X140679000Y-49303703D01*
X140679000Y-49121297D01*
X140714585Y-48942396D01*
X140784389Y-48773874D01*
X140885728Y-48622209D01*
X141014709Y-48493228D01*
X141166374Y-48391889D01*
X141334896Y-48322085D01*
X141513797Y-48286500D01*
X141696203Y-48286500D01*
X141875104Y-48322085D01*
X141875104Y-48322085D01*
G37*
G36*
X131715104Y-48322085D02*
G01*
X131883626Y-48391889D01*
X132035291Y-48493228D01*
X132164272Y-48622209D01*
X132265611Y-48773874D01*
X132335415Y-48942396D01*
X132371000Y-49121297D01*
X132371000Y-49303703D01*
X132335415Y-49482604D01*
X132265611Y-49651126D01*
X132164272Y-49802791D01*
X132035291Y-49931772D01*
X131883626Y-50033111D01*
X131715104Y-50102915D01*
X131536203Y-50138500D01*
X131353797Y-50138500D01*
X131174896Y-50102915D01*
X131006374Y-50033111D01*
X130854709Y-49931772D01*
X130725728Y-49802791D01*
X130624389Y-49651126D01*
X130554585Y-49482604D01*
X130519000Y-49303703D01*
X130519000Y-49121297D01*
X130554585Y-48942396D01*
X130624389Y-48773874D01*
X130725728Y-48622209D01*
X130854709Y-48493228D01*
X131006374Y-48391889D01*
X131174896Y-48322085D01*
X131353797Y-48286500D01*
X131536203Y-48286500D01*
X131715104Y-48322085D01*
X131715104Y-48322085D01*
G37*
G36*
X137121474Y-28196184D02*
G01*
X137339474Y-28286483D01*
X137493623Y-28350333D01*
X137828548Y-28574123D01*
X138113377Y-28858952D01*
X138337167Y-29193877D01*
X138369562Y-29272086D01*
X138491316Y-29566026D01*
X138569900Y-29961094D01*
X138569900Y-30363906D01*
X138491316Y-30758974D01*
X138440451Y-30881772D01*
X138337167Y-31131123D01*
X138113377Y-31466048D01*
X137828548Y-31750877D01*
X137493623Y-31974667D01*
X137339474Y-32038517D01*
X137121474Y-32128816D01*
X136726406Y-32207400D01*
X136323594Y-32207400D01*
X135928526Y-32128816D01*
X135710526Y-32038517D01*
X135556377Y-31974667D01*
X135221452Y-31750877D01*
X134936623Y-31466048D01*
X134712833Y-31131123D01*
X134609549Y-30881772D01*
X134558684Y-30758974D01*
X134480100Y-30363906D01*
X134480100Y-29961094D01*
X134558684Y-29566026D01*
X134680438Y-29272086D01*
X134712833Y-29193877D01*
X134936623Y-28858952D01*
X135221452Y-28574123D01*
X135556377Y-28350333D01*
X135710526Y-28286483D01*
X135928526Y-28196184D01*
X136323594Y-28117600D01*
X136726406Y-28117600D01*
X137121474Y-28196184D01*
X137121474Y-28196184D01*
G37*
G36*
X156171474Y-28196184D02*
G01*
X156389474Y-28286483D01*
X156543623Y-28350333D01*
X156878548Y-28574123D01*
X157163377Y-28858952D01*
X157387167Y-29193877D01*
X157419562Y-29272086D01*
X157541316Y-29566026D01*
X157619900Y-29961094D01*
X157619900Y-30363906D01*
X157541316Y-30758974D01*
X157490451Y-30881772D01*
X157387167Y-31131123D01*
X157163377Y-31466048D01*
X156878548Y-31750877D01*
X156543623Y-31974667D01*
X156389474Y-32038517D01*
X156171474Y-32128816D01*
X155776406Y-32207400D01*
X155373594Y-32207400D01*
X154978526Y-32128816D01*
X154760526Y-32038517D01*
X154606377Y-31974667D01*
X154271452Y-31750877D01*
X153986623Y-31466048D01*
X153762833Y-31131123D01*
X153659549Y-30881772D01*
X153608684Y-30758974D01*
X153530100Y-30363906D01*
X153530100Y-29961094D01*
X153608684Y-29566026D01*
X153730438Y-29272086D01*
X153762833Y-29193877D01*
X153986623Y-28858952D01*
X154271452Y-28574123D01*
X154606377Y-28350333D01*
X154760526Y-28286483D01*
X154978526Y-28196184D01*
X155373594Y-28117600D01*
X155776406Y-28117600D01*
X156171474Y-28196184D01*
X156171474Y-28196184D01*
G37*
G36*
X141875104Y-29272085D02*
G01*
X142043626Y-29341889D01*
X142195291Y-29443228D01*
X142324272Y-29572209D01*
X142425611Y-29723874D01*
X142495415Y-29892396D01*
X142531000Y-30071297D01*
X142531000Y-30253703D01*
X142495415Y-30432604D01*
X142425611Y-30601126D01*
X142324272Y-30752791D01*
X142195291Y-30881772D01*
X142043626Y-30983111D01*
X141875104Y-31052915D01*
X141696203Y-31088500D01*
X141513797Y-31088500D01*
X141334896Y-31052915D01*
X141166374Y-30983111D01*
X141014709Y-30881772D01*
X140885728Y-30752791D01*
X140784389Y-30601126D01*
X140714585Y-30432604D01*
X140679000Y-30253703D01*
X140679000Y-30071297D01*
X140714585Y-29892396D01*
X140784389Y-29723874D01*
X140885728Y-29572209D01*
X141014709Y-29443228D01*
X141166374Y-29341889D01*
X141334896Y-29272085D01*
X141513797Y-29236500D01*
X141696203Y-29236500D01*
X141875104Y-29272085D01*
X141875104Y-29272085D01*
G37*
G36*
X131715104Y-29272085D02*
G01*
X131883626Y-29341889D01*
X132035291Y-29443228D01*
X132164272Y-29572209D01*
X132265611Y-29723874D01*
X132335415Y-29892396D01*
X132371000Y-30071297D01*
X132371000Y-30253703D01*
X132335415Y-30432604D01*
X132265611Y-30601126D01*
X132164272Y-30752791D01*
X132035291Y-30881772D01*
X131883626Y-30983111D01*
X131715104Y-31052915D01*
X131536203Y-31088500D01*
X131353797Y-31088500D01*
X131174896Y-31052915D01*
X131006374Y-30983111D01*
X130854709Y-30881772D01*
X130725728Y-30752791D01*
X130624389Y-30601126D01*
X130554585Y-30432604D01*
X130519000Y-30253703D01*
X130519000Y-30071297D01*
X130554585Y-29892396D01*
X130624389Y-29723874D01*
X130725728Y-29572209D01*
X130854709Y-29443228D01*
X131006374Y-29341889D01*
X131174896Y-29272085D01*
X131353797Y-29236500D01*
X131536203Y-29236500D01*
X131715104Y-29272085D01*
X131715104Y-29272085D01*
G37*
G36*
X150765104Y-29272085D02*
G01*
X150933626Y-29341889D01*
X151085291Y-29443228D01*
X151214272Y-29572209D01*
X151315611Y-29723874D01*
X151385415Y-29892396D01*
X151421000Y-30071297D01*
X151421000Y-30253703D01*
X151385415Y-30432604D01*
X151315611Y-30601126D01*
X151214272Y-30752791D01*
X151085291Y-30881772D01*
X150933626Y-30983111D01*
X150765104Y-31052915D01*
X150586203Y-31088500D01*
X150403797Y-31088500D01*
X150224896Y-31052915D01*
X150056374Y-30983111D01*
X149904709Y-30881772D01*
X149775728Y-30752791D01*
X149674389Y-30601126D01*
X149604585Y-30432604D01*
X149569000Y-30253703D01*
X149569000Y-30071297D01*
X149604585Y-29892396D01*
X149674389Y-29723874D01*
X149775728Y-29572209D01*
X149904709Y-29443228D01*
X150056374Y-29341889D01*
X150224896Y-29272085D01*
X150403797Y-29236500D01*
X150586203Y-29236500D01*
X150765104Y-29272085D01*
X150765104Y-29272085D01*
G37*
G36*
X160925104Y-29272085D02*
G01*
X161093626Y-29341889D01*
X161245291Y-29443228D01*
X161374272Y-29572209D01*
X161475611Y-29723874D01*
X161545415Y-29892396D01*
X161581000Y-30071297D01*
X161581000Y-30253703D01*
X161545415Y-30432604D01*
X161475611Y-30601126D01*
X161374272Y-30752791D01*
X161245291Y-30881772D01*
X161093626Y-30983111D01*
X160925104Y-31052915D01*
X160746203Y-31088500D01*
X160563797Y-31088500D01*
X160384896Y-31052915D01*
X160216374Y-30983111D01*
X160064709Y-30881772D01*
X159935728Y-30752791D01*
X159834389Y-30601126D01*
X159764585Y-30432604D01*
X159729000Y-30253703D01*
X159729000Y-30071297D01*
X159764585Y-29892396D01*
X159834389Y-29723874D01*
X159935728Y-29572209D01*
X160064709Y-29443228D01*
X160216374Y-29341889D01*
X160384896Y-29272085D01*
X160563797Y-29236500D01*
X160746203Y-29236500D01*
X160925104Y-29272085D01*
X160925104Y-29272085D01*
G37*
G36*
X85426627Y-25337037D02*
G01*
X85596466Y-25388557D01*
X85752991Y-25472222D01*
X85788729Y-25501552D01*
X85890186Y-25584814D01*
X85973448Y-25686271D01*
X86002778Y-25722009D01*
X86086443Y-25878534D01*
X86137963Y-26048373D01*
X86151000Y-26180742D01*
X86151000Y-27269258D01*
X86137963Y-27401627D01*
X86086443Y-27571466D01*
X86002778Y-27727991D01*
X85973448Y-27763729D01*
X85890186Y-27865186D01*
X85752989Y-27977779D01*
X85596467Y-28061442D01*
X85596465Y-28061443D01*
X85426626Y-28112963D01*
X85250000Y-28130359D01*
X85073373Y-28112963D01*
X84903534Y-28061443D01*
X84747009Y-27977778D01*
X84711271Y-27948448D01*
X84609814Y-27865186D01*
X84497221Y-27727989D01*
X84413558Y-27571467D01*
X84413557Y-27571465D01*
X84362037Y-27401626D01*
X84349000Y-27269257D01*
X84349001Y-26180742D01*
X84362038Y-26048373D01*
X84413558Y-25878534D01*
X84497223Y-25722009D01*
X84526553Y-25686271D01*
X84609815Y-25584814D01*
X84711272Y-25501552D01*
X84747010Y-25472222D01*
X84903535Y-25388557D01*
X85073374Y-25337037D01*
X85250000Y-25319641D01*
X85426627Y-25337037D01*
X85426627Y-25337037D01*
G37*
G36*
X92726627Y-25337037D02*
G01*
X92896466Y-25388557D01*
X93052991Y-25472222D01*
X93088729Y-25501552D01*
X93190186Y-25584814D01*
X93273448Y-25686271D01*
X93302778Y-25722009D01*
X93386443Y-25878534D01*
X93437963Y-26048373D01*
X93451000Y-26180742D01*
X93451000Y-27269258D01*
X93437963Y-27401627D01*
X93386443Y-27571466D01*
X93302778Y-27727991D01*
X93273448Y-27763729D01*
X93190186Y-27865186D01*
X93052989Y-27977779D01*
X92896467Y-28061442D01*
X92896465Y-28061443D01*
X92726626Y-28112963D01*
X92550000Y-28130359D01*
X92373373Y-28112963D01*
X92203534Y-28061443D01*
X92047009Y-27977778D01*
X92011271Y-27948448D01*
X91909814Y-27865186D01*
X91797221Y-27727989D01*
X91713558Y-27571467D01*
X91713557Y-27571465D01*
X91662037Y-27401626D01*
X91649000Y-27269257D01*
X91649001Y-26180742D01*
X91662038Y-26048373D01*
X91713558Y-25878534D01*
X91797223Y-25722009D01*
X91826553Y-25686271D01*
X91909815Y-25584814D01*
X92011272Y-25501552D01*
X92047010Y-25472222D01*
X92203535Y-25388557D01*
X92373374Y-25337037D01*
X92550000Y-25319641D01*
X92726627Y-25337037D01*
X92726627Y-25337037D01*
G37*
G36*
X85426627Y-20837037D02*
G01*
X85596466Y-20888557D01*
X85752991Y-20972222D01*
X85788729Y-21001552D01*
X85890186Y-21084814D01*
X85973448Y-21186271D01*
X86002778Y-21222009D01*
X86086443Y-21378534D01*
X86137963Y-21548373D01*
X86151000Y-21680742D01*
X86151000Y-22769258D01*
X86137963Y-22901627D01*
X86086443Y-23071466D01*
X86002778Y-23227991D01*
X85973448Y-23263729D01*
X85890186Y-23365186D01*
X85752989Y-23477779D01*
X85596467Y-23561442D01*
X85596465Y-23561443D01*
X85426626Y-23612963D01*
X85250000Y-23630359D01*
X85073373Y-23612963D01*
X84903534Y-23561443D01*
X84747009Y-23477778D01*
X84711271Y-23448448D01*
X84609814Y-23365186D01*
X84497221Y-23227989D01*
X84413558Y-23071467D01*
X84413557Y-23071465D01*
X84362037Y-22901626D01*
X84349000Y-22769257D01*
X84349001Y-21680742D01*
X84362038Y-21548373D01*
X84413558Y-21378534D01*
X84497223Y-21222009D01*
X84526553Y-21186271D01*
X84609815Y-21084814D01*
X84711272Y-21001552D01*
X84747010Y-20972222D01*
X84903535Y-20888557D01*
X85073374Y-20837037D01*
X85250000Y-20819641D01*
X85426627Y-20837037D01*
X85426627Y-20837037D01*
G37*
G36*
X92726627Y-20837037D02*
G01*
X92896466Y-20888557D01*
X93052991Y-20972222D01*
X93088729Y-21001552D01*
X93190186Y-21084814D01*
X93273448Y-21186271D01*
X93302778Y-21222009D01*
X93386443Y-21378534D01*
X93437963Y-21548373D01*
X93451000Y-21680742D01*
X93451000Y-22769258D01*
X93437963Y-22901627D01*
X93386443Y-23071466D01*
X93302778Y-23227991D01*
X93273448Y-23263729D01*
X93190186Y-23365186D01*
X93052989Y-23477779D01*
X92896467Y-23561442D01*
X92896465Y-23561443D01*
X92726626Y-23612963D01*
X92550000Y-23630359D01*
X92373373Y-23612963D01*
X92203534Y-23561443D01*
X92047009Y-23477778D01*
X92011271Y-23448448D01*
X91909814Y-23365186D01*
X91797221Y-23227989D01*
X91713558Y-23071467D01*
X91713557Y-23071465D01*
X91662037Y-22901626D01*
X91649000Y-22769257D01*
X91649001Y-21680742D01*
X91662038Y-21548373D01*
X91713558Y-21378534D01*
X91797223Y-21222009D01*
X91826553Y-21186271D01*
X91909815Y-21084814D01*
X92011272Y-21001552D01*
X92047010Y-20972222D01*
X92203535Y-20888557D01*
X92373374Y-20837037D01*
X92550000Y-20819641D01*
X92726627Y-20837037D01*
X92726627Y-20837037D01*
G37*
M02*
