G04 #@! TF.GenerationSoftware,KiCad,Pcbnew,(5.1.4)-1*
G04 #@! TF.CreationDate,2023-09-10T14:26:21-07:00*
G04 #@! TF.ProjectId,KeyboardPCBProj,4b657962-6f61-4726-9450-434250726f6a,rev?*
G04 #@! TF.SameCoordinates,Original*
G04 #@! TF.FileFunction,Copper,L1,Top*
G04 #@! TF.FilePolarity,Positive*
%FSLAX46Y46*%
G04 Gerber Fmt 4.6, Leading zero omitted, Abs format (unit mm)*
G04 Created by KiCad (PCBNEW (5.1.4)-1) date 2023-09-10 14:26:21*
%MOMM*%
%LPD*%
G04 APERTURE LIST*
%ADD10O,1.700000X2.700000*%
%ADD11C,2.250000*%
%ADD12C,2.250000*%
%ADD13C,0.800000*%
%ADD14C,0.381000*%
%ADD15C,0.254000*%
G04 APERTURE END LIST*
D10*
X85250000Y-26725000D03*
X92550000Y-26725000D03*
X92550000Y-22225000D03*
X85250000Y-22225000D03*
D11*
X153075000Y-45212500D03*
X152420001Y-45942500D03*
D12*
X151765000Y-46672500D02*
X153075002Y-45212500D01*
D11*
X158115000Y-44132500D03*
X158095000Y-44422500D03*
D12*
X158075000Y-44712500D02*
X158115000Y-44132500D01*
D11*
X134025000Y-45212500D03*
X133370001Y-45942500D03*
D12*
X132715000Y-46672500D02*
X134025002Y-45212500D01*
D11*
X139065000Y-44132500D03*
X139045000Y-44422500D03*
D12*
X139025000Y-44712500D02*
X139065000Y-44132500D01*
D11*
X153075000Y-26162500D03*
X152420001Y-26892500D03*
D12*
X151765000Y-27622500D02*
X153075002Y-26162500D01*
D11*
X158115000Y-25082500D03*
X158095000Y-25372500D03*
D12*
X158075000Y-25662500D02*
X158115000Y-25082500D01*
D11*
X134025000Y-26162500D03*
X133370001Y-26892500D03*
D12*
X132715000Y-27622500D02*
X134025002Y-26162500D01*
D11*
X139065000Y-25082500D03*
X139045000Y-25372500D03*
D12*
X139025000Y-25662500D02*
X139065000Y-25082500D01*
D13*
X100806250Y-42862500D03*
X100806250Y-39687500D03*
X118268750Y-46831250D03*
X114300000Y-51593750D03*
X102393750Y-42862500D03*
X103184907Y-38896343D03*
X101600000Y-28575000D03*
X124618750Y-37306250D03*
X116681250Y-51593750D03*
X96043750Y-44450000D03*
X102393750Y-34131250D03*
X103187500Y-43656250D03*
X99218750Y-43656250D03*
X106362500Y-52387500D03*
X92868750Y-51593750D03*
X97631250Y-31750000D03*
D14*
X100806250Y-42862500D02*
X100806250Y-39687500D01*
X118268750Y-46831250D02*
X114300000Y-50800000D01*
X114300000Y-50800000D02*
X114300000Y-51593750D01*
D15*
X102393750Y-42862500D02*
X102393750Y-39687500D01*
X102393750Y-39687500D02*
X103187500Y-38893750D01*
X103187500Y-38893750D02*
X103184907Y-38896343D01*
D14*
X101600000Y-28575000D02*
X101600000Y-32543750D01*
X101600000Y-32543750D02*
X100012500Y-34131250D01*
X100012500Y-34131250D02*
X100012500Y-36512500D01*
X100012500Y-36512500D02*
X94456250Y-42068750D01*
X94456250Y-46831250D02*
X100806250Y-53181250D01*
X123031250Y-53181250D02*
X123031250Y-38893750D01*
X123031250Y-38893750D02*
X124618750Y-37306250D01*
X116681250Y-51593750D02*
X116681250Y-53181250D01*
X116681250Y-53181250D02*
X123031250Y-53181250D01*
X96043750Y-44450000D02*
X94456250Y-44450000D01*
X94456250Y-42068750D02*
X94456250Y-44450000D01*
X94456250Y-44450000D02*
X94456250Y-46831250D01*
X102393750Y-34131250D02*
X100012500Y-34131250D01*
X103187500Y-43656250D02*
X99218750Y-43656250D01*
X106362500Y-52387500D02*
X106362500Y-53181250D01*
X100806250Y-53181250D02*
X106362500Y-53181250D01*
X106362500Y-53181250D02*
X116681250Y-53181250D01*
D15*
X132715000Y-43902500D02*
X132715000Y-46672500D01*
X132715000Y-27622500D02*
X132715000Y-43902500D01*
X151765000Y-43902500D02*
X151765000Y-46672500D01*
X151765000Y-27622500D02*
X151765000Y-43902500D01*
X92868750Y-51593750D02*
X92868750Y-36512500D01*
X92868750Y-36512500D02*
X97631250Y-31750000D01*
M02*
