G04 #@! TF.GenerationSoftware,KiCad,Pcbnew,(5.1.4)-1*
G04 #@! TF.CreationDate,2023-09-10T14:26:21-07:00*
G04 #@! TF.ProjectId,KeyboardPCBProj,4b657962-6f61-4726-9450-434250726f6a,rev?*
G04 #@! TF.SameCoordinates,Original*
G04 #@! TF.FileFunction,Paste,Bot*
G04 #@! TF.FilePolarity,Positive*
%FSLAX46Y46*%
G04 Gerber Fmt 4.6, Leading zero omitted, Abs format (unit mm)*
G04 Created by KiCad (PCBNEW (5.1.4)-1) date 2023-09-10 14:26:21*
%MOMM*%
%LPD*%
G04 APERTURE LIST*
%ADD10R,1.200000X1.400000*%
%ADD11R,0.500000X2.250000*%
%ADD12R,0.550000X1.500000*%
%ADD13R,1.500000X0.550000*%
%ADD14R,1.800000X1.100000*%
%ADD15C,0.100000*%
%ADD16C,0.975000*%
%ADD17C,1.250000*%
%ADD18R,1.200000X0.900000*%
G04 APERTURE END LIST*
D10*
X113562500Y-28881250D03*
X113562500Y-26681250D03*
X111862500Y-26681250D03*
X111862500Y-28881250D03*
D11*
X90500000Y-26725000D03*
X89700000Y-26725000D03*
X88900000Y-26725000D03*
X88100000Y-26725000D03*
X87300000Y-26725000D03*
D12*
X107125000Y-45387500D03*
X107925000Y-45387500D03*
X108725000Y-45387500D03*
X109525000Y-45387500D03*
X110325000Y-45387500D03*
X111125000Y-45387500D03*
X111925000Y-45387500D03*
X112725000Y-45387500D03*
X113525000Y-45387500D03*
X114325000Y-45387500D03*
X115125000Y-45387500D03*
D13*
X116825000Y-43687500D03*
X116825000Y-42887500D03*
X116825000Y-42087500D03*
X116825000Y-41287500D03*
X116825000Y-40487500D03*
X116825000Y-39687500D03*
X116825000Y-38887500D03*
X116825000Y-38087500D03*
X116825000Y-37287500D03*
X116825000Y-36487500D03*
X116825000Y-35687500D03*
D12*
X115125000Y-33987500D03*
X114325000Y-33987500D03*
X113525000Y-33987500D03*
X112725000Y-33987500D03*
X111925000Y-33987500D03*
X111125000Y-33987500D03*
X110325000Y-33987500D03*
X109525000Y-33987500D03*
X108725000Y-33987500D03*
X107925000Y-33987500D03*
X107125000Y-33987500D03*
D13*
X105425000Y-35687500D03*
X105425000Y-36487500D03*
X105425000Y-37287500D03*
X105425000Y-38087500D03*
X105425000Y-38887500D03*
X105425000Y-39687500D03*
X105425000Y-40487500D03*
X105425000Y-41287500D03*
X105425000Y-42087500D03*
X105425000Y-42887500D03*
X105425000Y-43687500D03*
D14*
X90412500Y-55825000D03*
X84212500Y-52125000D03*
X90412500Y-52125000D03*
X84212500Y-55825000D03*
D15*
G36*
X120336392Y-43819924D02*
G01*
X120360053Y-43823434D01*
X120383257Y-43829246D01*
X120405779Y-43837304D01*
X120427403Y-43847532D01*
X120447920Y-43859829D01*
X120467133Y-43874079D01*
X120484857Y-43890143D01*
X120500921Y-43907867D01*
X120515171Y-43927080D01*
X120527468Y-43947597D01*
X120537696Y-43969221D01*
X120545754Y-43991743D01*
X120551566Y-44014947D01*
X120555076Y-44038608D01*
X120556250Y-44062500D01*
X120556250Y-44550000D01*
X120555076Y-44573892D01*
X120551566Y-44597553D01*
X120545754Y-44620757D01*
X120537696Y-44643279D01*
X120527468Y-44664903D01*
X120515171Y-44685420D01*
X120500921Y-44704633D01*
X120484857Y-44722357D01*
X120467133Y-44738421D01*
X120447920Y-44752671D01*
X120427403Y-44764968D01*
X120405779Y-44775196D01*
X120383257Y-44783254D01*
X120360053Y-44789066D01*
X120336392Y-44792576D01*
X120312500Y-44793750D01*
X119400000Y-44793750D01*
X119376108Y-44792576D01*
X119352447Y-44789066D01*
X119329243Y-44783254D01*
X119306721Y-44775196D01*
X119285097Y-44764968D01*
X119264580Y-44752671D01*
X119245367Y-44738421D01*
X119227643Y-44722357D01*
X119211579Y-44704633D01*
X119197329Y-44685420D01*
X119185032Y-44664903D01*
X119174804Y-44643279D01*
X119166746Y-44620757D01*
X119160934Y-44597553D01*
X119157424Y-44573892D01*
X119156250Y-44550000D01*
X119156250Y-44062500D01*
X119157424Y-44038608D01*
X119160934Y-44014947D01*
X119166746Y-43991743D01*
X119174804Y-43969221D01*
X119185032Y-43947597D01*
X119197329Y-43927080D01*
X119211579Y-43907867D01*
X119227643Y-43890143D01*
X119245367Y-43874079D01*
X119264580Y-43859829D01*
X119285097Y-43847532D01*
X119306721Y-43837304D01*
X119329243Y-43829246D01*
X119352447Y-43823434D01*
X119376108Y-43819924D01*
X119400000Y-43818750D01*
X120312500Y-43818750D01*
X120336392Y-43819924D01*
X120336392Y-43819924D01*
G37*
D16*
X119856250Y-44306250D03*
D15*
G36*
X120336392Y-45694924D02*
G01*
X120360053Y-45698434D01*
X120383257Y-45704246D01*
X120405779Y-45712304D01*
X120427403Y-45722532D01*
X120447920Y-45734829D01*
X120467133Y-45749079D01*
X120484857Y-45765143D01*
X120500921Y-45782867D01*
X120515171Y-45802080D01*
X120527468Y-45822597D01*
X120537696Y-45844221D01*
X120545754Y-45866743D01*
X120551566Y-45889947D01*
X120555076Y-45913608D01*
X120556250Y-45937500D01*
X120556250Y-46425000D01*
X120555076Y-46448892D01*
X120551566Y-46472553D01*
X120545754Y-46495757D01*
X120537696Y-46518279D01*
X120527468Y-46539903D01*
X120515171Y-46560420D01*
X120500921Y-46579633D01*
X120484857Y-46597357D01*
X120467133Y-46613421D01*
X120447920Y-46627671D01*
X120427403Y-46639968D01*
X120405779Y-46650196D01*
X120383257Y-46658254D01*
X120360053Y-46664066D01*
X120336392Y-46667576D01*
X120312500Y-46668750D01*
X119400000Y-46668750D01*
X119376108Y-46667576D01*
X119352447Y-46664066D01*
X119329243Y-46658254D01*
X119306721Y-46650196D01*
X119285097Y-46639968D01*
X119264580Y-46627671D01*
X119245367Y-46613421D01*
X119227643Y-46597357D01*
X119211579Y-46579633D01*
X119197329Y-46560420D01*
X119185032Y-46539903D01*
X119174804Y-46518279D01*
X119166746Y-46495757D01*
X119160934Y-46472553D01*
X119157424Y-46448892D01*
X119156250Y-46425000D01*
X119156250Y-45937500D01*
X119157424Y-45913608D01*
X119160934Y-45889947D01*
X119166746Y-45866743D01*
X119174804Y-45844221D01*
X119185032Y-45822597D01*
X119197329Y-45802080D01*
X119211579Y-45782867D01*
X119227643Y-45765143D01*
X119245367Y-45749079D01*
X119264580Y-45734829D01*
X119285097Y-45722532D01*
X119306721Y-45712304D01*
X119329243Y-45704246D01*
X119352447Y-45698434D01*
X119376108Y-45694924D01*
X119400000Y-45693750D01*
X120312500Y-45693750D01*
X120336392Y-45694924D01*
X120336392Y-45694924D01*
G37*
D16*
X119856250Y-46181250D03*
D15*
G36*
X87792642Y-32707424D02*
G01*
X87816303Y-32710934D01*
X87839507Y-32716746D01*
X87862029Y-32724804D01*
X87883653Y-32735032D01*
X87904170Y-32747329D01*
X87923383Y-32761579D01*
X87941107Y-32777643D01*
X87957171Y-32795367D01*
X87971421Y-32814580D01*
X87983718Y-32835097D01*
X87993946Y-32856721D01*
X88002004Y-32879243D01*
X88007816Y-32902447D01*
X88011326Y-32926108D01*
X88012500Y-32950000D01*
X88012500Y-33437500D01*
X88011326Y-33461392D01*
X88007816Y-33485053D01*
X88002004Y-33508257D01*
X87993946Y-33530779D01*
X87983718Y-33552403D01*
X87971421Y-33572920D01*
X87957171Y-33592133D01*
X87941107Y-33609857D01*
X87923383Y-33625921D01*
X87904170Y-33640171D01*
X87883653Y-33652468D01*
X87862029Y-33662696D01*
X87839507Y-33670754D01*
X87816303Y-33676566D01*
X87792642Y-33680076D01*
X87768750Y-33681250D01*
X86856250Y-33681250D01*
X86832358Y-33680076D01*
X86808697Y-33676566D01*
X86785493Y-33670754D01*
X86762971Y-33662696D01*
X86741347Y-33652468D01*
X86720830Y-33640171D01*
X86701617Y-33625921D01*
X86683893Y-33609857D01*
X86667829Y-33592133D01*
X86653579Y-33572920D01*
X86641282Y-33552403D01*
X86631054Y-33530779D01*
X86622996Y-33508257D01*
X86617184Y-33485053D01*
X86613674Y-33461392D01*
X86612500Y-33437500D01*
X86612500Y-32950000D01*
X86613674Y-32926108D01*
X86617184Y-32902447D01*
X86622996Y-32879243D01*
X86631054Y-32856721D01*
X86641282Y-32835097D01*
X86653579Y-32814580D01*
X86667829Y-32795367D01*
X86683893Y-32777643D01*
X86701617Y-32761579D01*
X86720830Y-32747329D01*
X86741347Y-32735032D01*
X86762971Y-32724804D01*
X86785493Y-32716746D01*
X86808697Y-32710934D01*
X86832358Y-32707424D01*
X86856250Y-32706250D01*
X87768750Y-32706250D01*
X87792642Y-32707424D01*
X87792642Y-32707424D01*
G37*
D16*
X87312500Y-33193750D03*
D15*
G36*
X87792642Y-34582424D02*
G01*
X87816303Y-34585934D01*
X87839507Y-34591746D01*
X87862029Y-34599804D01*
X87883653Y-34610032D01*
X87904170Y-34622329D01*
X87923383Y-34636579D01*
X87941107Y-34652643D01*
X87957171Y-34670367D01*
X87971421Y-34689580D01*
X87983718Y-34710097D01*
X87993946Y-34731721D01*
X88002004Y-34754243D01*
X88007816Y-34777447D01*
X88011326Y-34801108D01*
X88012500Y-34825000D01*
X88012500Y-35312500D01*
X88011326Y-35336392D01*
X88007816Y-35360053D01*
X88002004Y-35383257D01*
X87993946Y-35405779D01*
X87983718Y-35427403D01*
X87971421Y-35447920D01*
X87957171Y-35467133D01*
X87941107Y-35484857D01*
X87923383Y-35500921D01*
X87904170Y-35515171D01*
X87883653Y-35527468D01*
X87862029Y-35537696D01*
X87839507Y-35545754D01*
X87816303Y-35551566D01*
X87792642Y-35555076D01*
X87768750Y-35556250D01*
X86856250Y-35556250D01*
X86832358Y-35555076D01*
X86808697Y-35551566D01*
X86785493Y-35545754D01*
X86762971Y-35537696D01*
X86741347Y-35527468D01*
X86720830Y-35515171D01*
X86701617Y-35500921D01*
X86683893Y-35484857D01*
X86667829Y-35467133D01*
X86653579Y-35447920D01*
X86641282Y-35427403D01*
X86631054Y-35405779D01*
X86622996Y-35383257D01*
X86617184Y-35360053D01*
X86613674Y-35336392D01*
X86612500Y-35312500D01*
X86612500Y-34825000D01*
X86613674Y-34801108D01*
X86617184Y-34777447D01*
X86622996Y-34754243D01*
X86631054Y-34731721D01*
X86641282Y-34710097D01*
X86653579Y-34689580D01*
X86667829Y-34670367D01*
X86683893Y-34652643D01*
X86701617Y-34636579D01*
X86720830Y-34622329D01*
X86741347Y-34610032D01*
X86762971Y-34599804D01*
X86785493Y-34591746D01*
X86808697Y-34585934D01*
X86832358Y-34582424D01*
X86856250Y-34581250D01*
X87768750Y-34581250D01*
X87792642Y-34582424D01*
X87792642Y-34582424D01*
G37*
D16*
X87312500Y-35068750D03*
D15*
G36*
X90173892Y-32707424D02*
G01*
X90197553Y-32710934D01*
X90220757Y-32716746D01*
X90243279Y-32724804D01*
X90264903Y-32735032D01*
X90285420Y-32747329D01*
X90304633Y-32761579D01*
X90322357Y-32777643D01*
X90338421Y-32795367D01*
X90352671Y-32814580D01*
X90364968Y-32835097D01*
X90375196Y-32856721D01*
X90383254Y-32879243D01*
X90389066Y-32902447D01*
X90392576Y-32926108D01*
X90393750Y-32950000D01*
X90393750Y-33437500D01*
X90392576Y-33461392D01*
X90389066Y-33485053D01*
X90383254Y-33508257D01*
X90375196Y-33530779D01*
X90364968Y-33552403D01*
X90352671Y-33572920D01*
X90338421Y-33592133D01*
X90322357Y-33609857D01*
X90304633Y-33625921D01*
X90285420Y-33640171D01*
X90264903Y-33652468D01*
X90243279Y-33662696D01*
X90220757Y-33670754D01*
X90197553Y-33676566D01*
X90173892Y-33680076D01*
X90150000Y-33681250D01*
X89237500Y-33681250D01*
X89213608Y-33680076D01*
X89189947Y-33676566D01*
X89166743Y-33670754D01*
X89144221Y-33662696D01*
X89122597Y-33652468D01*
X89102080Y-33640171D01*
X89082867Y-33625921D01*
X89065143Y-33609857D01*
X89049079Y-33592133D01*
X89034829Y-33572920D01*
X89022532Y-33552403D01*
X89012304Y-33530779D01*
X89004246Y-33508257D01*
X88998434Y-33485053D01*
X88994924Y-33461392D01*
X88993750Y-33437500D01*
X88993750Y-32950000D01*
X88994924Y-32926108D01*
X88998434Y-32902447D01*
X89004246Y-32879243D01*
X89012304Y-32856721D01*
X89022532Y-32835097D01*
X89034829Y-32814580D01*
X89049079Y-32795367D01*
X89065143Y-32777643D01*
X89082867Y-32761579D01*
X89102080Y-32747329D01*
X89122597Y-32735032D01*
X89144221Y-32724804D01*
X89166743Y-32716746D01*
X89189947Y-32710934D01*
X89213608Y-32707424D01*
X89237500Y-32706250D01*
X90150000Y-32706250D01*
X90173892Y-32707424D01*
X90173892Y-32707424D01*
G37*
D16*
X89693750Y-33193750D03*
D15*
G36*
X90173892Y-34582424D02*
G01*
X90197553Y-34585934D01*
X90220757Y-34591746D01*
X90243279Y-34599804D01*
X90264903Y-34610032D01*
X90285420Y-34622329D01*
X90304633Y-34636579D01*
X90322357Y-34652643D01*
X90338421Y-34670367D01*
X90352671Y-34689580D01*
X90364968Y-34710097D01*
X90375196Y-34731721D01*
X90383254Y-34754243D01*
X90389066Y-34777447D01*
X90392576Y-34801108D01*
X90393750Y-34825000D01*
X90393750Y-35312500D01*
X90392576Y-35336392D01*
X90389066Y-35360053D01*
X90383254Y-35383257D01*
X90375196Y-35405779D01*
X90364968Y-35427403D01*
X90352671Y-35447920D01*
X90338421Y-35467133D01*
X90322357Y-35484857D01*
X90304633Y-35500921D01*
X90285420Y-35515171D01*
X90264903Y-35527468D01*
X90243279Y-35537696D01*
X90220757Y-35545754D01*
X90197553Y-35551566D01*
X90173892Y-35555076D01*
X90150000Y-35556250D01*
X89237500Y-35556250D01*
X89213608Y-35555076D01*
X89189947Y-35551566D01*
X89166743Y-35545754D01*
X89144221Y-35537696D01*
X89122597Y-35527468D01*
X89102080Y-35515171D01*
X89082867Y-35500921D01*
X89065143Y-35484857D01*
X89049079Y-35467133D01*
X89034829Y-35447920D01*
X89022532Y-35427403D01*
X89012304Y-35405779D01*
X89004246Y-35383257D01*
X88998434Y-35360053D01*
X88994924Y-35336392D01*
X88993750Y-35312500D01*
X88993750Y-34825000D01*
X88994924Y-34801108D01*
X88998434Y-34777447D01*
X89004246Y-34754243D01*
X89012304Y-34731721D01*
X89022532Y-34710097D01*
X89034829Y-34689580D01*
X89049079Y-34670367D01*
X89065143Y-34652643D01*
X89082867Y-34636579D01*
X89102080Y-34622329D01*
X89122597Y-34610032D01*
X89144221Y-34599804D01*
X89166743Y-34591746D01*
X89189947Y-34585934D01*
X89213608Y-34582424D01*
X89237500Y-34581250D01*
X90150000Y-34581250D01*
X90173892Y-34582424D01*
X90173892Y-34582424D01*
G37*
D16*
X89693750Y-35068750D03*
D15*
G36*
X98548892Y-27876174D02*
G01*
X98572553Y-27879684D01*
X98595757Y-27885496D01*
X98618279Y-27893554D01*
X98639903Y-27903782D01*
X98660420Y-27916079D01*
X98679633Y-27930329D01*
X98697357Y-27946393D01*
X98713421Y-27964117D01*
X98727671Y-27983330D01*
X98739968Y-28003847D01*
X98750196Y-28025471D01*
X98758254Y-28047993D01*
X98764066Y-28071197D01*
X98767576Y-28094858D01*
X98768750Y-28118750D01*
X98768750Y-29031250D01*
X98767576Y-29055142D01*
X98764066Y-29078803D01*
X98758254Y-29102007D01*
X98750196Y-29124529D01*
X98739968Y-29146153D01*
X98727671Y-29166670D01*
X98713421Y-29185883D01*
X98697357Y-29203607D01*
X98679633Y-29219671D01*
X98660420Y-29233921D01*
X98639903Y-29246218D01*
X98618279Y-29256446D01*
X98595757Y-29264504D01*
X98572553Y-29270316D01*
X98548892Y-29273826D01*
X98525000Y-29275000D01*
X98037500Y-29275000D01*
X98013608Y-29273826D01*
X97989947Y-29270316D01*
X97966743Y-29264504D01*
X97944221Y-29256446D01*
X97922597Y-29246218D01*
X97902080Y-29233921D01*
X97882867Y-29219671D01*
X97865143Y-29203607D01*
X97849079Y-29185883D01*
X97834829Y-29166670D01*
X97822532Y-29146153D01*
X97812304Y-29124529D01*
X97804246Y-29102007D01*
X97798434Y-29078803D01*
X97794924Y-29055142D01*
X97793750Y-29031250D01*
X97793750Y-28118750D01*
X97794924Y-28094858D01*
X97798434Y-28071197D01*
X97804246Y-28047993D01*
X97812304Y-28025471D01*
X97822532Y-28003847D01*
X97834829Y-27983330D01*
X97849079Y-27964117D01*
X97865143Y-27946393D01*
X97882867Y-27930329D01*
X97902080Y-27916079D01*
X97922597Y-27903782D01*
X97944221Y-27893554D01*
X97966743Y-27885496D01*
X97989947Y-27879684D01*
X98013608Y-27876174D01*
X98037500Y-27875000D01*
X98525000Y-27875000D01*
X98548892Y-27876174D01*
X98548892Y-27876174D01*
G37*
D16*
X98281250Y-28575000D03*
D15*
G36*
X100423892Y-27876174D02*
G01*
X100447553Y-27879684D01*
X100470757Y-27885496D01*
X100493279Y-27893554D01*
X100514903Y-27903782D01*
X100535420Y-27916079D01*
X100554633Y-27930329D01*
X100572357Y-27946393D01*
X100588421Y-27964117D01*
X100602671Y-27983330D01*
X100614968Y-28003847D01*
X100625196Y-28025471D01*
X100633254Y-28047993D01*
X100639066Y-28071197D01*
X100642576Y-28094858D01*
X100643750Y-28118750D01*
X100643750Y-29031250D01*
X100642576Y-29055142D01*
X100639066Y-29078803D01*
X100633254Y-29102007D01*
X100625196Y-29124529D01*
X100614968Y-29146153D01*
X100602671Y-29166670D01*
X100588421Y-29185883D01*
X100572357Y-29203607D01*
X100554633Y-29219671D01*
X100535420Y-29233921D01*
X100514903Y-29246218D01*
X100493279Y-29256446D01*
X100470757Y-29264504D01*
X100447553Y-29270316D01*
X100423892Y-29273826D01*
X100400000Y-29275000D01*
X99912500Y-29275000D01*
X99888608Y-29273826D01*
X99864947Y-29270316D01*
X99841743Y-29264504D01*
X99819221Y-29256446D01*
X99797597Y-29246218D01*
X99777080Y-29233921D01*
X99757867Y-29219671D01*
X99740143Y-29203607D01*
X99724079Y-29185883D01*
X99709829Y-29166670D01*
X99697532Y-29146153D01*
X99687304Y-29124529D01*
X99679246Y-29102007D01*
X99673434Y-29078803D01*
X99669924Y-29055142D01*
X99668750Y-29031250D01*
X99668750Y-28118750D01*
X99669924Y-28094858D01*
X99673434Y-28071197D01*
X99679246Y-28047993D01*
X99687304Y-28025471D01*
X99697532Y-28003847D01*
X99709829Y-27983330D01*
X99724079Y-27964117D01*
X99740143Y-27946393D01*
X99757867Y-27930329D01*
X99777080Y-27916079D01*
X99797597Y-27903782D01*
X99819221Y-27893554D01*
X99841743Y-27885496D01*
X99864947Y-27879684D01*
X99888608Y-27876174D01*
X99912500Y-27875000D01*
X100400000Y-27875000D01*
X100423892Y-27876174D01*
X100423892Y-27876174D01*
G37*
D16*
X100156250Y-28575000D03*
D15*
G36*
X85580754Y-36869954D02*
G01*
X85605023Y-36873554D01*
X85628821Y-36879515D01*
X85651921Y-36887780D01*
X85674099Y-36898270D01*
X85695143Y-36910883D01*
X85714848Y-36925497D01*
X85733027Y-36941973D01*
X85749503Y-36960152D01*
X85764117Y-36979857D01*
X85776730Y-37000901D01*
X85787220Y-37023079D01*
X85795485Y-37046179D01*
X85801446Y-37069977D01*
X85805046Y-37094246D01*
X85806250Y-37118750D01*
X85806250Y-37868750D01*
X85805046Y-37893254D01*
X85801446Y-37917523D01*
X85795485Y-37941321D01*
X85787220Y-37964421D01*
X85776730Y-37986599D01*
X85764117Y-38007643D01*
X85749503Y-38027348D01*
X85733027Y-38045527D01*
X85714848Y-38062003D01*
X85695143Y-38076617D01*
X85674099Y-38089230D01*
X85651921Y-38099720D01*
X85628821Y-38107985D01*
X85605023Y-38113946D01*
X85580754Y-38117546D01*
X85556250Y-38118750D01*
X84306250Y-38118750D01*
X84281746Y-38117546D01*
X84257477Y-38113946D01*
X84233679Y-38107985D01*
X84210579Y-38099720D01*
X84188401Y-38089230D01*
X84167357Y-38076617D01*
X84147652Y-38062003D01*
X84129473Y-38045527D01*
X84112997Y-38027348D01*
X84098383Y-38007643D01*
X84085770Y-37986599D01*
X84075280Y-37964421D01*
X84067015Y-37941321D01*
X84061054Y-37917523D01*
X84057454Y-37893254D01*
X84056250Y-37868750D01*
X84056250Y-37118750D01*
X84057454Y-37094246D01*
X84061054Y-37069977D01*
X84067015Y-37046179D01*
X84075280Y-37023079D01*
X84085770Y-37000901D01*
X84098383Y-36979857D01*
X84112997Y-36960152D01*
X84129473Y-36941973D01*
X84147652Y-36925497D01*
X84167357Y-36910883D01*
X84188401Y-36898270D01*
X84210579Y-36887780D01*
X84233679Y-36879515D01*
X84257477Y-36873554D01*
X84281746Y-36869954D01*
X84306250Y-36868750D01*
X85556250Y-36868750D01*
X85580754Y-36869954D01*
X85580754Y-36869954D01*
G37*
D17*
X84931250Y-37493750D03*
D15*
G36*
X85580754Y-39669954D02*
G01*
X85605023Y-39673554D01*
X85628821Y-39679515D01*
X85651921Y-39687780D01*
X85674099Y-39698270D01*
X85695143Y-39710883D01*
X85714848Y-39725497D01*
X85733027Y-39741973D01*
X85749503Y-39760152D01*
X85764117Y-39779857D01*
X85776730Y-39800901D01*
X85787220Y-39823079D01*
X85795485Y-39846179D01*
X85801446Y-39869977D01*
X85805046Y-39894246D01*
X85806250Y-39918750D01*
X85806250Y-40668750D01*
X85805046Y-40693254D01*
X85801446Y-40717523D01*
X85795485Y-40741321D01*
X85787220Y-40764421D01*
X85776730Y-40786599D01*
X85764117Y-40807643D01*
X85749503Y-40827348D01*
X85733027Y-40845527D01*
X85714848Y-40862003D01*
X85695143Y-40876617D01*
X85674099Y-40889230D01*
X85651921Y-40899720D01*
X85628821Y-40907985D01*
X85605023Y-40913946D01*
X85580754Y-40917546D01*
X85556250Y-40918750D01*
X84306250Y-40918750D01*
X84281746Y-40917546D01*
X84257477Y-40913946D01*
X84233679Y-40907985D01*
X84210579Y-40899720D01*
X84188401Y-40889230D01*
X84167357Y-40876617D01*
X84147652Y-40862003D01*
X84129473Y-40845527D01*
X84112997Y-40827348D01*
X84098383Y-40807643D01*
X84085770Y-40786599D01*
X84075280Y-40764421D01*
X84067015Y-40741321D01*
X84061054Y-40717523D01*
X84057454Y-40693254D01*
X84056250Y-40668750D01*
X84056250Y-39918750D01*
X84057454Y-39894246D01*
X84061054Y-39869977D01*
X84067015Y-39846179D01*
X84075280Y-39823079D01*
X84085770Y-39800901D01*
X84098383Y-39779857D01*
X84112997Y-39760152D01*
X84129473Y-39741973D01*
X84147652Y-39725497D01*
X84167357Y-39710883D01*
X84188401Y-39698270D01*
X84210579Y-39687780D01*
X84233679Y-39679515D01*
X84257477Y-39673554D01*
X84281746Y-39669954D01*
X84306250Y-39668750D01*
X85556250Y-39668750D01*
X85580754Y-39669954D01*
X85580754Y-39669954D01*
G37*
D17*
X84931250Y-40293750D03*
D18*
X163512500Y-47562500D03*
X163512500Y-50862500D03*
X144462500Y-47562500D03*
X144462500Y-50862500D03*
X163512500Y-28512500D03*
X163512500Y-31812500D03*
X144462500Y-28512500D03*
X144462500Y-31812500D03*
D15*
G36*
X98111392Y-44901174D02*
G01*
X98135053Y-44904684D01*
X98158257Y-44910496D01*
X98180779Y-44918554D01*
X98202403Y-44928782D01*
X98222920Y-44941079D01*
X98242133Y-44955329D01*
X98259857Y-44971393D01*
X98275921Y-44989117D01*
X98290171Y-45008330D01*
X98302468Y-45028847D01*
X98312696Y-45050471D01*
X98320754Y-45072993D01*
X98326566Y-45096197D01*
X98330076Y-45119858D01*
X98331250Y-45143750D01*
X98331250Y-45631250D01*
X98330076Y-45655142D01*
X98326566Y-45678803D01*
X98320754Y-45702007D01*
X98312696Y-45724529D01*
X98302468Y-45746153D01*
X98290171Y-45766670D01*
X98275921Y-45785883D01*
X98259857Y-45803607D01*
X98242133Y-45819671D01*
X98222920Y-45833921D01*
X98202403Y-45846218D01*
X98180779Y-45856446D01*
X98158257Y-45864504D01*
X98135053Y-45870316D01*
X98111392Y-45873826D01*
X98087500Y-45875000D01*
X97175000Y-45875000D01*
X97151108Y-45873826D01*
X97127447Y-45870316D01*
X97104243Y-45864504D01*
X97081721Y-45856446D01*
X97060097Y-45846218D01*
X97039580Y-45833921D01*
X97020367Y-45819671D01*
X97002643Y-45803607D01*
X96986579Y-45785883D01*
X96972329Y-45766670D01*
X96960032Y-45746153D01*
X96949804Y-45724529D01*
X96941746Y-45702007D01*
X96935934Y-45678803D01*
X96932424Y-45655142D01*
X96931250Y-45631250D01*
X96931250Y-45143750D01*
X96932424Y-45119858D01*
X96935934Y-45096197D01*
X96941746Y-45072993D01*
X96949804Y-45050471D01*
X96960032Y-45028847D01*
X96972329Y-45008330D01*
X96986579Y-44989117D01*
X97002643Y-44971393D01*
X97020367Y-44955329D01*
X97039580Y-44941079D01*
X97060097Y-44928782D01*
X97081721Y-44918554D01*
X97104243Y-44910496D01*
X97127447Y-44904684D01*
X97151108Y-44901174D01*
X97175000Y-44900000D01*
X98087500Y-44900000D01*
X98111392Y-44901174D01*
X98111392Y-44901174D01*
G37*
D16*
X97631250Y-45387500D03*
D15*
G36*
X98111392Y-43026174D02*
G01*
X98135053Y-43029684D01*
X98158257Y-43035496D01*
X98180779Y-43043554D01*
X98202403Y-43053782D01*
X98222920Y-43066079D01*
X98242133Y-43080329D01*
X98259857Y-43096393D01*
X98275921Y-43114117D01*
X98290171Y-43133330D01*
X98302468Y-43153847D01*
X98312696Y-43175471D01*
X98320754Y-43197993D01*
X98326566Y-43221197D01*
X98330076Y-43244858D01*
X98331250Y-43268750D01*
X98331250Y-43756250D01*
X98330076Y-43780142D01*
X98326566Y-43803803D01*
X98320754Y-43827007D01*
X98312696Y-43849529D01*
X98302468Y-43871153D01*
X98290171Y-43891670D01*
X98275921Y-43910883D01*
X98259857Y-43928607D01*
X98242133Y-43944671D01*
X98222920Y-43958921D01*
X98202403Y-43971218D01*
X98180779Y-43981446D01*
X98158257Y-43989504D01*
X98135053Y-43995316D01*
X98111392Y-43998826D01*
X98087500Y-44000000D01*
X97175000Y-44000000D01*
X97151108Y-43998826D01*
X97127447Y-43995316D01*
X97104243Y-43989504D01*
X97081721Y-43981446D01*
X97060097Y-43971218D01*
X97039580Y-43958921D01*
X97020367Y-43944671D01*
X97002643Y-43928607D01*
X96986579Y-43910883D01*
X96972329Y-43891670D01*
X96960032Y-43871153D01*
X96949804Y-43849529D01*
X96941746Y-43827007D01*
X96935934Y-43803803D01*
X96932424Y-43780142D01*
X96931250Y-43756250D01*
X96931250Y-43268750D01*
X96932424Y-43244858D01*
X96935934Y-43221197D01*
X96941746Y-43197993D01*
X96949804Y-43175471D01*
X96960032Y-43153847D01*
X96972329Y-43133330D01*
X96986579Y-43114117D01*
X97002643Y-43096393D01*
X97020367Y-43080329D01*
X97039580Y-43066079D01*
X97060097Y-43053782D01*
X97081721Y-43043554D01*
X97104243Y-43035496D01*
X97127447Y-43029684D01*
X97151108Y-43026174D01*
X97175000Y-43025000D01*
X98087500Y-43025000D01*
X98111392Y-43026174D01*
X98111392Y-43026174D01*
G37*
D16*
X97631250Y-43512500D03*
D15*
G36*
X121130142Y-34294924D02*
G01*
X121153803Y-34298434D01*
X121177007Y-34304246D01*
X121199529Y-34312304D01*
X121221153Y-34322532D01*
X121241670Y-34334829D01*
X121260883Y-34349079D01*
X121278607Y-34365143D01*
X121294671Y-34382867D01*
X121308921Y-34402080D01*
X121321218Y-34422597D01*
X121331446Y-34444221D01*
X121339504Y-34466743D01*
X121345316Y-34489947D01*
X121348826Y-34513608D01*
X121350000Y-34537500D01*
X121350000Y-35025000D01*
X121348826Y-35048892D01*
X121345316Y-35072553D01*
X121339504Y-35095757D01*
X121331446Y-35118279D01*
X121321218Y-35139903D01*
X121308921Y-35160420D01*
X121294671Y-35179633D01*
X121278607Y-35197357D01*
X121260883Y-35213421D01*
X121241670Y-35227671D01*
X121221153Y-35239968D01*
X121199529Y-35250196D01*
X121177007Y-35258254D01*
X121153803Y-35264066D01*
X121130142Y-35267576D01*
X121106250Y-35268750D01*
X120193750Y-35268750D01*
X120169858Y-35267576D01*
X120146197Y-35264066D01*
X120122993Y-35258254D01*
X120100471Y-35250196D01*
X120078847Y-35239968D01*
X120058330Y-35227671D01*
X120039117Y-35213421D01*
X120021393Y-35197357D01*
X120005329Y-35179633D01*
X119991079Y-35160420D01*
X119978782Y-35139903D01*
X119968554Y-35118279D01*
X119960496Y-35095757D01*
X119954684Y-35072553D01*
X119951174Y-35048892D01*
X119950000Y-35025000D01*
X119950000Y-34537500D01*
X119951174Y-34513608D01*
X119954684Y-34489947D01*
X119960496Y-34466743D01*
X119968554Y-34444221D01*
X119978782Y-34422597D01*
X119991079Y-34402080D01*
X120005329Y-34382867D01*
X120021393Y-34365143D01*
X120039117Y-34349079D01*
X120058330Y-34334829D01*
X120078847Y-34322532D01*
X120100471Y-34312304D01*
X120122993Y-34304246D01*
X120146197Y-34298434D01*
X120169858Y-34294924D01*
X120193750Y-34293750D01*
X121106250Y-34293750D01*
X121130142Y-34294924D01*
X121130142Y-34294924D01*
G37*
D16*
X120650000Y-34781250D03*
D15*
G36*
X121130142Y-36169924D02*
G01*
X121153803Y-36173434D01*
X121177007Y-36179246D01*
X121199529Y-36187304D01*
X121221153Y-36197532D01*
X121241670Y-36209829D01*
X121260883Y-36224079D01*
X121278607Y-36240143D01*
X121294671Y-36257867D01*
X121308921Y-36277080D01*
X121321218Y-36297597D01*
X121331446Y-36319221D01*
X121339504Y-36341743D01*
X121345316Y-36364947D01*
X121348826Y-36388608D01*
X121350000Y-36412500D01*
X121350000Y-36900000D01*
X121348826Y-36923892D01*
X121345316Y-36947553D01*
X121339504Y-36970757D01*
X121331446Y-36993279D01*
X121321218Y-37014903D01*
X121308921Y-37035420D01*
X121294671Y-37054633D01*
X121278607Y-37072357D01*
X121260883Y-37088421D01*
X121241670Y-37102671D01*
X121221153Y-37114968D01*
X121199529Y-37125196D01*
X121177007Y-37133254D01*
X121153803Y-37139066D01*
X121130142Y-37142576D01*
X121106250Y-37143750D01*
X120193750Y-37143750D01*
X120169858Y-37142576D01*
X120146197Y-37139066D01*
X120122993Y-37133254D01*
X120100471Y-37125196D01*
X120078847Y-37114968D01*
X120058330Y-37102671D01*
X120039117Y-37088421D01*
X120021393Y-37072357D01*
X120005329Y-37054633D01*
X119991079Y-37035420D01*
X119978782Y-37014903D01*
X119968554Y-36993279D01*
X119960496Y-36970757D01*
X119954684Y-36947553D01*
X119951174Y-36923892D01*
X119950000Y-36900000D01*
X119950000Y-36412500D01*
X119951174Y-36388608D01*
X119954684Y-36364947D01*
X119960496Y-36341743D01*
X119968554Y-36319221D01*
X119978782Y-36297597D01*
X119991079Y-36277080D01*
X120005329Y-36257867D01*
X120021393Y-36240143D01*
X120039117Y-36224079D01*
X120058330Y-36209829D01*
X120078847Y-36197532D01*
X120100471Y-36187304D01*
X120122993Y-36179246D01*
X120146197Y-36173434D01*
X120169858Y-36169924D01*
X120193750Y-36168750D01*
X121106250Y-36168750D01*
X121130142Y-36169924D01*
X121130142Y-36169924D01*
G37*
D16*
X120650000Y-36656250D03*
D15*
G36*
X102873892Y-36963674D02*
G01*
X102897553Y-36967184D01*
X102920757Y-36972996D01*
X102943279Y-36981054D01*
X102964903Y-36991282D01*
X102985420Y-37003579D01*
X103004633Y-37017829D01*
X103022357Y-37033893D01*
X103038421Y-37051617D01*
X103052671Y-37070830D01*
X103064968Y-37091347D01*
X103075196Y-37112971D01*
X103083254Y-37135493D01*
X103089066Y-37158697D01*
X103092576Y-37182358D01*
X103093750Y-37206250D01*
X103093750Y-37693750D01*
X103092576Y-37717642D01*
X103089066Y-37741303D01*
X103083254Y-37764507D01*
X103075196Y-37787029D01*
X103064968Y-37808653D01*
X103052671Y-37829170D01*
X103038421Y-37848383D01*
X103022357Y-37866107D01*
X103004633Y-37882171D01*
X102985420Y-37896421D01*
X102964903Y-37908718D01*
X102943279Y-37918946D01*
X102920757Y-37927004D01*
X102897553Y-37932816D01*
X102873892Y-37936326D01*
X102850000Y-37937500D01*
X101937500Y-37937500D01*
X101913608Y-37936326D01*
X101889947Y-37932816D01*
X101866743Y-37927004D01*
X101844221Y-37918946D01*
X101822597Y-37908718D01*
X101802080Y-37896421D01*
X101782867Y-37882171D01*
X101765143Y-37866107D01*
X101749079Y-37848383D01*
X101734829Y-37829170D01*
X101722532Y-37808653D01*
X101712304Y-37787029D01*
X101704246Y-37764507D01*
X101698434Y-37741303D01*
X101694924Y-37717642D01*
X101693750Y-37693750D01*
X101693750Y-37206250D01*
X101694924Y-37182358D01*
X101698434Y-37158697D01*
X101704246Y-37135493D01*
X101712304Y-37112971D01*
X101722532Y-37091347D01*
X101734829Y-37070830D01*
X101749079Y-37051617D01*
X101765143Y-37033893D01*
X101782867Y-37017829D01*
X101802080Y-37003579D01*
X101822597Y-36991282D01*
X101844221Y-36981054D01*
X101866743Y-36972996D01*
X101889947Y-36967184D01*
X101913608Y-36963674D01*
X101937500Y-36962500D01*
X102850000Y-36962500D01*
X102873892Y-36963674D01*
X102873892Y-36963674D01*
G37*
D16*
X102393750Y-37450000D03*
D15*
G36*
X102873892Y-35088674D02*
G01*
X102897553Y-35092184D01*
X102920757Y-35097996D01*
X102943279Y-35106054D01*
X102964903Y-35116282D01*
X102985420Y-35128579D01*
X103004633Y-35142829D01*
X103022357Y-35158893D01*
X103038421Y-35176617D01*
X103052671Y-35195830D01*
X103064968Y-35216347D01*
X103075196Y-35237971D01*
X103083254Y-35260493D01*
X103089066Y-35283697D01*
X103092576Y-35307358D01*
X103093750Y-35331250D01*
X103093750Y-35818750D01*
X103092576Y-35842642D01*
X103089066Y-35866303D01*
X103083254Y-35889507D01*
X103075196Y-35912029D01*
X103064968Y-35933653D01*
X103052671Y-35954170D01*
X103038421Y-35973383D01*
X103022357Y-35991107D01*
X103004633Y-36007171D01*
X102985420Y-36021421D01*
X102964903Y-36033718D01*
X102943279Y-36043946D01*
X102920757Y-36052004D01*
X102897553Y-36057816D01*
X102873892Y-36061326D01*
X102850000Y-36062500D01*
X101937500Y-36062500D01*
X101913608Y-36061326D01*
X101889947Y-36057816D01*
X101866743Y-36052004D01*
X101844221Y-36043946D01*
X101822597Y-36033718D01*
X101802080Y-36021421D01*
X101782867Y-36007171D01*
X101765143Y-35991107D01*
X101749079Y-35973383D01*
X101734829Y-35954170D01*
X101722532Y-35933653D01*
X101712304Y-35912029D01*
X101704246Y-35889507D01*
X101698434Y-35866303D01*
X101694924Y-35842642D01*
X101693750Y-35818750D01*
X101693750Y-35331250D01*
X101694924Y-35307358D01*
X101698434Y-35283697D01*
X101704246Y-35260493D01*
X101712304Y-35237971D01*
X101722532Y-35216347D01*
X101734829Y-35195830D01*
X101749079Y-35176617D01*
X101765143Y-35158893D01*
X101782867Y-35142829D01*
X101802080Y-35128579D01*
X101822597Y-35116282D01*
X101844221Y-35106054D01*
X101866743Y-35097996D01*
X101889947Y-35092184D01*
X101913608Y-35088674D01*
X101937500Y-35087500D01*
X102850000Y-35087500D01*
X102873892Y-35088674D01*
X102873892Y-35088674D01*
G37*
D16*
X102393750Y-35575000D03*
D15*
G36*
X113773892Y-49307424D02*
G01*
X113797553Y-49310934D01*
X113820757Y-49316746D01*
X113843279Y-49324804D01*
X113864903Y-49335032D01*
X113885420Y-49347329D01*
X113904633Y-49361579D01*
X113922357Y-49377643D01*
X113938421Y-49395367D01*
X113952671Y-49414580D01*
X113964968Y-49435097D01*
X113975196Y-49456721D01*
X113983254Y-49479243D01*
X113989066Y-49502447D01*
X113992576Y-49526108D01*
X113993750Y-49550000D01*
X113993750Y-50462500D01*
X113992576Y-50486392D01*
X113989066Y-50510053D01*
X113983254Y-50533257D01*
X113975196Y-50555779D01*
X113964968Y-50577403D01*
X113952671Y-50597920D01*
X113938421Y-50617133D01*
X113922357Y-50634857D01*
X113904633Y-50650921D01*
X113885420Y-50665171D01*
X113864903Y-50677468D01*
X113843279Y-50687696D01*
X113820757Y-50695754D01*
X113797553Y-50701566D01*
X113773892Y-50705076D01*
X113750000Y-50706250D01*
X113262500Y-50706250D01*
X113238608Y-50705076D01*
X113214947Y-50701566D01*
X113191743Y-50695754D01*
X113169221Y-50687696D01*
X113147597Y-50677468D01*
X113127080Y-50665171D01*
X113107867Y-50650921D01*
X113090143Y-50634857D01*
X113074079Y-50617133D01*
X113059829Y-50597920D01*
X113047532Y-50577403D01*
X113037304Y-50555779D01*
X113029246Y-50533257D01*
X113023434Y-50510053D01*
X113019924Y-50486392D01*
X113018750Y-50462500D01*
X113018750Y-49550000D01*
X113019924Y-49526108D01*
X113023434Y-49502447D01*
X113029246Y-49479243D01*
X113037304Y-49456721D01*
X113047532Y-49435097D01*
X113059829Y-49414580D01*
X113074079Y-49395367D01*
X113090143Y-49377643D01*
X113107867Y-49361579D01*
X113127080Y-49347329D01*
X113147597Y-49335032D01*
X113169221Y-49324804D01*
X113191743Y-49316746D01*
X113214947Y-49310934D01*
X113238608Y-49307424D01*
X113262500Y-49306250D01*
X113750000Y-49306250D01*
X113773892Y-49307424D01*
X113773892Y-49307424D01*
G37*
D16*
X113506250Y-50006250D03*
D15*
G36*
X115648892Y-49307424D02*
G01*
X115672553Y-49310934D01*
X115695757Y-49316746D01*
X115718279Y-49324804D01*
X115739903Y-49335032D01*
X115760420Y-49347329D01*
X115779633Y-49361579D01*
X115797357Y-49377643D01*
X115813421Y-49395367D01*
X115827671Y-49414580D01*
X115839968Y-49435097D01*
X115850196Y-49456721D01*
X115858254Y-49479243D01*
X115864066Y-49502447D01*
X115867576Y-49526108D01*
X115868750Y-49550000D01*
X115868750Y-50462500D01*
X115867576Y-50486392D01*
X115864066Y-50510053D01*
X115858254Y-50533257D01*
X115850196Y-50555779D01*
X115839968Y-50577403D01*
X115827671Y-50597920D01*
X115813421Y-50617133D01*
X115797357Y-50634857D01*
X115779633Y-50650921D01*
X115760420Y-50665171D01*
X115739903Y-50677468D01*
X115718279Y-50687696D01*
X115695757Y-50695754D01*
X115672553Y-50701566D01*
X115648892Y-50705076D01*
X115625000Y-50706250D01*
X115137500Y-50706250D01*
X115113608Y-50705076D01*
X115089947Y-50701566D01*
X115066743Y-50695754D01*
X115044221Y-50687696D01*
X115022597Y-50677468D01*
X115002080Y-50665171D01*
X114982867Y-50650921D01*
X114965143Y-50634857D01*
X114949079Y-50617133D01*
X114934829Y-50597920D01*
X114922532Y-50577403D01*
X114912304Y-50555779D01*
X114904246Y-50533257D01*
X114898434Y-50510053D01*
X114894924Y-50486392D01*
X114893750Y-50462500D01*
X114893750Y-49550000D01*
X114894924Y-49526108D01*
X114898434Y-49502447D01*
X114904246Y-49479243D01*
X114912304Y-49456721D01*
X114922532Y-49435097D01*
X114934829Y-49414580D01*
X114949079Y-49395367D01*
X114965143Y-49377643D01*
X114982867Y-49361579D01*
X115002080Y-49347329D01*
X115022597Y-49335032D01*
X115044221Y-49324804D01*
X115066743Y-49316746D01*
X115089947Y-49310934D01*
X115113608Y-49307424D01*
X115137500Y-49306250D01*
X115625000Y-49306250D01*
X115648892Y-49307424D01*
X115648892Y-49307424D01*
G37*
D16*
X115381250Y-50006250D03*
D15*
G36*
X100930142Y-44544924D02*
G01*
X100953803Y-44548434D01*
X100977007Y-44554246D01*
X100999529Y-44562304D01*
X101021153Y-44572532D01*
X101041670Y-44584829D01*
X101060883Y-44599079D01*
X101078607Y-44615143D01*
X101094671Y-44632867D01*
X101108921Y-44652080D01*
X101121218Y-44672597D01*
X101131446Y-44694221D01*
X101139504Y-44716743D01*
X101145316Y-44739947D01*
X101148826Y-44763608D01*
X101150000Y-44787500D01*
X101150000Y-45700000D01*
X101148826Y-45723892D01*
X101145316Y-45747553D01*
X101139504Y-45770757D01*
X101131446Y-45793279D01*
X101121218Y-45814903D01*
X101108921Y-45835420D01*
X101094671Y-45854633D01*
X101078607Y-45872357D01*
X101060883Y-45888421D01*
X101041670Y-45902671D01*
X101021153Y-45914968D01*
X100999529Y-45925196D01*
X100977007Y-45933254D01*
X100953803Y-45939066D01*
X100930142Y-45942576D01*
X100906250Y-45943750D01*
X100418750Y-45943750D01*
X100394858Y-45942576D01*
X100371197Y-45939066D01*
X100347993Y-45933254D01*
X100325471Y-45925196D01*
X100303847Y-45914968D01*
X100283330Y-45902671D01*
X100264117Y-45888421D01*
X100246393Y-45872357D01*
X100230329Y-45854633D01*
X100216079Y-45835420D01*
X100203782Y-45814903D01*
X100193554Y-45793279D01*
X100185496Y-45770757D01*
X100179684Y-45747553D01*
X100176174Y-45723892D01*
X100175000Y-45700000D01*
X100175000Y-44787500D01*
X100176174Y-44763608D01*
X100179684Y-44739947D01*
X100185496Y-44716743D01*
X100193554Y-44694221D01*
X100203782Y-44672597D01*
X100216079Y-44652080D01*
X100230329Y-44632867D01*
X100246393Y-44615143D01*
X100264117Y-44599079D01*
X100283330Y-44584829D01*
X100303847Y-44572532D01*
X100325471Y-44562304D01*
X100347993Y-44554246D01*
X100371197Y-44548434D01*
X100394858Y-44544924D01*
X100418750Y-44543750D01*
X100906250Y-44543750D01*
X100930142Y-44544924D01*
X100930142Y-44544924D01*
G37*
D16*
X100662500Y-45243750D03*
D15*
G36*
X102805142Y-44544924D02*
G01*
X102828803Y-44548434D01*
X102852007Y-44554246D01*
X102874529Y-44562304D01*
X102896153Y-44572532D01*
X102916670Y-44584829D01*
X102935883Y-44599079D01*
X102953607Y-44615143D01*
X102969671Y-44632867D01*
X102983921Y-44652080D01*
X102996218Y-44672597D01*
X103006446Y-44694221D01*
X103014504Y-44716743D01*
X103020316Y-44739947D01*
X103023826Y-44763608D01*
X103025000Y-44787500D01*
X103025000Y-45700000D01*
X103023826Y-45723892D01*
X103020316Y-45747553D01*
X103014504Y-45770757D01*
X103006446Y-45793279D01*
X102996218Y-45814903D01*
X102983921Y-45835420D01*
X102969671Y-45854633D01*
X102953607Y-45872357D01*
X102935883Y-45888421D01*
X102916670Y-45902671D01*
X102896153Y-45914968D01*
X102874529Y-45925196D01*
X102852007Y-45933254D01*
X102828803Y-45939066D01*
X102805142Y-45942576D01*
X102781250Y-45943750D01*
X102293750Y-45943750D01*
X102269858Y-45942576D01*
X102246197Y-45939066D01*
X102222993Y-45933254D01*
X102200471Y-45925196D01*
X102178847Y-45914968D01*
X102158330Y-45902671D01*
X102139117Y-45888421D01*
X102121393Y-45872357D01*
X102105329Y-45854633D01*
X102091079Y-45835420D01*
X102078782Y-45814903D01*
X102068554Y-45793279D01*
X102060496Y-45770757D01*
X102054684Y-45747553D01*
X102051174Y-45723892D01*
X102050000Y-45700000D01*
X102050000Y-44787500D01*
X102051174Y-44763608D01*
X102054684Y-44739947D01*
X102060496Y-44716743D01*
X102068554Y-44694221D01*
X102078782Y-44672597D01*
X102091079Y-44652080D01*
X102105329Y-44632867D01*
X102121393Y-44615143D01*
X102139117Y-44599079D01*
X102158330Y-44584829D01*
X102178847Y-44572532D01*
X102200471Y-44562304D01*
X102222993Y-44554246D01*
X102246197Y-44548434D01*
X102269858Y-44544924D01*
X102293750Y-44543750D01*
X102781250Y-44543750D01*
X102805142Y-44544924D01*
X102805142Y-44544924D01*
G37*
D16*
X102537500Y-45243750D03*
D15*
G36*
X109223892Y-28232424D02*
G01*
X109247553Y-28235934D01*
X109270757Y-28241746D01*
X109293279Y-28249804D01*
X109314903Y-28260032D01*
X109335420Y-28272329D01*
X109354633Y-28286579D01*
X109372357Y-28302643D01*
X109388421Y-28320367D01*
X109402671Y-28339580D01*
X109414968Y-28360097D01*
X109425196Y-28381721D01*
X109433254Y-28404243D01*
X109439066Y-28427447D01*
X109442576Y-28451108D01*
X109443750Y-28475000D01*
X109443750Y-28962500D01*
X109442576Y-28986392D01*
X109439066Y-29010053D01*
X109433254Y-29033257D01*
X109425196Y-29055779D01*
X109414968Y-29077403D01*
X109402671Y-29097920D01*
X109388421Y-29117133D01*
X109372357Y-29134857D01*
X109354633Y-29150921D01*
X109335420Y-29165171D01*
X109314903Y-29177468D01*
X109293279Y-29187696D01*
X109270757Y-29195754D01*
X109247553Y-29201566D01*
X109223892Y-29205076D01*
X109200000Y-29206250D01*
X108287500Y-29206250D01*
X108263608Y-29205076D01*
X108239947Y-29201566D01*
X108216743Y-29195754D01*
X108194221Y-29187696D01*
X108172597Y-29177468D01*
X108152080Y-29165171D01*
X108132867Y-29150921D01*
X108115143Y-29134857D01*
X108099079Y-29117133D01*
X108084829Y-29097920D01*
X108072532Y-29077403D01*
X108062304Y-29055779D01*
X108054246Y-29033257D01*
X108048434Y-29010053D01*
X108044924Y-28986392D01*
X108043750Y-28962500D01*
X108043750Y-28475000D01*
X108044924Y-28451108D01*
X108048434Y-28427447D01*
X108054246Y-28404243D01*
X108062304Y-28381721D01*
X108072532Y-28360097D01*
X108084829Y-28339580D01*
X108099079Y-28320367D01*
X108115143Y-28302643D01*
X108132867Y-28286579D01*
X108152080Y-28272329D01*
X108172597Y-28260032D01*
X108194221Y-28249804D01*
X108216743Y-28241746D01*
X108239947Y-28235934D01*
X108263608Y-28232424D01*
X108287500Y-28231250D01*
X109200000Y-28231250D01*
X109223892Y-28232424D01*
X109223892Y-28232424D01*
G37*
D16*
X108743750Y-28718750D03*
D15*
G36*
X109223892Y-26357424D02*
G01*
X109247553Y-26360934D01*
X109270757Y-26366746D01*
X109293279Y-26374804D01*
X109314903Y-26385032D01*
X109335420Y-26397329D01*
X109354633Y-26411579D01*
X109372357Y-26427643D01*
X109388421Y-26445367D01*
X109402671Y-26464580D01*
X109414968Y-26485097D01*
X109425196Y-26506721D01*
X109433254Y-26529243D01*
X109439066Y-26552447D01*
X109442576Y-26576108D01*
X109443750Y-26600000D01*
X109443750Y-27087500D01*
X109442576Y-27111392D01*
X109439066Y-27135053D01*
X109433254Y-27158257D01*
X109425196Y-27180779D01*
X109414968Y-27202403D01*
X109402671Y-27222920D01*
X109388421Y-27242133D01*
X109372357Y-27259857D01*
X109354633Y-27275921D01*
X109335420Y-27290171D01*
X109314903Y-27302468D01*
X109293279Y-27312696D01*
X109270757Y-27320754D01*
X109247553Y-27326566D01*
X109223892Y-27330076D01*
X109200000Y-27331250D01*
X108287500Y-27331250D01*
X108263608Y-27330076D01*
X108239947Y-27326566D01*
X108216743Y-27320754D01*
X108194221Y-27312696D01*
X108172597Y-27302468D01*
X108152080Y-27290171D01*
X108132867Y-27275921D01*
X108115143Y-27259857D01*
X108099079Y-27242133D01*
X108084829Y-27222920D01*
X108072532Y-27202403D01*
X108062304Y-27180779D01*
X108054246Y-27158257D01*
X108048434Y-27135053D01*
X108044924Y-27111392D01*
X108043750Y-27087500D01*
X108043750Y-26600000D01*
X108044924Y-26576108D01*
X108048434Y-26552447D01*
X108054246Y-26529243D01*
X108062304Y-26506721D01*
X108072532Y-26485097D01*
X108084829Y-26464580D01*
X108099079Y-26445367D01*
X108115143Y-26427643D01*
X108132867Y-26411579D01*
X108152080Y-26397329D01*
X108172597Y-26385032D01*
X108194221Y-26374804D01*
X108216743Y-26366746D01*
X108239947Y-26360934D01*
X108263608Y-26357424D01*
X108287500Y-26356250D01*
X109200000Y-26356250D01*
X109223892Y-26357424D01*
X109223892Y-26357424D01*
G37*
D16*
X108743750Y-26843750D03*
D15*
G36*
X117161392Y-26357424D02*
G01*
X117185053Y-26360934D01*
X117208257Y-26366746D01*
X117230779Y-26374804D01*
X117252403Y-26385032D01*
X117272920Y-26397329D01*
X117292133Y-26411579D01*
X117309857Y-26427643D01*
X117325921Y-26445367D01*
X117340171Y-26464580D01*
X117352468Y-26485097D01*
X117362696Y-26506721D01*
X117370754Y-26529243D01*
X117376566Y-26552447D01*
X117380076Y-26576108D01*
X117381250Y-26600000D01*
X117381250Y-27087500D01*
X117380076Y-27111392D01*
X117376566Y-27135053D01*
X117370754Y-27158257D01*
X117362696Y-27180779D01*
X117352468Y-27202403D01*
X117340171Y-27222920D01*
X117325921Y-27242133D01*
X117309857Y-27259857D01*
X117292133Y-27275921D01*
X117272920Y-27290171D01*
X117252403Y-27302468D01*
X117230779Y-27312696D01*
X117208257Y-27320754D01*
X117185053Y-27326566D01*
X117161392Y-27330076D01*
X117137500Y-27331250D01*
X116225000Y-27331250D01*
X116201108Y-27330076D01*
X116177447Y-27326566D01*
X116154243Y-27320754D01*
X116131721Y-27312696D01*
X116110097Y-27302468D01*
X116089580Y-27290171D01*
X116070367Y-27275921D01*
X116052643Y-27259857D01*
X116036579Y-27242133D01*
X116022329Y-27222920D01*
X116010032Y-27202403D01*
X115999804Y-27180779D01*
X115991746Y-27158257D01*
X115985934Y-27135053D01*
X115982424Y-27111392D01*
X115981250Y-27087500D01*
X115981250Y-26600000D01*
X115982424Y-26576108D01*
X115985934Y-26552447D01*
X115991746Y-26529243D01*
X115999804Y-26506721D01*
X116010032Y-26485097D01*
X116022329Y-26464580D01*
X116036579Y-26445367D01*
X116052643Y-26427643D01*
X116070367Y-26411579D01*
X116089580Y-26397329D01*
X116110097Y-26385032D01*
X116131721Y-26374804D01*
X116154243Y-26366746D01*
X116177447Y-26360934D01*
X116201108Y-26357424D01*
X116225000Y-26356250D01*
X117137500Y-26356250D01*
X117161392Y-26357424D01*
X117161392Y-26357424D01*
G37*
D16*
X116681250Y-26843750D03*
D15*
G36*
X117161392Y-28232424D02*
G01*
X117185053Y-28235934D01*
X117208257Y-28241746D01*
X117230779Y-28249804D01*
X117252403Y-28260032D01*
X117272920Y-28272329D01*
X117292133Y-28286579D01*
X117309857Y-28302643D01*
X117325921Y-28320367D01*
X117340171Y-28339580D01*
X117352468Y-28360097D01*
X117362696Y-28381721D01*
X117370754Y-28404243D01*
X117376566Y-28427447D01*
X117380076Y-28451108D01*
X117381250Y-28475000D01*
X117381250Y-28962500D01*
X117380076Y-28986392D01*
X117376566Y-29010053D01*
X117370754Y-29033257D01*
X117362696Y-29055779D01*
X117352468Y-29077403D01*
X117340171Y-29097920D01*
X117325921Y-29117133D01*
X117309857Y-29134857D01*
X117292133Y-29150921D01*
X117272920Y-29165171D01*
X117252403Y-29177468D01*
X117230779Y-29187696D01*
X117208257Y-29195754D01*
X117185053Y-29201566D01*
X117161392Y-29205076D01*
X117137500Y-29206250D01*
X116225000Y-29206250D01*
X116201108Y-29205076D01*
X116177447Y-29201566D01*
X116154243Y-29195754D01*
X116131721Y-29187696D01*
X116110097Y-29177468D01*
X116089580Y-29165171D01*
X116070367Y-29150921D01*
X116052643Y-29134857D01*
X116036579Y-29117133D01*
X116022329Y-29097920D01*
X116010032Y-29077403D01*
X115999804Y-29055779D01*
X115991746Y-29033257D01*
X115985934Y-29010053D01*
X115982424Y-28986392D01*
X115981250Y-28962500D01*
X115981250Y-28475000D01*
X115982424Y-28451108D01*
X115985934Y-28427447D01*
X115991746Y-28404243D01*
X115999804Y-28381721D01*
X116010032Y-28360097D01*
X116022329Y-28339580D01*
X116036579Y-28320367D01*
X116052643Y-28302643D01*
X116070367Y-28286579D01*
X116089580Y-28272329D01*
X116110097Y-28260032D01*
X116131721Y-28249804D01*
X116154243Y-28241746D01*
X116177447Y-28235934D01*
X116201108Y-28232424D01*
X116225000Y-28231250D01*
X117137500Y-28231250D01*
X117161392Y-28232424D01*
X117161392Y-28232424D01*
G37*
D16*
X116681250Y-28718750D03*
M02*
