G04 #@! TF.GenerationSoftware,KiCad,Pcbnew,(5.1.4)-1*
G04 #@! TF.CreationDate,2023-09-10T14:26:21-07:00*
G04 #@! TF.ProjectId,KeyboardPCBProj,4b657962-6f61-4726-9450-434250726f6a,rev?*
G04 #@! TF.SameCoordinates,Original*
G04 #@! TF.FileFunction,Copper,L2,Bot*
G04 #@! TF.FilePolarity,Positive*
%FSLAX46Y46*%
G04 Gerber Fmt 4.6, Leading zero omitted, Abs format (unit mm)*
G04 Created by KiCad (PCBNEW (5.1.4)-1) date 2023-09-10 14:26:21*
%MOMM*%
%LPD*%
G04 APERTURE LIST*
%ADD10R,1.200000X1.400000*%
%ADD11R,0.500000X2.250000*%
%ADD12O,1.700000X2.700000*%
%ADD13R,0.550000X1.500000*%
%ADD14R,1.500000X0.550000*%
%ADD15R,1.800000X1.100000*%
%ADD16C,0.100000*%
%ADD17C,0.975000*%
%ADD18C,2.250000*%
%ADD19C,2.250000*%
%ADD20C,1.250000*%
%ADD21R,1.200000X0.900000*%
%ADD22C,0.800000*%
%ADD23C,0.381000*%
%ADD24C,0.254000*%
G04 APERTURE END LIST*
D10*
X113562500Y-28881250D03*
X113562500Y-26681250D03*
X111862500Y-26681250D03*
X111862500Y-28881250D03*
D11*
X90500000Y-26725000D03*
X89700000Y-26725000D03*
X88900000Y-26725000D03*
X88100000Y-26725000D03*
X87300000Y-26725000D03*
D12*
X85250000Y-26725000D03*
X92550000Y-26725000D03*
X92550000Y-22225000D03*
X85250000Y-22225000D03*
D13*
X107125000Y-45387500D03*
X107925000Y-45387500D03*
X108725000Y-45387500D03*
X109525000Y-45387500D03*
X110325000Y-45387500D03*
X111125000Y-45387500D03*
X111925000Y-45387500D03*
X112725000Y-45387500D03*
X113525000Y-45387500D03*
X114325000Y-45387500D03*
X115125000Y-45387500D03*
D14*
X116825000Y-43687500D03*
X116825000Y-42887500D03*
X116825000Y-42087500D03*
X116825000Y-41287500D03*
X116825000Y-40487500D03*
X116825000Y-39687500D03*
X116825000Y-38887500D03*
X116825000Y-38087500D03*
X116825000Y-37287500D03*
X116825000Y-36487500D03*
X116825000Y-35687500D03*
D13*
X115125000Y-33987500D03*
X114325000Y-33987500D03*
X113525000Y-33987500D03*
X112725000Y-33987500D03*
X111925000Y-33987500D03*
X111125000Y-33987500D03*
X110325000Y-33987500D03*
X109525000Y-33987500D03*
X108725000Y-33987500D03*
X107925000Y-33987500D03*
X107125000Y-33987500D03*
D14*
X105425000Y-35687500D03*
X105425000Y-36487500D03*
X105425000Y-37287500D03*
X105425000Y-38087500D03*
X105425000Y-38887500D03*
X105425000Y-39687500D03*
X105425000Y-40487500D03*
X105425000Y-41287500D03*
X105425000Y-42087500D03*
X105425000Y-42887500D03*
X105425000Y-43687500D03*
D15*
X90412500Y-55825000D03*
X84212500Y-52125000D03*
X90412500Y-52125000D03*
X84212500Y-55825000D03*
D16*
G36*
X120336392Y-43819924D02*
G01*
X120360053Y-43823434D01*
X120383257Y-43829246D01*
X120405779Y-43837304D01*
X120427403Y-43847532D01*
X120447920Y-43859829D01*
X120467133Y-43874079D01*
X120484857Y-43890143D01*
X120500921Y-43907867D01*
X120515171Y-43927080D01*
X120527468Y-43947597D01*
X120537696Y-43969221D01*
X120545754Y-43991743D01*
X120551566Y-44014947D01*
X120555076Y-44038608D01*
X120556250Y-44062500D01*
X120556250Y-44550000D01*
X120555076Y-44573892D01*
X120551566Y-44597553D01*
X120545754Y-44620757D01*
X120537696Y-44643279D01*
X120527468Y-44664903D01*
X120515171Y-44685420D01*
X120500921Y-44704633D01*
X120484857Y-44722357D01*
X120467133Y-44738421D01*
X120447920Y-44752671D01*
X120427403Y-44764968D01*
X120405779Y-44775196D01*
X120383257Y-44783254D01*
X120360053Y-44789066D01*
X120336392Y-44792576D01*
X120312500Y-44793750D01*
X119400000Y-44793750D01*
X119376108Y-44792576D01*
X119352447Y-44789066D01*
X119329243Y-44783254D01*
X119306721Y-44775196D01*
X119285097Y-44764968D01*
X119264580Y-44752671D01*
X119245367Y-44738421D01*
X119227643Y-44722357D01*
X119211579Y-44704633D01*
X119197329Y-44685420D01*
X119185032Y-44664903D01*
X119174804Y-44643279D01*
X119166746Y-44620757D01*
X119160934Y-44597553D01*
X119157424Y-44573892D01*
X119156250Y-44550000D01*
X119156250Y-44062500D01*
X119157424Y-44038608D01*
X119160934Y-44014947D01*
X119166746Y-43991743D01*
X119174804Y-43969221D01*
X119185032Y-43947597D01*
X119197329Y-43927080D01*
X119211579Y-43907867D01*
X119227643Y-43890143D01*
X119245367Y-43874079D01*
X119264580Y-43859829D01*
X119285097Y-43847532D01*
X119306721Y-43837304D01*
X119329243Y-43829246D01*
X119352447Y-43823434D01*
X119376108Y-43819924D01*
X119400000Y-43818750D01*
X120312500Y-43818750D01*
X120336392Y-43819924D01*
X120336392Y-43819924D01*
G37*
D17*
X119856250Y-44306250D03*
D16*
G36*
X120336392Y-45694924D02*
G01*
X120360053Y-45698434D01*
X120383257Y-45704246D01*
X120405779Y-45712304D01*
X120427403Y-45722532D01*
X120447920Y-45734829D01*
X120467133Y-45749079D01*
X120484857Y-45765143D01*
X120500921Y-45782867D01*
X120515171Y-45802080D01*
X120527468Y-45822597D01*
X120537696Y-45844221D01*
X120545754Y-45866743D01*
X120551566Y-45889947D01*
X120555076Y-45913608D01*
X120556250Y-45937500D01*
X120556250Y-46425000D01*
X120555076Y-46448892D01*
X120551566Y-46472553D01*
X120545754Y-46495757D01*
X120537696Y-46518279D01*
X120527468Y-46539903D01*
X120515171Y-46560420D01*
X120500921Y-46579633D01*
X120484857Y-46597357D01*
X120467133Y-46613421D01*
X120447920Y-46627671D01*
X120427403Y-46639968D01*
X120405779Y-46650196D01*
X120383257Y-46658254D01*
X120360053Y-46664066D01*
X120336392Y-46667576D01*
X120312500Y-46668750D01*
X119400000Y-46668750D01*
X119376108Y-46667576D01*
X119352447Y-46664066D01*
X119329243Y-46658254D01*
X119306721Y-46650196D01*
X119285097Y-46639968D01*
X119264580Y-46627671D01*
X119245367Y-46613421D01*
X119227643Y-46597357D01*
X119211579Y-46579633D01*
X119197329Y-46560420D01*
X119185032Y-46539903D01*
X119174804Y-46518279D01*
X119166746Y-46495757D01*
X119160934Y-46472553D01*
X119157424Y-46448892D01*
X119156250Y-46425000D01*
X119156250Y-45937500D01*
X119157424Y-45913608D01*
X119160934Y-45889947D01*
X119166746Y-45866743D01*
X119174804Y-45844221D01*
X119185032Y-45822597D01*
X119197329Y-45802080D01*
X119211579Y-45782867D01*
X119227643Y-45765143D01*
X119245367Y-45749079D01*
X119264580Y-45734829D01*
X119285097Y-45722532D01*
X119306721Y-45712304D01*
X119329243Y-45704246D01*
X119352447Y-45698434D01*
X119376108Y-45694924D01*
X119400000Y-45693750D01*
X120312500Y-45693750D01*
X120336392Y-45694924D01*
X120336392Y-45694924D01*
G37*
D17*
X119856250Y-46181250D03*
D16*
G36*
X87792642Y-32707424D02*
G01*
X87816303Y-32710934D01*
X87839507Y-32716746D01*
X87862029Y-32724804D01*
X87883653Y-32735032D01*
X87904170Y-32747329D01*
X87923383Y-32761579D01*
X87941107Y-32777643D01*
X87957171Y-32795367D01*
X87971421Y-32814580D01*
X87983718Y-32835097D01*
X87993946Y-32856721D01*
X88002004Y-32879243D01*
X88007816Y-32902447D01*
X88011326Y-32926108D01*
X88012500Y-32950000D01*
X88012500Y-33437500D01*
X88011326Y-33461392D01*
X88007816Y-33485053D01*
X88002004Y-33508257D01*
X87993946Y-33530779D01*
X87983718Y-33552403D01*
X87971421Y-33572920D01*
X87957171Y-33592133D01*
X87941107Y-33609857D01*
X87923383Y-33625921D01*
X87904170Y-33640171D01*
X87883653Y-33652468D01*
X87862029Y-33662696D01*
X87839507Y-33670754D01*
X87816303Y-33676566D01*
X87792642Y-33680076D01*
X87768750Y-33681250D01*
X86856250Y-33681250D01*
X86832358Y-33680076D01*
X86808697Y-33676566D01*
X86785493Y-33670754D01*
X86762971Y-33662696D01*
X86741347Y-33652468D01*
X86720830Y-33640171D01*
X86701617Y-33625921D01*
X86683893Y-33609857D01*
X86667829Y-33592133D01*
X86653579Y-33572920D01*
X86641282Y-33552403D01*
X86631054Y-33530779D01*
X86622996Y-33508257D01*
X86617184Y-33485053D01*
X86613674Y-33461392D01*
X86612500Y-33437500D01*
X86612500Y-32950000D01*
X86613674Y-32926108D01*
X86617184Y-32902447D01*
X86622996Y-32879243D01*
X86631054Y-32856721D01*
X86641282Y-32835097D01*
X86653579Y-32814580D01*
X86667829Y-32795367D01*
X86683893Y-32777643D01*
X86701617Y-32761579D01*
X86720830Y-32747329D01*
X86741347Y-32735032D01*
X86762971Y-32724804D01*
X86785493Y-32716746D01*
X86808697Y-32710934D01*
X86832358Y-32707424D01*
X86856250Y-32706250D01*
X87768750Y-32706250D01*
X87792642Y-32707424D01*
X87792642Y-32707424D01*
G37*
D17*
X87312500Y-33193750D03*
D16*
G36*
X87792642Y-34582424D02*
G01*
X87816303Y-34585934D01*
X87839507Y-34591746D01*
X87862029Y-34599804D01*
X87883653Y-34610032D01*
X87904170Y-34622329D01*
X87923383Y-34636579D01*
X87941107Y-34652643D01*
X87957171Y-34670367D01*
X87971421Y-34689580D01*
X87983718Y-34710097D01*
X87993946Y-34731721D01*
X88002004Y-34754243D01*
X88007816Y-34777447D01*
X88011326Y-34801108D01*
X88012500Y-34825000D01*
X88012500Y-35312500D01*
X88011326Y-35336392D01*
X88007816Y-35360053D01*
X88002004Y-35383257D01*
X87993946Y-35405779D01*
X87983718Y-35427403D01*
X87971421Y-35447920D01*
X87957171Y-35467133D01*
X87941107Y-35484857D01*
X87923383Y-35500921D01*
X87904170Y-35515171D01*
X87883653Y-35527468D01*
X87862029Y-35537696D01*
X87839507Y-35545754D01*
X87816303Y-35551566D01*
X87792642Y-35555076D01*
X87768750Y-35556250D01*
X86856250Y-35556250D01*
X86832358Y-35555076D01*
X86808697Y-35551566D01*
X86785493Y-35545754D01*
X86762971Y-35537696D01*
X86741347Y-35527468D01*
X86720830Y-35515171D01*
X86701617Y-35500921D01*
X86683893Y-35484857D01*
X86667829Y-35467133D01*
X86653579Y-35447920D01*
X86641282Y-35427403D01*
X86631054Y-35405779D01*
X86622996Y-35383257D01*
X86617184Y-35360053D01*
X86613674Y-35336392D01*
X86612500Y-35312500D01*
X86612500Y-34825000D01*
X86613674Y-34801108D01*
X86617184Y-34777447D01*
X86622996Y-34754243D01*
X86631054Y-34731721D01*
X86641282Y-34710097D01*
X86653579Y-34689580D01*
X86667829Y-34670367D01*
X86683893Y-34652643D01*
X86701617Y-34636579D01*
X86720830Y-34622329D01*
X86741347Y-34610032D01*
X86762971Y-34599804D01*
X86785493Y-34591746D01*
X86808697Y-34585934D01*
X86832358Y-34582424D01*
X86856250Y-34581250D01*
X87768750Y-34581250D01*
X87792642Y-34582424D01*
X87792642Y-34582424D01*
G37*
D17*
X87312500Y-35068750D03*
D16*
G36*
X90173892Y-32707424D02*
G01*
X90197553Y-32710934D01*
X90220757Y-32716746D01*
X90243279Y-32724804D01*
X90264903Y-32735032D01*
X90285420Y-32747329D01*
X90304633Y-32761579D01*
X90322357Y-32777643D01*
X90338421Y-32795367D01*
X90352671Y-32814580D01*
X90364968Y-32835097D01*
X90375196Y-32856721D01*
X90383254Y-32879243D01*
X90389066Y-32902447D01*
X90392576Y-32926108D01*
X90393750Y-32950000D01*
X90393750Y-33437500D01*
X90392576Y-33461392D01*
X90389066Y-33485053D01*
X90383254Y-33508257D01*
X90375196Y-33530779D01*
X90364968Y-33552403D01*
X90352671Y-33572920D01*
X90338421Y-33592133D01*
X90322357Y-33609857D01*
X90304633Y-33625921D01*
X90285420Y-33640171D01*
X90264903Y-33652468D01*
X90243279Y-33662696D01*
X90220757Y-33670754D01*
X90197553Y-33676566D01*
X90173892Y-33680076D01*
X90150000Y-33681250D01*
X89237500Y-33681250D01*
X89213608Y-33680076D01*
X89189947Y-33676566D01*
X89166743Y-33670754D01*
X89144221Y-33662696D01*
X89122597Y-33652468D01*
X89102080Y-33640171D01*
X89082867Y-33625921D01*
X89065143Y-33609857D01*
X89049079Y-33592133D01*
X89034829Y-33572920D01*
X89022532Y-33552403D01*
X89012304Y-33530779D01*
X89004246Y-33508257D01*
X88998434Y-33485053D01*
X88994924Y-33461392D01*
X88993750Y-33437500D01*
X88993750Y-32950000D01*
X88994924Y-32926108D01*
X88998434Y-32902447D01*
X89004246Y-32879243D01*
X89012304Y-32856721D01*
X89022532Y-32835097D01*
X89034829Y-32814580D01*
X89049079Y-32795367D01*
X89065143Y-32777643D01*
X89082867Y-32761579D01*
X89102080Y-32747329D01*
X89122597Y-32735032D01*
X89144221Y-32724804D01*
X89166743Y-32716746D01*
X89189947Y-32710934D01*
X89213608Y-32707424D01*
X89237500Y-32706250D01*
X90150000Y-32706250D01*
X90173892Y-32707424D01*
X90173892Y-32707424D01*
G37*
D17*
X89693750Y-33193750D03*
D16*
G36*
X90173892Y-34582424D02*
G01*
X90197553Y-34585934D01*
X90220757Y-34591746D01*
X90243279Y-34599804D01*
X90264903Y-34610032D01*
X90285420Y-34622329D01*
X90304633Y-34636579D01*
X90322357Y-34652643D01*
X90338421Y-34670367D01*
X90352671Y-34689580D01*
X90364968Y-34710097D01*
X90375196Y-34731721D01*
X90383254Y-34754243D01*
X90389066Y-34777447D01*
X90392576Y-34801108D01*
X90393750Y-34825000D01*
X90393750Y-35312500D01*
X90392576Y-35336392D01*
X90389066Y-35360053D01*
X90383254Y-35383257D01*
X90375196Y-35405779D01*
X90364968Y-35427403D01*
X90352671Y-35447920D01*
X90338421Y-35467133D01*
X90322357Y-35484857D01*
X90304633Y-35500921D01*
X90285420Y-35515171D01*
X90264903Y-35527468D01*
X90243279Y-35537696D01*
X90220757Y-35545754D01*
X90197553Y-35551566D01*
X90173892Y-35555076D01*
X90150000Y-35556250D01*
X89237500Y-35556250D01*
X89213608Y-35555076D01*
X89189947Y-35551566D01*
X89166743Y-35545754D01*
X89144221Y-35537696D01*
X89122597Y-35527468D01*
X89102080Y-35515171D01*
X89082867Y-35500921D01*
X89065143Y-35484857D01*
X89049079Y-35467133D01*
X89034829Y-35447920D01*
X89022532Y-35427403D01*
X89012304Y-35405779D01*
X89004246Y-35383257D01*
X88998434Y-35360053D01*
X88994924Y-35336392D01*
X88993750Y-35312500D01*
X88993750Y-34825000D01*
X88994924Y-34801108D01*
X88998434Y-34777447D01*
X89004246Y-34754243D01*
X89012304Y-34731721D01*
X89022532Y-34710097D01*
X89034829Y-34689580D01*
X89049079Y-34670367D01*
X89065143Y-34652643D01*
X89082867Y-34636579D01*
X89102080Y-34622329D01*
X89122597Y-34610032D01*
X89144221Y-34599804D01*
X89166743Y-34591746D01*
X89189947Y-34585934D01*
X89213608Y-34582424D01*
X89237500Y-34581250D01*
X90150000Y-34581250D01*
X90173892Y-34582424D01*
X90173892Y-34582424D01*
G37*
D17*
X89693750Y-35068750D03*
D16*
G36*
X98548892Y-27876174D02*
G01*
X98572553Y-27879684D01*
X98595757Y-27885496D01*
X98618279Y-27893554D01*
X98639903Y-27903782D01*
X98660420Y-27916079D01*
X98679633Y-27930329D01*
X98697357Y-27946393D01*
X98713421Y-27964117D01*
X98727671Y-27983330D01*
X98739968Y-28003847D01*
X98750196Y-28025471D01*
X98758254Y-28047993D01*
X98764066Y-28071197D01*
X98767576Y-28094858D01*
X98768750Y-28118750D01*
X98768750Y-29031250D01*
X98767576Y-29055142D01*
X98764066Y-29078803D01*
X98758254Y-29102007D01*
X98750196Y-29124529D01*
X98739968Y-29146153D01*
X98727671Y-29166670D01*
X98713421Y-29185883D01*
X98697357Y-29203607D01*
X98679633Y-29219671D01*
X98660420Y-29233921D01*
X98639903Y-29246218D01*
X98618279Y-29256446D01*
X98595757Y-29264504D01*
X98572553Y-29270316D01*
X98548892Y-29273826D01*
X98525000Y-29275000D01*
X98037500Y-29275000D01*
X98013608Y-29273826D01*
X97989947Y-29270316D01*
X97966743Y-29264504D01*
X97944221Y-29256446D01*
X97922597Y-29246218D01*
X97902080Y-29233921D01*
X97882867Y-29219671D01*
X97865143Y-29203607D01*
X97849079Y-29185883D01*
X97834829Y-29166670D01*
X97822532Y-29146153D01*
X97812304Y-29124529D01*
X97804246Y-29102007D01*
X97798434Y-29078803D01*
X97794924Y-29055142D01*
X97793750Y-29031250D01*
X97793750Y-28118750D01*
X97794924Y-28094858D01*
X97798434Y-28071197D01*
X97804246Y-28047993D01*
X97812304Y-28025471D01*
X97822532Y-28003847D01*
X97834829Y-27983330D01*
X97849079Y-27964117D01*
X97865143Y-27946393D01*
X97882867Y-27930329D01*
X97902080Y-27916079D01*
X97922597Y-27903782D01*
X97944221Y-27893554D01*
X97966743Y-27885496D01*
X97989947Y-27879684D01*
X98013608Y-27876174D01*
X98037500Y-27875000D01*
X98525000Y-27875000D01*
X98548892Y-27876174D01*
X98548892Y-27876174D01*
G37*
D17*
X98281250Y-28575000D03*
D16*
G36*
X100423892Y-27876174D02*
G01*
X100447553Y-27879684D01*
X100470757Y-27885496D01*
X100493279Y-27893554D01*
X100514903Y-27903782D01*
X100535420Y-27916079D01*
X100554633Y-27930329D01*
X100572357Y-27946393D01*
X100588421Y-27964117D01*
X100602671Y-27983330D01*
X100614968Y-28003847D01*
X100625196Y-28025471D01*
X100633254Y-28047993D01*
X100639066Y-28071197D01*
X100642576Y-28094858D01*
X100643750Y-28118750D01*
X100643750Y-29031250D01*
X100642576Y-29055142D01*
X100639066Y-29078803D01*
X100633254Y-29102007D01*
X100625196Y-29124529D01*
X100614968Y-29146153D01*
X100602671Y-29166670D01*
X100588421Y-29185883D01*
X100572357Y-29203607D01*
X100554633Y-29219671D01*
X100535420Y-29233921D01*
X100514903Y-29246218D01*
X100493279Y-29256446D01*
X100470757Y-29264504D01*
X100447553Y-29270316D01*
X100423892Y-29273826D01*
X100400000Y-29275000D01*
X99912500Y-29275000D01*
X99888608Y-29273826D01*
X99864947Y-29270316D01*
X99841743Y-29264504D01*
X99819221Y-29256446D01*
X99797597Y-29246218D01*
X99777080Y-29233921D01*
X99757867Y-29219671D01*
X99740143Y-29203607D01*
X99724079Y-29185883D01*
X99709829Y-29166670D01*
X99697532Y-29146153D01*
X99687304Y-29124529D01*
X99679246Y-29102007D01*
X99673434Y-29078803D01*
X99669924Y-29055142D01*
X99668750Y-29031250D01*
X99668750Y-28118750D01*
X99669924Y-28094858D01*
X99673434Y-28071197D01*
X99679246Y-28047993D01*
X99687304Y-28025471D01*
X99697532Y-28003847D01*
X99709829Y-27983330D01*
X99724079Y-27964117D01*
X99740143Y-27946393D01*
X99757867Y-27930329D01*
X99777080Y-27916079D01*
X99797597Y-27903782D01*
X99819221Y-27893554D01*
X99841743Y-27885496D01*
X99864947Y-27879684D01*
X99888608Y-27876174D01*
X99912500Y-27875000D01*
X100400000Y-27875000D01*
X100423892Y-27876174D01*
X100423892Y-27876174D01*
G37*
D17*
X100156250Y-28575000D03*
D18*
X153075000Y-45212500D03*
X152420001Y-45942500D03*
D19*
X151765000Y-46672500D02*
X153075002Y-45212500D01*
D18*
X158115000Y-44132500D03*
X158095000Y-44422500D03*
D19*
X158075000Y-44712500D02*
X158115000Y-44132500D01*
D18*
X134025000Y-45212500D03*
X133370001Y-45942500D03*
D19*
X132715000Y-46672500D02*
X134025002Y-45212500D01*
D18*
X139065000Y-44132500D03*
X139045000Y-44422500D03*
D19*
X139025000Y-44712500D02*
X139065000Y-44132500D01*
D18*
X153075000Y-26162500D03*
X152420001Y-26892500D03*
D19*
X151765000Y-27622500D02*
X153075002Y-26162500D01*
D18*
X158115000Y-25082500D03*
X158095000Y-25372500D03*
D19*
X158075000Y-25662500D02*
X158115000Y-25082500D01*
D18*
X134025000Y-26162500D03*
X133370001Y-26892500D03*
D19*
X132715000Y-27622500D02*
X134025002Y-26162500D01*
D18*
X139065000Y-25082500D03*
X139045000Y-25372500D03*
D19*
X139025000Y-25662500D02*
X139065000Y-25082500D01*
D16*
G36*
X85580754Y-36869954D02*
G01*
X85605023Y-36873554D01*
X85628821Y-36879515D01*
X85651921Y-36887780D01*
X85674099Y-36898270D01*
X85695143Y-36910883D01*
X85714848Y-36925497D01*
X85733027Y-36941973D01*
X85749503Y-36960152D01*
X85764117Y-36979857D01*
X85776730Y-37000901D01*
X85787220Y-37023079D01*
X85795485Y-37046179D01*
X85801446Y-37069977D01*
X85805046Y-37094246D01*
X85806250Y-37118750D01*
X85806250Y-37868750D01*
X85805046Y-37893254D01*
X85801446Y-37917523D01*
X85795485Y-37941321D01*
X85787220Y-37964421D01*
X85776730Y-37986599D01*
X85764117Y-38007643D01*
X85749503Y-38027348D01*
X85733027Y-38045527D01*
X85714848Y-38062003D01*
X85695143Y-38076617D01*
X85674099Y-38089230D01*
X85651921Y-38099720D01*
X85628821Y-38107985D01*
X85605023Y-38113946D01*
X85580754Y-38117546D01*
X85556250Y-38118750D01*
X84306250Y-38118750D01*
X84281746Y-38117546D01*
X84257477Y-38113946D01*
X84233679Y-38107985D01*
X84210579Y-38099720D01*
X84188401Y-38089230D01*
X84167357Y-38076617D01*
X84147652Y-38062003D01*
X84129473Y-38045527D01*
X84112997Y-38027348D01*
X84098383Y-38007643D01*
X84085770Y-37986599D01*
X84075280Y-37964421D01*
X84067015Y-37941321D01*
X84061054Y-37917523D01*
X84057454Y-37893254D01*
X84056250Y-37868750D01*
X84056250Y-37118750D01*
X84057454Y-37094246D01*
X84061054Y-37069977D01*
X84067015Y-37046179D01*
X84075280Y-37023079D01*
X84085770Y-37000901D01*
X84098383Y-36979857D01*
X84112997Y-36960152D01*
X84129473Y-36941973D01*
X84147652Y-36925497D01*
X84167357Y-36910883D01*
X84188401Y-36898270D01*
X84210579Y-36887780D01*
X84233679Y-36879515D01*
X84257477Y-36873554D01*
X84281746Y-36869954D01*
X84306250Y-36868750D01*
X85556250Y-36868750D01*
X85580754Y-36869954D01*
X85580754Y-36869954D01*
G37*
D20*
X84931250Y-37493750D03*
D16*
G36*
X85580754Y-39669954D02*
G01*
X85605023Y-39673554D01*
X85628821Y-39679515D01*
X85651921Y-39687780D01*
X85674099Y-39698270D01*
X85695143Y-39710883D01*
X85714848Y-39725497D01*
X85733027Y-39741973D01*
X85749503Y-39760152D01*
X85764117Y-39779857D01*
X85776730Y-39800901D01*
X85787220Y-39823079D01*
X85795485Y-39846179D01*
X85801446Y-39869977D01*
X85805046Y-39894246D01*
X85806250Y-39918750D01*
X85806250Y-40668750D01*
X85805046Y-40693254D01*
X85801446Y-40717523D01*
X85795485Y-40741321D01*
X85787220Y-40764421D01*
X85776730Y-40786599D01*
X85764117Y-40807643D01*
X85749503Y-40827348D01*
X85733027Y-40845527D01*
X85714848Y-40862003D01*
X85695143Y-40876617D01*
X85674099Y-40889230D01*
X85651921Y-40899720D01*
X85628821Y-40907985D01*
X85605023Y-40913946D01*
X85580754Y-40917546D01*
X85556250Y-40918750D01*
X84306250Y-40918750D01*
X84281746Y-40917546D01*
X84257477Y-40913946D01*
X84233679Y-40907985D01*
X84210579Y-40899720D01*
X84188401Y-40889230D01*
X84167357Y-40876617D01*
X84147652Y-40862003D01*
X84129473Y-40845527D01*
X84112997Y-40827348D01*
X84098383Y-40807643D01*
X84085770Y-40786599D01*
X84075280Y-40764421D01*
X84067015Y-40741321D01*
X84061054Y-40717523D01*
X84057454Y-40693254D01*
X84056250Y-40668750D01*
X84056250Y-39918750D01*
X84057454Y-39894246D01*
X84061054Y-39869977D01*
X84067015Y-39846179D01*
X84075280Y-39823079D01*
X84085770Y-39800901D01*
X84098383Y-39779857D01*
X84112997Y-39760152D01*
X84129473Y-39741973D01*
X84147652Y-39725497D01*
X84167357Y-39710883D01*
X84188401Y-39698270D01*
X84210579Y-39687780D01*
X84233679Y-39679515D01*
X84257477Y-39673554D01*
X84281746Y-39669954D01*
X84306250Y-39668750D01*
X85556250Y-39668750D01*
X85580754Y-39669954D01*
X85580754Y-39669954D01*
G37*
D20*
X84931250Y-40293750D03*
D21*
X163512500Y-47562500D03*
X163512500Y-50862500D03*
X144462500Y-47562500D03*
X144462500Y-50862500D03*
X163512500Y-28512500D03*
X163512500Y-31812500D03*
X144462500Y-28512500D03*
X144462500Y-31812500D03*
D16*
G36*
X98111392Y-44901174D02*
G01*
X98135053Y-44904684D01*
X98158257Y-44910496D01*
X98180779Y-44918554D01*
X98202403Y-44928782D01*
X98222920Y-44941079D01*
X98242133Y-44955329D01*
X98259857Y-44971393D01*
X98275921Y-44989117D01*
X98290171Y-45008330D01*
X98302468Y-45028847D01*
X98312696Y-45050471D01*
X98320754Y-45072993D01*
X98326566Y-45096197D01*
X98330076Y-45119858D01*
X98331250Y-45143750D01*
X98331250Y-45631250D01*
X98330076Y-45655142D01*
X98326566Y-45678803D01*
X98320754Y-45702007D01*
X98312696Y-45724529D01*
X98302468Y-45746153D01*
X98290171Y-45766670D01*
X98275921Y-45785883D01*
X98259857Y-45803607D01*
X98242133Y-45819671D01*
X98222920Y-45833921D01*
X98202403Y-45846218D01*
X98180779Y-45856446D01*
X98158257Y-45864504D01*
X98135053Y-45870316D01*
X98111392Y-45873826D01*
X98087500Y-45875000D01*
X97175000Y-45875000D01*
X97151108Y-45873826D01*
X97127447Y-45870316D01*
X97104243Y-45864504D01*
X97081721Y-45856446D01*
X97060097Y-45846218D01*
X97039580Y-45833921D01*
X97020367Y-45819671D01*
X97002643Y-45803607D01*
X96986579Y-45785883D01*
X96972329Y-45766670D01*
X96960032Y-45746153D01*
X96949804Y-45724529D01*
X96941746Y-45702007D01*
X96935934Y-45678803D01*
X96932424Y-45655142D01*
X96931250Y-45631250D01*
X96931250Y-45143750D01*
X96932424Y-45119858D01*
X96935934Y-45096197D01*
X96941746Y-45072993D01*
X96949804Y-45050471D01*
X96960032Y-45028847D01*
X96972329Y-45008330D01*
X96986579Y-44989117D01*
X97002643Y-44971393D01*
X97020367Y-44955329D01*
X97039580Y-44941079D01*
X97060097Y-44928782D01*
X97081721Y-44918554D01*
X97104243Y-44910496D01*
X97127447Y-44904684D01*
X97151108Y-44901174D01*
X97175000Y-44900000D01*
X98087500Y-44900000D01*
X98111392Y-44901174D01*
X98111392Y-44901174D01*
G37*
D17*
X97631250Y-45387500D03*
D16*
G36*
X98111392Y-43026174D02*
G01*
X98135053Y-43029684D01*
X98158257Y-43035496D01*
X98180779Y-43043554D01*
X98202403Y-43053782D01*
X98222920Y-43066079D01*
X98242133Y-43080329D01*
X98259857Y-43096393D01*
X98275921Y-43114117D01*
X98290171Y-43133330D01*
X98302468Y-43153847D01*
X98312696Y-43175471D01*
X98320754Y-43197993D01*
X98326566Y-43221197D01*
X98330076Y-43244858D01*
X98331250Y-43268750D01*
X98331250Y-43756250D01*
X98330076Y-43780142D01*
X98326566Y-43803803D01*
X98320754Y-43827007D01*
X98312696Y-43849529D01*
X98302468Y-43871153D01*
X98290171Y-43891670D01*
X98275921Y-43910883D01*
X98259857Y-43928607D01*
X98242133Y-43944671D01*
X98222920Y-43958921D01*
X98202403Y-43971218D01*
X98180779Y-43981446D01*
X98158257Y-43989504D01*
X98135053Y-43995316D01*
X98111392Y-43998826D01*
X98087500Y-44000000D01*
X97175000Y-44000000D01*
X97151108Y-43998826D01*
X97127447Y-43995316D01*
X97104243Y-43989504D01*
X97081721Y-43981446D01*
X97060097Y-43971218D01*
X97039580Y-43958921D01*
X97020367Y-43944671D01*
X97002643Y-43928607D01*
X96986579Y-43910883D01*
X96972329Y-43891670D01*
X96960032Y-43871153D01*
X96949804Y-43849529D01*
X96941746Y-43827007D01*
X96935934Y-43803803D01*
X96932424Y-43780142D01*
X96931250Y-43756250D01*
X96931250Y-43268750D01*
X96932424Y-43244858D01*
X96935934Y-43221197D01*
X96941746Y-43197993D01*
X96949804Y-43175471D01*
X96960032Y-43153847D01*
X96972329Y-43133330D01*
X96986579Y-43114117D01*
X97002643Y-43096393D01*
X97020367Y-43080329D01*
X97039580Y-43066079D01*
X97060097Y-43053782D01*
X97081721Y-43043554D01*
X97104243Y-43035496D01*
X97127447Y-43029684D01*
X97151108Y-43026174D01*
X97175000Y-43025000D01*
X98087500Y-43025000D01*
X98111392Y-43026174D01*
X98111392Y-43026174D01*
G37*
D17*
X97631250Y-43512500D03*
D16*
G36*
X121130142Y-34294924D02*
G01*
X121153803Y-34298434D01*
X121177007Y-34304246D01*
X121199529Y-34312304D01*
X121221153Y-34322532D01*
X121241670Y-34334829D01*
X121260883Y-34349079D01*
X121278607Y-34365143D01*
X121294671Y-34382867D01*
X121308921Y-34402080D01*
X121321218Y-34422597D01*
X121331446Y-34444221D01*
X121339504Y-34466743D01*
X121345316Y-34489947D01*
X121348826Y-34513608D01*
X121350000Y-34537500D01*
X121350000Y-35025000D01*
X121348826Y-35048892D01*
X121345316Y-35072553D01*
X121339504Y-35095757D01*
X121331446Y-35118279D01*
X121321218Y-35139903D01*
X121308921Y-35160420D01*
X121294671Y-35179633D01*
X121278607Y-35197357D01*
X121260883Y-35213421D01*
X121241670Y-35227671D01*
X121221153Y-35239968D01*
X121199529Y-35250196D01*
X121177007Y-35258254D01*
X121153803Y-35264066D01*
X121130142Y-35267576D01*
X121106250Y-35268750D01*
X120193750Y-35268750D01*
X120169858Y-35267576D01*
X120146197Y-35264066D01*
X120122993Y-35258254D01*
X120100471Y-35250196D01*
X120078847Y-35239968D01*
X120058330Y-35227671D01*
X120039117Y-35213421D01*
X120021393Y-35197357D01*
X120005329Y-35179633D01*
X119991079Y-35160420D01*
X119978782Y-35139903D01*
X119968554Y-35118279D01*
X119960496Y-35095757D01*
X119954684Y-35072553D01*
X119951174Y-35048892D01*
X119950000Y-35025000D01*
X119950000Y-34537500D01*
X119951174Y-34513608D01*
X119954684Y-34489947D01*
X119960496Y-34466743D01*
X119968554Y-34444221D01*
X119978782Y-34422597D01*
X119991079Y-34402080D01*
X120005329Y-34382867D01*
X120021393Y-34365143D01*
X120039117Y-34349079D01*
X120058330Y-34334829D01*
X120078847Y-34322532D01*
X120100471Y-34312304D01*
X120122993Y-34304246D01*
X120146197Y-34298434D01*
X120169858Y-34294924D01*
X120193750Y-34293750D01*
X121106250Y-34293750D01*
X121130142Y-34294924D01*
X121130142Y-34294924D01*
G37*
D17*
X120650000Y-34781250D03*
D16*
G36*
X121130142Y-36169924D02*
G01*
X121153803Y-36173434D01*
X121177007Y-36179246D01*
X121199529Y-36187304D01*
X121221153Y-36197532D01*
X121241670Y-36209829D01*
X121260883Y-36224079D01*
X121278607Y-36240143D01*
X121294671Y-36257867D01*
X121308921Y-36277080D01*
X121321218Y-36297597D01*
X121331446Y-36319221D01*
X121339504Y-36341743D01*
X121345316Y-36364947D01*
X121348826Y-36388608D01*
X121350000Y-36412500D01*
X121350000Y-36900000D01*
X121348826Y-36923892D01*
X121345316Y-36947553D01*
X121339504Y-36970757D01*
X121331446Y-36993279D01*
X121321218Y-37014903D01*
X121308921Y-37035420D01*
X121294671Y-37054633D01*
X121278607Y-37072357D01*
X121260883Y-37088421D01*
X121241670Y-37102671D01*
X121221153Y-37114968D01*
X121199529Y-37125196D01*
X121177007Y-37133254D01*
X121153803Y-37139066D01*
X121130142Y-37142576D01*
X121106250Y-37143750D01*
X120193750Y-37143750D01*
X120169858Y-37142576D01*
X120146197Y-37139066D01*
X120122993Y-37133254D01*
X120100471Y-37125196D01*
X120078847Y-37114968D01*
X120058330Y-37102671D01*
X120039117Y-37088421D01*
X120021393Y-37072357D01*
X120005329Y-37054633D01*
X119991079Y-37035420D01*
X119978782Y-37014903D01*
X119968554Y-36993279D01*
X119960496Y-36970757D01*
X119954684Y-36947553D01*
X119951174Y-36923892D01*
X119950000Y-36900000D01*
X119950000Y-36412500D01*
X119951174Y-36388608D01*
X119954684Y-36364947D01*
X119960496Y-36341743D01*
X119968554Y-36319221D01*
X119978782Y-36297597D01*
X119991079Y-36277080D01*
X120005329Y-36257867D01*
X120021393Y-36240143D01*
X120039117Y-36224079D01*
X120058330Y-36209829D01*
X120078847Y-36197532D01*
X120100471Y-36187304D01*
X120122993Y-36179246D01*
X120146197Y-36173434D01*
X120169858Y-36169924D01*
X120193750Y-36168750D01*
X121106250Y-36168750D01*
X121130142Y-36169924D01*
X121130142Y-36169924D01*
G37*
D17*
X120650000Y-36656250D03*
D16*
G36*
X102873892Y-36963674D02*
G01*
X102897553Y-36967184D01*
X102920757Y-36972996D01*
X102943279Y-36981054D01*
X102964903Y-36991282D01*
X102985420Y-37003579D01*
X103004633Y-37017829D01*
X103022357Y-37033893D01*
X103038421Y-37051617D01*
X103052671Y-37070830D01*
X103064968Y-37091347D01*
X103075196Y-37112971D01*
X103083254Y-37135493D01*
X103089066Y-37158697D01*
X103092576Y-37182358D01*
X103093750Y-37206250D01*
X103093750Y-37693750D01*
X103092576Y-37717642D01*
X103089066Y-37741303D01*
X103083254Y-37764507D01*
X103075196Y-37787029D01*
X103064968Y-37808653D01*
X103052671Y-37829170D01*
X103038421Y-37848383D01*
X103022357Y-37866107D01*
X103004633Y-37882171D01*
X102985420Y-37896421D01*
X102964903Y-37908718D01*
X102943279Y-37918946D01*
X102920757Y-37927004D01*
X102897553Y-37932816D01*
X102873892Y-37936326D01*
X102850000Y-37937500D01*
X101937500Y-37937500D01*
X101913608Y-37936326D01*
X101889947Y-37932816D01*
X101866743Y-37927004D01*
X101844221Y-37918946D01*
X101822597Y-37908718D01*
X101802080Y-37896421D01*
X101782867Y-37882171D01*
X101765143Y-37866107D01*
X101749079Y-37848383D01*
X101734829Y-37829170D01*
X101722532Y-37808653D01*
X101712304Y-37787029D01*
X101704246Y-37764507D01*
X101698434Y-37741303D01*
X101694924Y-37717642D01*
X101693750Y-37693750D01*
X101693750Y-37206250D01*
X101694924Y-37182358D01*
X101698434Y-37158697D01*
X101704246Y-37135493D01*
X101712304Y-37112971D01*
X101722532Y-37091347D01*
X101734829Y-37070830D01*
X101749079Y-37051617D01*
X101765143Y-37033893D01*
X101782867Y-37017829D01*
X101802080Y-37003579D01*
X101822597Y-36991282D01*
X101844221Y-36981054D01*
X101866743Y-36972996D01*
X101889947Y-36967184D01*
X101913608Y-36963674D01*
X101937500Y-36962500D01*
X102850000Y-36962500D01*
X102873892Y-36963674D01*
X102873892Y-36963674D01*
G37*
D17*
X102393750Y-37450000D03*
D16*
G36*
X102873892Y-35088674D02*
G01*
X102897553Y-35092184D01*
X102920757Y-35097996D01*
X102943279Y-35106054D01*
X102964903Y-35116282D01*
X102985420Y-35128579D01*
X103004633Y-35142829D01*
X103022357Y-35158893D01*
X103038421Y-35176617D01*
X103052671Y-35195830D01*
X103064968Y-35216347D01*
X103075196Y-35237971D01*
X103083254Y-35260493D01*
X103089066Y-35283697D01*
X103092576Y-35307358D01*
X103093750Y-35331250D01*
X103093750Y-35818750D01*
X103092576Y-35842642D01*
X103089066Y-35866303D01*
X103083254Y-35889507D01*
X103075196Y-35912029D01*
X103064968Y-35933653D01*
X103052671Y-35954170D01*
X103038421Y-35973383D01*
X103022357Y-35991107D01*
X103004633Y-36007171D01*
X102985420Y-36021421D01*
X102964903Y-36033718D01*
X102943279Y-36043946D01*
X102920757Y-36052004D01*
X102897553Y-36057816D01*
X102873892Y-36061326D01*
X102850000Y-36062500D01*
X101937500Y-36062500D01*
X101913608Y-36061326D01*
X101889947Y-36057816D01*
X101866743Y-36052004D01*
X101844221Y-36043946D01*
X101822597Y-36033718D01*
X101802080Y-36021421D01*
X101782867Y-36007171D01*
X101765143Y-35991107D01*
X101749079Y-35973383D01*
X101734829Y-35954170D01*
X101722532Y-35933653D01*
X101712304Y-35912029D01*
X101704246Y-35889507D01*
X101698434Y-35866303D01*
X101694924Y-35842642D01*
X101693750Y-35818750D01*
X101693750Y-35331250D01*
X101694924Y-35307358D01*
X101698434Y-35283697D01*
X101704246Y-35260493D01*
X101712304Y-35237971D01*
X101722532Y-35216347D01*
X101734829Y-35195830D01*
X101749079Y-35176617D01*
X101765143Y-35158893D01*
X101782867Y-35142829D01*
X101802080Y-35128579D01*
X101822597Y-35116282D01*
X101844221Y-35106054D01*
X101866743Y-35097996D01*
X101889947Y-35092184D01*
X101913608Y-35088674D01*
X101937500Y-35087500D01*
X102850000Y-35087500D01*
X102873892Y-35088674D01*
X102873892Y-35088674D01*
G37*
D17*
X102393750Y-35575000D03*
D16*
G36*
X113773892Y-49307424D02*
G01*
X113797553Y-49310934D01*
X113820757Y-49316746D01*
X113843279Y-49324804D01*
X113864903Y-49335032D01*
X113885420Y-49347329D01*
X113904633Y-49361579D01*
X113922357Y-49377643D01*
X113938421Y-49395367D01*
X113952671Y-49414580D01*
X113964968Y-49435097D01*
X113975196Y-49456721D01*
X113983254Y-49479243D01*
X113989066Y-49502447D01*
X113992576Y-49526108D01*
X113993750Y-49550000D01*
X113993750Y-50462500D01*
X113992576Y-50486392D01*
X113989066Y-50510053D01*
X113983254Y-50533257D01*
X113975196Y-50555779D01*
X113964968Y-50577403D01*
X113952671Y-50597920D01*
X113938421Y-50617133D01*
X113922357Y-50634857D01*
X113904633Y-50650921D01*
X113885420Y-50665171D01*
X113864903Y-50677468D01*
X113843279Y-50687696D01*
X113820757Y-50695754D01*
X113797553Y-50701566D01*
X113773892Y-50705076D01*
X113750000Y-50706250D01*
X113262500Y-50706250D01*
X113238608Y-50705076D01*
X113214947Y-50701566D01*
X113191743Y-50695754D01*
X113169221Y-50687696D01*
X113147597Y-50677468D01*
X113127080Y-50665171D01*
X113107867Y-50650921D01*
X113090143Y-50634857D01*
X113074079Y-50617133D01*
X113059829Y-50597920D01*
X113047532Y-50577403D01*
X113037304Y-50555779D01*
X113029246Y-50533257D01*
X113023434Y-50510053D01*
X113019924Y-50486392D01*
X113018750Y-50462500D01*
X113018750Y-49550000D01*
X113019924Y-49526108D01*
X113023434Y-49502447D01*
X113029246Y-49479243D01*
X113037304Y-49456721D01*
X113047532Y-49435097D01*
X113059829Y-49414580D01*
X113074079Y-49395367D01*
X113090143Y-49377643D01*
X113107867Y-49361579D01*
X113127080Y-49347329D01*
X113147597Y-49335032D01*
X113169221Y-49324804D01*
X113191743Y-49316746D01*
X113214947Y-49310934D01*
X113238608Y-49307424D01*
X113262500Y-49306250D01*
X113750000Y-49306250D01*
X113773892Y-49307424D01*
X113773892Y-49307424D01*
G37*
D17*
X113506250Y-50006250D03*
D16*
G36*
X115648892Y-49307424D02*
G01*
X115672553Y-49310934D01*
X115695757Y-49316746D01*
X115718279Y-49324804D01*
X115739903Y-49335032D01*
X115760420Y-49347329D01*
X115779633Y-49361579D01*
X115797357Y-49377643D01*
X115813421Y-49395367D01*
X115827671Y-49414580D01*
X115839968Y-49435097D01*
X115850196Y-49456721D01*
X115858254Y-49479243D01*
X115864066Y-49502447D01*
X115867576Y-49526108D01*
X115868750Y-49550000D01*
X115868750Y-50462500D01*
X115867576Y-50486392D01*
X115864066Y-50510053D01*
X115858254Y-50533257D01*
X115850196Y-50555779D01*
X115839968Y-50577403D01*
X115827671Y-50597920D01*
X115813421Y-50617133D01*
X115797357Y-50634857D01*
X115779633Y-50650921D01*
X115760420Y-50665171D01*
X115739903Y-50677468D01*
X115718279Y-50687696D01*
X115695757Y-50695754D01*
X115672553Y-50701566D01*
X115648892Y-50705076D01*
X115625000Y-50706250D01*
X115137500Y-50706250D01*
X115113608Y-50705076D01*
X115089947Y-50701566D01*
X115066743Y-50695754D01*
X115044221Y-50687696D01*
X115022597Y-50677468D01*
X115002080Y-50665171D01*
X114982867Y-50650921D01*
X114965143Y-50634857D01*
X114949079Y-50617133D01*
X114934829Y-50597920D01*
X114922532Y-50577403D01*
X114912304Y-50555779D01*
X114904246Y-50533257D01*
X114898434Y-50510053D01*
X114894924Y-50486392D01*
X114893750Y-50462500D01*
X114893750Y-49550000D01*
X114894924Y-49526108D01*
X114898434Y-49502447D01*
X114904246Y-49479243D01*
X114912304Y-49456721D01*
X114922532Y-49435097D01*
X114934829Y-49414580D01*
X114949079Y-49395367D01*
X114965143Y-49377643D01*
X114982867Y-49361579D01*
X115002080Y-49347329D01*
X115022597Y-49335032D01*
X115044221Y-49324804D01*
X115066743Y-49316746D01*
X115089947Y-49310934D01*
X115113608Y-49307424D01*
X115137500Y-49306250D01*
X115625000Y-49306250D01*
X115648892Y-49307424D01*
X115648892Y-49307424D01*
G37*
D17*
X115381250Y-50006250D03*
D16*
G36*
X100930142Y-44544924D02*
G01*
X100953803Y-44548434D01*
X100977007Y-44554246D01*
X100999529Y-44562304D01*
X101021153Y-44572532D01*
X101041670Y-44584829D01*
X101060883Y-44599079D01*
X101078607Y-44615143D01*
X101094671Y-44632867D01*
X101108921Y-44652080D01*
X101121218Y-44672597D01*
X101131446Y-44694221D01*
X101139504Y-44716743D01*
X101145316Y-44739947D01*
X101148826Y-44763608D01*
X101150000Y-44787500D01*
X101150000Y-45700000D01*
X101148826Y-45723892D01*
X101145316Y-45747553D01*
X101139504Y-45770757D01*
X101131446Y-45793279D01*
X101121218Y-45814903D01*
X101108921Y-45835420D01*
X101094671Y-45854633D01*
X101078607Y-45872357D01*
X101060883Y-45888421D01*
X101041670Y-45902671D01*
X101021153Y-45914968D01*
X100999529Y-45925196D01*
X100977007Y-45933254D01*
X100953803Y-45939066D01*
X100930142Y-45942576D01*
X100906250Y-45943750D01*
X100418750Y-45943750D01*
X100394858Y-45942576D01*
X100371197Y-45939066D01*
X100347993Y-45933254D01*
X100325471Y-45925196D01*
X100303847Y-45914968D01*
X100283330Y-45902671D01*
X100264117Y-45888421D01*
X100246393Y-45872357D01*
X100230329Y-45854633D01*
X100216079Y-45835420D01*
X100203782Y-45814903D01*
X100193554Y-45793279D01*
X100185496Y-45770757D01*
X100179684Y-45747553D01*
X100176174Y-45723892D01*
X100175000Y-45700000D01*
X100175000Y-44787500D01*
X100176174Y-44763608D01*
X100179684Y-44739947D01*
X100185496Y-44716743D01*
X100193554Y-44694221D01*
X100203782Y-44672597D01*
X100216079Y-44652080D01*
X100230329Y-44632867D01*
X100246393Y-44615143D01*
X100264117Y-44599079D01*
X100283330Y-44584829D01*
X100303847Y-44572532D01*
X100325471Y-44562304D01*
X100347993Y-44554246D01*
X100371197Y-44548434D01*
X100394858Y-44544924D01*
X100418750Y-44543750D01*
X100906250Y-44543750D01*
X100930142Y-44544924D01*
X100930142Y-44544924D01*
G37*
D17*
X100662500Y-45243750D03*
D16*
G36*
X102805142Y-44544924D02*
G01*
X102828803Y-44548434D01*
X102852007Y-44554246D01*
X102874529Y-44562304D01*
X102896153Y-44572532D01*
X102916670Y-44584829D01*
X102935883Y-44599079D01*
X102953607Y-44615143D01*
X102969671Y-44632867D01*
X102983921Y-44652080D01*
X102996218Y-44672597D01*
X103006446Y-44694221D01*
X103014504Y-44716743D01*
X103020316Y-44739947D01*
X103023826Y-44763608D01*
X103025000Y-44787500D01*
X103025000Y-45700000D01*
X103023826Y-45723892D01*
X103020316Y-45747553D01*
X103014504Y-45770757D01*
X103006446Y-45793279D01*
X102996218Y-45814903D01*
X102983921Y-45835420D01*
X102969671Y-45854633D01*
X102953607Y-45872357D01*
X102935883Y-45888421D01*
X102916670Y-45902671D01*
X102896153Y-45914968D01*
X102874529Y-45925196D01*
X102852007Y-45933254D01*
X102828803Y-45939066D01*
X102805142Y-45942576D01*
X102781250Y-45943750D01*
X102293750Y-45943750D01*
X102269858Y-45942576D01*
X102246197Y-45939066D01*
X102222993Y-45933254D01*
X102200471Y-45925196D01*
X102178847Y-45914968D01*
X102158330Y-45902671D01*
X102139117Y-45888421D01*
X102121393Y-45872357D01*
X102105329Y-45854633D01*
X102091079Y-45835420D01*
X102078782Y-45814903D01*
X102068554Y-45793279D01*
X102060496Y-45770757D01*
X102054684Y-45747553D01*
X102051174Y-45723892D01*
X102050000Y-45700000D01*
X102050000Y-44787500D01*
X102051174Y-44763608D01*
X102054684Y-44739947D01*
X102060496Y-44716743D01*
X102068554Y-44694221D01*
X102078782Y-44672597D01*
X102091079Y-44652080D01*
X102105329Y-44632867D01*
X102121393Y-44615143D01*
X102139117Y-44599079D01*
X102158330Y-44584829D01*
X102178847Y-44572532D01*
X102200471Y-44562304D01*
X102222993Y-44554246D01*
X102246197Y-44548434D01*
X102269858Y-44544924D01*
X102293750Y-44543750D01*
X102781250Y-44543750D01*
X102805142Y-44544924D01*
X102805142Y-44544924D01*
G37*
D17*
X102537500Y-45243750D03*
D16*
G36*
X109223892Y-28232424D02*
G01*
X109247553Y-28235934D01*
X109270757Y-28241746D01*
X109293279Y-28249804D01*
X109314903Y-28260032D01*
X109335420Y-28272329D01*
X109354633Y-28286579D01*
X109372357Y-28302643D01*
X109388421Y-28320367D01*
X109402671Y-28339580D01*
X109414968Y-28360097D01*
X109425196Y-28381721D01*
X109433254Y-28404243D01*
X109439066Y-28427447D01*
X109442576Y-28451108D01*
X109443750Y-28475000D01*
X109443750Y-28962500D01*
X109442576Y-28986392D01*
X109439066Y-29010053D01*
X109433254Y-29033257D01*
X109425196Y-29055779D01*
X109414968Y-29077403D01*
X109402671Y-29097920D01*
X109388421Y-29117133D01*
X109372357Y-29134857D01*
X109354633Y-29150921D01*
X109335420Y-29165171D01*
X109314903Y-29177468D01*
X109293279Y-29187696D01*
X109270757Y-29195754D01*
X109247553Y-29201566D01*
X109223892Y-29205076D01*
X109200000Y-29206250D01*
X108287500Y-29206250D01*
X108263608Y-29205076D01*
X108239947Y-29201566D01*
X108216743Y-29195754D01*
X108194221Y-29187696D01*
X108172597Y-29177468D01*
X108152080Y-29165171D01*
X108132867Y-29150921D01*
X108115143Y-29134857D01*
X108099079Y-29117133D01*
X108084829Y-29097920D01*
X108072532Y-29077403D01*
X108062304Y-29055779D01*
X108054246Y-29033257D01*
X108048434Y-29010053D01*
X108044924Y-28986392D01*
X108043750Y-28962500D01*
X108043750Y-28475000D01*
X108044924Y-28451108D01*
X108048434Y-28427447D01*
X108054246Y-28404243D01*
X108062304Y-28381721D01*
X108072532Y-28360097D01*
X108084829Y-28339580D01*
X108099079Y-28320367D01*
X108115143Y-28302643D01*
X108132867Y-28286579D01*
X108152080Y-28272329D01*
X108172597Y-28260032D01*
X108194221Y-28249804D01*
X108216743Y-28241746D01*
X108239947Y-28235934D01*
X108263608Y-28232424D01*
X108287500Y-28231250D01*
X109200000Y-28231250D01*
X109223892Y-28232424D01*
X109223892Y-28232424D01*
G37*
D17*
X108743750Y-28718750D03*
D16*
G36*
X109223892Y-26357424D02*
G01*
X109247553Y-26360934D01*
X109270757Y-26366746D01*
X109293279Y-26374804D01*
X109314903Y-26385032D01*
X109335420Y-26397329D01*
X109354633Y-26411579D01*
X109372357Y-26427643D01*
X109388421Y-26445367D01*
X109402671Y-26464580D01*
X109414968Y-26485097D01*
X109425196Y-26506721D01*
X109433254Y-26529243D01*
X109439066Y-26552447D01*
X109442576Y-26576108D01*
X109443750Y-26600000D01*
X109443750Y-27087500D01*
X109442576Y-27111392D01*
X109439066Y-27135053D01*
X109433254Y-27158257D01*
X109425196Y-27180779D01*
X109414968Y-27202403D01*
X109402671Y-27222920D01*
X109388421Y-27242133D01*
X109372357Y-27259857D01*
X109354633Y-27275921D01*
X109335420Y-27290171D01*
X109314903Y-27302468D01*
X109293279Y-27312696D01*
X109270757Y-27320754D01*
X109247553Y-27326566D01*
X109223892Y-27330076D01*
X109200000Y-27331250D01*
X108287500Y-27331250D01*
X108263608Y-27330076D01*
X108239947Y-27326566D01*
X108216743Y-27320754D01*
X108194221Y-27312696D01*
X108172597Y-27302468D01*
X108152080Y-27290171D01*
X108132867Y-27275921D01*
X108115143Y-27259857D01*
X108099079Y-27242133D01*
X108084829Y-27222920D01*
X108072532Y-27202403D01*
X108062304Y-27180779D01*
X108054246Y-27158257D01*
X108048434Y-27135053D01*
X108044924Y-27111392D01*
X108043750Y-27087500D01*
X108043750Y-26600000D01*
X108044924Y-26576108D01*
X108048434Y-26552447D01*
X108054246Y-26529243D01*
X108062304Y-26506721D01*
X108072532Y-26485097D01*
X108084829Y-26464580D01*
X108099079Y-26445367D01*
X108115143Y-26427643D01*
X108132867Y-26411579D01*
X108152080Y-26397329D01*
X108172597Y-26385032D01*
X108194221Y-26374804D01*
X108216743Y-26366746D01*
X108239947Y-26360934D01*
X108263608Y-26357424D01*
X108287500Y-26356250D01*
X109200000Y-26356250D01*
X109223892Y-26357424D01*
X109223892Y-26357424D01*
G37*
D17*
X108743750Y-26843750D03*
D16*
G36*
X117161392Y-26357424D02*
G01*
X117185053Y-26360934D01*
X117208257Y-26366746D01*
X117230779Y-26374804D01*
X117252403Y-26385032D01*
X117272920Y-26397329D01*
X117292133Y-26411579D01*
X117309857Y-26427643D01*
X117325921Y-26445367D01*
X117340171Y-26464580D01*
X117352468Y-26485097D01*
X117362696Y-26506721D01*
X117370754Y-26529243D01*
X117376566Y-26552447D01*
X117380076Y-26576108D01*
X117381250Y-26600000D01*
X117381250Y-27087500D01*
X117380076Y-27111392D01*
X117376566Y-27135053D01*
X117370754Y-27158257D01*
X117362696Y-27180779D01*
X117352468Y-27202403D01*
X117340171Y-27222920D01*
X117325921Y-27242133D01*
X117309857Y-27259857D01*
X117292133Y-27275921D01*
X117272920Y-27290171D01*
X117252403Y-27302468D01*
X117230779Y-27312696D01*
X117208257Y-27320754D01*
X117185053Y-27326566D01*
X117161392Y-27330076D01*
X117137500Y-27331250D01*
X116225000Y-27331250D01*
X116201108Y-27330076D01*
X116177447Y-27326566D01*
X116154243Y-27320754D01*
X116131721Y-27312696D01*
X116110097Y-27302468D01*
X116089580Y-27290171D01*
X116070367Y-27275921D01*
X116052643Y-27259857D01*
X116036579Y-27242133D01*
X116022329Y-27222920D01*
X116010032Y-27202403D01*
X115999804Y-27180779D01*
X115991746Y-27158257D01*
X115985934Y-27135053D01*
X115982424Y-27111392D01*
X115981250Y-27087500D01*
X115981250Y-26600000D01*
X115982424Y-26576108D01*
X115985934Y-26552447D01*
X115991746Y-26529243D01*
X115999804Y-26506721D01*
X116010032Y-26485097D01*
X116022329Y-26464580D01*
X116036579Y-26445367D01*
X116052643Y-26427643D01*
X116070367Y-26411579D01*
X116089580Y-26397329D01*
X116110097Y-26385032D01*
X116131721Y-26374804D01*
X116154243Y-26366746D01*
X116177447Y-26360934D01*
X116201108Y-26357424D01*
X116225000Y-26356250D01*
X117137500Y-26356250D01*
X117161392Y-26357424D01*
X117161392Y-26357424D01*
G37*
D17*
X116681250Y-26843750D03*
D16*
G36*
X117161392Y-28232424D02*
G01*
X117185053Y-28235934D01*
X117208257Y-28241746D01*
X117230779Y-28249804D01*
X117252403Y-28260032D01*
X117272920Y-28272329D01*
X117292133Y-28286579D01*
X117309857Y-28302643D01*
X117325921Y-28320367D01*
X117340171Y-28339580D01*
X117352468Y-28360097D01*
X117362696Y-28381721D01*
X117370754Y-28404243D01*
X117376566Y-28427447D01*
X117380076Y-28451108D01*
X117381250Y-28475000D01*
X117381250Y-28962500D01*
X117380076Y-28986392D01*
X117376566Y-29010053D01*
X117370754Y-29033257D01*
X117362696Y-29055779D01*
X117352468Y-29077403D01*
X117340171Y-29097920D01*
X117325921Y-29117133D01*
X117309857Y-29134857D01*
X117292133Y-29150921D01*
X117272920Y-29165171D01*
X117252403Y-29177468D01*
X117230779Y-29187696D01*
X117208257Y-29195754D01*
X117185053Y-29201566D01*
X117161392Y-29205076D01*
X117137500Y-29206250D01*
X116225000Y-29206250D01*
X116201108Y-29205076D01*
X116177447Y-29201566D01*
X116154243Y-29195754D01*
X116131721Y-29187696D01*
X116110097Y-29177468D01*
X116089580Y-29165171D01*
X116070367Y-29150921D01*
X116052643Y-29134857D01*
X116036579Y-29117133D01*
X116022329Y-29097920D01*
X116010032Y-29077403D01*
X115999804Y-29055779D01*
X115991746Y-29033257D01*
X115985934Y-29010053D01*
X115982424Y-28986392D01*
X115981250Y-28962500D01*
X115981250Y-28475000D01*
X115982424Y-28451108D01*
X115985934Y-28427447D01*
X115991746Y-28404243D01*
X115999804Y-28381721D01*
X116010032Y-28360097D01*
X116022329Y-28339580D01*
X116036579Y-28320367D01*
X116052643Y-28302643D01*
X116070367Y-28286579D01*
X116089580Y-28272329D01*
X116110097Y-28260032D01*
X116131721Y-28249804D01*
X116154243Y-28241746D01*
X116177447Y-28235934D01*
X116201108Y-28232424D01*
X116225000Y-28231250D01*
X117137500Y-28231250D01*
X117161392Y-28232424D01*
X117161392Y-28232424D01*
G37*
D17*
X116681250Y-28718750D03*
D22*
X100806250Y-42862500D03*
X100806250Y-39687500D03*
X118268750Y-46831250D03*
X114300000Y-51593750D03*
X102393750Y-42862500D03*
X103184907Y-38896343D03*
X101600000Y-28575000D03*
X124618750Y-37306250D03*
X116681250Y-51593750D03*
X96043750Y-44450000D03*
X102393750Y-34131250D03*
X103187500Y-43656250D03*
X99218750Y-43656250D03*
X106362500Y-52387500D03*
X92868750Y-51593750D03*
X97631250Y-31750000D03*
D23*
X103387500Y-40487500D02*
X104294000Y-40487500D01*
X90500000Y-26725000D02*
X90500000Y-27600000D01*
X113562500Y-25600250D02*
X113562500Y-26681250D01*
X113552999Y-25590749D02*
X113562500Y-25600250D01*
X108399771Y-25590749D02*
X113552999Y-25590749D01*
X107653240Y-26337280D02*
X108399771Y-25590749D01*
X107653240Y-27628240D02*
X107653240Y-26337280D01*
X108743750Y-28718750D02*
X107653240Y-27628240D01*
X109525000Y-29500000D02*
X109525000Y-33987500D01*
X108743750Y-28718750D02*
X109525000Y-29500000D01*
X113725000Y-26843750D02*
X113562500Y-26681250D01*
X116681250Y-26843750D02*
X113725000Y-26843750D01*
X111862500Y-28578348D02*
X111862500Y-28881250D01*
X113562500Y-26878348D02*
X111862500Y-28578348D01*
X113562500Y-26681250D02*
X113562500Y-26878348D01*
X83862500Y-55825000D02*
X82550000Y-54512500D01*
X84212500Y-55825000D02*
X83862500Y-55825000D01*
X82550000Y-51634598D02*
X84178348Y-50006250D01*
X82550000Y-54512500D02*
X82550000Y-51634598D01*
X93012500Y-50006250D02*
X97631250Y-45387500D01*
X84178348Y-50006250D02*
X93012500Y-50006250D01*
X104294000Y-40487500D02*
X105425000Y-40487500D01*
X100518750Y-45387500D02*
X100662500Y-45243750D01*
X97631250Y-45387500D02*
X100518750Y-45387500D01*
X100662500Y-45243750D02*
X100662500Y-43006250D01*
X100662500Y-43006250D02*
X100806250Y-42862500D01*
X100806250Y-39687500D02*
X101696875Y-38796875D01*
X101696875Y-38796875D02*
X103387500Y-40487500D01*
X114325000Y-49187500D02*
X114325000Y-45387500D01*
X113506250Y-50006250D02*
X114325000Y-49187500D01*
X119743750Y-35687500D02*
X120650000Y-34781250D01*
X116825000Y-35687500D02*
X119743750Y-35687500D01*
X119856250Y-46181250D02*
X118918750Y-46181250D01*
X118918750Y-46181250D02*
X118268750Y-46831250D01*
X114300000Y-50800000D02*
X113506250Y-50006250D01*
X114300000Y-51593750D02*
X114300000Y-50800000D01*
X101456250Y-37450000D02*
X100903125Y-38003125D01*
X102393750Y-37450000D02*
X101456250Y-37450000D01*
X90500000Y-27600000D02*
X100903125Y-38003125D01*
X100903125Y-38003125D02*
X101696875Y-38796875D01*
X115694000Y-35687500D02*
X116825000Y-35687500D01*
X110094000Y-35687500D02*
X115694000Y-35687500D01*
X109525000Y-35118500D02*
X110094000Y-35687500D01*
X109525000Y-33987500D02*
X109525000Y-35118500D01*
X106556000Y-40487500D02*
X105425000Y-40487500D01*
X107925000Y-45387500D02*
X107925000Y-41856500D01*
X110094000Y-35687500D02*
X110094000Y-38337250D01*
X107925000Y-41856500D02*
X107249875Y-41181375D01*
X107249875Y-41181375D02*
X106556000Y-40487500D01*
X109934375Y-39865875D02*
X109934375Y-38496875D01*
X114325000Y-44256500D02*
X109934375Y-39865875D01*
X114325000Y-45387500D02*
X114325000Y-44256500D01*
X110094000Y-38337250D02*
X109934375Y-38496875D01*
X109934375Y-38496875D02*
X107249875Y-41181375D01*
D24*
X113725000Y-28718750D02*
X113562500Y-28881250D01*
X116681250Y-28718750D02*
X113725000Y-28718750D01*
X111125000Y-32983500D02*
X111125000Y-33987500D01*
X111125000Y-32272750D02*
X111125000Y-32983500D01*
X113562500Y-29835250D02*
X111125000Y-32272750D01*
X113562500Y-28881250D02*
X113562500Y-29835250D01*
X111700000Y-26843750D02*
X111862500Y-26681250D01*
X108743750Y-26843750D02*
X111700000Y-26843750D01*
X110325000Y-32983500D02*
X110325000Y-33987500D01*
X110325000Y-28318750D02*
X110325000Y-32983500D01*
X111862500Y-26781250D02*
X110325000Y-28318750D01*
X111862500Y-26681250D02*
X111862500Y-26781250D01*
X102537500Y-45243750D02*
X102393750Y-45100000D01*
X102393750Y-45100000D02*
X102393750Y-42862500D01*
X103976064Y-39687500D02*
X105425000Y-39687500D01*
X103184907Y-38896343D02*
X103976064Y-39687500D01*
D23*
X88150000Y-43512500D02*
X97631250Y-43512500D01*
X84931250Y-40293750D02*
X88150000Y-43512500D01*
X102949987Y-36131237D02*
X102393750Y-35575000D01*
X103484260Y-36665510D02*
X102949987Y-36131237D01*
X103484260Y-38077760D02*
X103484260Y-36665510D01*
X104294000Y-38887500D02*
X103484260Y-38077760D01*
X105425000Y-38887500D02*
X104294000Y-38887500D01*
X100156250Y-28575000D02*
X101600000Y-28575000D01*
X123968750Y-36656250D02*
X120650000Y-36656250D01*
X124618750Y-37306250D02*
X123968750Y-36656250D01*
X117956000Y-36487500D02*
X116825000Y-36487500D01*
X119681250Y-36487500D02*
X117956000Y-36487500D01*
X119850000Y-36656250D02*
X119681250Y-36487500D01*
X120650000Y-36656250D02*
X119850000Y-36656250D01*
X115381250Y-50006250D02*
X115381250Y-50293750D01*
X115381250Y-50293750D02*
X116681250Y-51593750D01*
X97631250Y-43512500D02*
X96981250Y-43512500D01*
X96981250Y-43512500D02*
X96043750Y-44450000D01*
X102393750Y-35575000D02*
X102393750Y-34131250D01*
X115381250Y-45643750D02*
X115125000Y-45387500D01*
X115381250Y-50006250D02*
X115381250Y-45643750D01*
X105425000Y-42887500D02*
X103956250Y-42887500D01*
X103956250Y-42887500D02*
X103187500Y-43656250D01*
X97775000Y-43656250D02*
X97631250Y-43512500D01*
X99218750Y-43656250D02*
X97775000Y-43656250D01*
X102165685Y-28575000D02*
X101600000Y-28575000D01*
X104443500Y-28575000D02*
X102165685Y-28575000D01*
X108725000Y-32856500D02*
X104443500Y-28575000D01*
X108725000Y-33987500D02*
X108725000Y-32856500D01*
X107125000Y-45387500D02*
X107125000Y-51625000D01*
X107125000Y-51625000D02*
X106362500Y-52387500D01*
D24*
X142495000Y-28512500D02*
X139065000Y-25082500D01*
X144462500Y-28512500D02*
X142495000Y-28512500D01*
X144612500Y-31812500D02*
X144462500Y-31812500D01*
X145316500Y-32516500D02*
X144612500Y-31812500D01*
X162658500Y-32516500D02*
X145316500Y-32516500D01*
X163362500Y-31812500D02*
X162658500Y-32516500D01*
X163512500Y-31812500D02*
X163362500Y-31812500D01*
X117829000Y-39687500D02*
X116825000Y-39687500D01*
X137291500Y-39687500D02*
X117829000Y-39687500D01*
X144462500Y-32516500D02*
X137291500Y-39687500D01*
X144462500Y-31812500D02*
X144462500Y-32516500D01*
X161545000Y-28512500D02*
X158115000Y-25082500D01*
X163512500Y-28512500D02*
X161545000Y-28512500D01*
X142495000Y-47562500D02*
X139065000Y-44132500D01*
X144462500Y-47562500D02*
X142495000Y-47562500D01*
X144612500Y-50862500D02*
X144462500Y-50862500D01*
X145316500Y-51566500D02*
X144612500Y-50862500D01*
X161954500Y-51566500D02*
X145316500Y-51566500D01*
X162658500Y-50862500D02*
X161954500Y-51566500D01*
X163512500Y-50862500D02*
X162658500Y-50862500D01*
X116825000Y-42087500D02*
X125431250Y-42087500D01*
X125431250Y-42087500D02*
X129381250Y-46037500D01*
X129381250Y-46037500D02*
X129381250Y-50800000D01*
X144312500Y-50862500D02*
X144462500Y-50862500D01*
X143608500Y-51566500D02*
X144312500Y-50862500D01*
X130147750Y-51566500D02*
X143608500Y-51566500D01*
X129381250Y-50800000D02*
X130147750Y-51566500D01*
X161366500Y-44712500D02*
X158075000Y-44712500D01*
X163512500Y-46858500D02*
X161366500Y-44712500D01*
X163512500Y-47562500D02*
X163512500Y-46858500D01*
D23*
X84931250Y-36768750D02*
X84931250Y-37493750D01*
X84931250Y-30599750D02*
X84931250Y-36768750D01*
X87300000Y-28231000D02*
X84931250Y-30599750D01*
X87300000Y-26725000D02*
X87300000Y-28231000D01*
D24*
X132715000Y-43902500D02*
X132715000Y-46672500D01*
X130100000Y-41287500D02*
X132715000Y-43902500D01*
X116825000Y-41287500D02*
X130100000Y-41287500D01*
X117829000Y-40487500D02*
X116825000Y-40487500D01*
X137568962Y-40487500D02*
X117829000Y-40487500D01*
X143753962Y-46672500D02*
X137568962Y-40487500D01*
X151765000Y-46672500D02*
X143753962Y-46672500D01*
X90412500Y-52125000D02*
X92337500Y-52125000D01*
X92337500Y-52125000D02*
X92868750Y-51593750D01*
X97631250Y-31750000D02*
X98281250Y-31750000D01*
X107925000Y-32983500D02*
X107925000Y-33987500D01*
X106691500Y-31750000D02*
X107925000Y-32983500D01*
X101456250Y-31750000D02*
X106691500Y-31750000D01*
X98281250Y-31750000D02*
X98281250Y-28575000D01*
X98281250Y-28575000D02*
X101456250Y-31750000D01*
X88900000Y-32400000D02*
X89693750Y-33193750D01*
X88900000Y-26725000D02*
X88900000Y-32400000D01*
X95912500Y-41287500D02*
X105425000Y-41287500D01*
X89693750Y-35068750D02*
X95912500Y-41287500D01*
X88100000Y-32406250D02*
X87312500Y-33193750D01*
X88100000Y-26725000D02*
X88100000Y-32406250D01*
X96070434Y-42087500D02*
X105425000Y-42087500D01*
X95257934Y-41275000D02*
X96070434Y-42087500D01*
X95250000Y-41275000D02*
X95257934Y-41275000D01*
X90487500Y-36512500D02*
X95250000Y-41275000D01*
X87312500Y-35068750D02*
X88756250Y-36512500D01*
X88756250Y-36512500D02*
X90487500Y-36512500D01*
X116825000Y-44216500D02*
X116825000Y-43687500D01*
X116914750Y-44306250D02*
X116825000Y-44216500D01*
X119856250Y-44306250D02*
X116914750Y-44306250D01*
G36*
X83786487Y-21433889D02*
G01*
X83765000Y-21652050D01*
X83765000Y-22797949D01*
X83786487Y-23016110D01*
X83871401Y-23296033D01*
X84009294Y-23554013D01*
X84194866Y-23780134D01*
X84420986Y-23965706D01*
X84678966Y-24103599D01*
X84958889Y-24188513D01*
X85250000Y-24217185D01*
X85541110Y-24188513D01*
X85821033Y-24103599D01*
X86079013Y-23965706D01*
X86305134Y-23780134D01*
X86490706Y-23554014D01*
X86628599Y-23296034D01*
X86713513Y-23016111D01*
X86735000Y-22797950D01*
X86735000Y-21652050D01*
X86713513Y-21433889D01*
X86672140Y-21297500D01*
X91127860Y-21297500D01*
X91086487Y-21433889D01*
X91065000Y-21652050D01*
X91065000Y-22797949D01*
X91086487Y-23016110D01*
X91171401Y-23296033D01*
X91309294Y-23554013D01*
X91494866Y-23780134D01*
X91720986Y-23965706D01*
X91978966Y-24103599D01*
X92258889Y-24188513D01*
X92550000Y-24217185D01*
X92841110Y-24188513D01*
X93121033Y-24103599D01*
X93379013Y-23965706D01*
X93605134Y-23780134D01*
X93790706Y-23554014D01*
X93928599Y-23296034D01*
X94013513Y-23016111D01*
X94035000Y-22797950D01*
X94035000Y-21652050D01*
X94013513Y-21433889D01*
X93972140Y-21297500D01*
X126873000Y-21297500D01*
X126873000Y-38925500D01*
X118213072Y-38925500D01*
X118213072Y-38612500D01*
X118200812Y-38488018D01*
X118200655Y-38487500D01*
X118200812Y-38486982D01*
X118213072Y-38362500D01*
X118213072Y-37812500D01*
X118200812Y-37688018D01*
X118200655Y-37687500D01*
X118200812Y-37686982D01*
X118213072Y-37562500D01*
X118213072Y-37313000D01*
X119349009Y-37313000D01*
X119389158Y-37345949D01*
X119456195Y-37381781D01*
X119460542Y-37389914D01*
X119570208Y-37523542D01*
X119703836Y-37633208D01*
X119856291Y-37714697D01*
X120021715Y-37764878D01*
X120193750Y-37781822D01*
X121106250Y-37781822D01*
X121278285Y-37764878D01*
X121443709Y-37714697D01*
X121596164Y-37633208D01*
X121729792Y-37523542D01*
X121764090Y-37481750D01*
X123598382Y-37481750D01*
X123623524Y-37608148D01*
X123701545Y-37796506D01*
X123814813Y-37966024D01*
X123958976Y-38110187D01*
X124128494Y-38223455D01*
X124316852Y-38301476D01*
X124516811Y-38341250D01*
X124720689Y-38341250D01*
X124920648Y-38301476D01*
X125109006Y-38223455D01*
X125278524Y-38110187D01*
X125422687Y-37966024D01*
X125535955Y-37796506D01*
X125613976Y-37608148D01*
X125653750Y-37408189D01*
X125653750Y-37204311D01*
X125613976Y-37004352D01*
X125535955Y-36815994D01*
X125422687Y-36646476D01*
X125278524Y-36502313D01*
X125109006Y-36389045D01*
X124920648Y-36311024D01*
X124758754Y-36278822D01*
X124581147Y-36101215D01*
X124555291Y-36069709D01*
X124429592Y-35966551D01*
X124286184Y-35889897D01*
X124130576Y-35842694D01*
X124009303Y-35830750D01*
X124009300Y-35830750D01*
X123968750Y-35826756D01*
X123928200Y-35830750D01*
X121764090Y-35830750D01*
X121729792Y-35788958D01*
X121723436Y-35783742D01*
X121801185Y-35719935D01*
X121880537Y-35623244D01*
X121939502Y-35512930D01*
X121975812Y-35393232D01*
X121988072Y-35268750D01*
X121985000Y-35067000D01*
X121826250Y-34908250D01*
X120777000Y-34908250D01*
X120777000Y-34928250D01*
X120523000Y-34928250D01*
X120523000Y-34908250D01*
X119473750Y-34908250D01*
X119315000Y-35067000D01*
X119311928Y-35268750D01*
X119324188Y-35393232D01*
X119360498Y-35512930D01*
X119419463Y-35623244D01*
X119451269Y-35662000D01*
X118210000Y-35662000D01*
X118210000Y-35560498D01*
X118051252Y-35560498D01*
X118210000Y-35401750D01*
X118200177Y-35284869D01*
X118163265Y-35165355D01*
X118103746Y-35055339D01*
X118023908Y-34959049D01*
X117926818Y-34880184D01*
X117816208Y-34821776D01*
X117696329Y-34786070D01*
X117571787Y-34774436D01*
X117110750Y-34777500D01*
X116952000Y-34936250D01*
X116952000Y-35560500D01*
X116972000Y-35560500D01*
X116972000Y-35574428D01*
X116075000Y-35574428D01*
X115950518Y-35586688D01*
X115830820Y-35622998D01*
X115720506Y-35681963D01*
X115623815Y-35761315D01*
X115544463Y-35858006D01*
X115532083Y-35881167D01*
X115440000Y-35973250D01*
X115449546Y-36086837D01*
X115449188Y-36088018D01*
X115436928Y-36212500D01*
X115436928Y-36762500D01*
X115449188Y-36886982D01*
X115449345Y-36887500D01*
X115449188Y-36888018D01*
X115436928Y-37012500D01*
X115436928Y-37562500D01*
X115449188Y-37686982D01*
X115449345Y-37687500D01*
X115449188Y-37688018D01*
X115436928Y-37812500D01*
X115436928Y-38362500D01*
X115449188Y-38486982D01*
X115449345Y-38487500D01*
X115449188Y-38488018D01*
X115436928Y-38612500D01*
X115436928Y-39162500D01*
X115449188Y-39286982D01*
X115449345Y-39287500D01*
X115449188Y-39288018D01*
X115436928Y-39412500D01*
X115436928Y-39962500D01*
X115449188Y-40086982D01*
X115449345Y-40087500D01*
X115449188Y-40088018D01*
X115436928Y-40212500D01*
X115436928Y-40762500D01*
X115449188Y-40886982D01*
X115449345Y-40887500D01*
X115449188Y-40888018D01*
X115436928Y-41012500D01*
X115436928Y-41562500D01*
X115449188Y-41686982D01*
X115449345Y-41687500D01*
X115449188Y-41688018D01*
X115436928Y-41812500D01*
X115436928Y-42362500D01*
X115449188Y-42486982D01*
X115449345Y-42487500D01*
X115449188Y-42488018D01*
X115436928Y-42612500D01*
X115436928Y-43162500D01*
X115449188Y-43286982D01*
X115449345Y-43287500D01*
X115449188Y-43288018D01*
X115436928Y-43412500D01*
X115436928Y-43962500D01*
X115440962Y-44003462D01*
X115400000Y-43999428D01*
X114850000Y-43999428D01*
X114725518Y-44011688D01*
X114724337Y-44012046D01*
X114610750Y-44002500D01*
X114518667Y-44094583D01*
X114495506Y-44106963D01*
X114398815Y-44186315D01*
X114325000Y-44276259D01*
X114251185Y-44186315D01*
X114154494Y-44106963D01*
X114131333Y-44094583D01*
X114039250Y-44002500D01*
X113925663Y-44012046D01*
X113924482Y-44011688D01*
X113800000Y-43999428D01*
X113250000Y-43999428D01*
X113125518Y-44011688D01*
X113125000Y-44011845D01*
X113124482Y-44011688D01*
X113000000Y-43999428D01*
X112450000Y-43999428D01*
X112325518Y-44011688D01*
X112325000Y-44011845D01*
X112324482Y-44011688D01*
X112200000Y-43999428D01*
X111650000Y-43999428D01*
X111525518Y-44011688D01*
X111525000Y-44011845D01*
X111524482Y-44011688D01*
X111400000Y-43999428D01*
X110850000Y-43999428D01*
X110725518Y-44011688D01*
X110725000Y-44011845D01*
X110724482Y-44011688D01*
X110600000Y-43999428D01*
X110050000Y-43999428D01*
X109925518Y-44011688D01*
X109925000Y-44011845D01*
X109924482Y-44011688D01*
X109800000Y-43999428D01*
X109250000Y-43999428D01*
X109125518Y-44011688D01*
X109125000Y-44011845D01*
X109124482Y-44011688D01*
X109000000Y-43999428D01*
X108450000Y-43999428D01*
X108325518Y-44011688D01*
X108324337Y-44012046D01*
X108210750Y-44002500D01*
X108118667Y-44094583D01*
X108095506Y-44106963D01*
X107998815Y-44186315D01*
X107925000Y-44276259D01*
X107851185Y-44186315D01*
X107754494Y-44106963D01*
X107731333Y-44094583D01*
X107639250Y-44002500D01*
X107525663Y-44012046D01*
X107524482Y-44011688D01*
X107400000Y-43999428D01*
X106850000Y-43999428D01*
X106809038Y-44003462D01*
X106813072Y-43962500D01*
X106813072Y-43412500D01*
X106800812Y-43288018D01*
X106800655Y-43287500D01*
X106800812Y-43286982D01*
X106813072Y-43162500D01*
X106813072Y-42612500D01*
X106800812Y-42488018D01*
X106800655Y-42487500D01*
X106800812Y-42486982D01*
X106813072Y-42362500D01*
X106813072Y-41812500D01*
X106800812Y-41688018D01*
X106800655Y-41687500D01*
X106800812Y-41686982D01*
X106813072Y-41562500D01*
X106813072Y-41012500D01*
X106800812Y-40888018D01*
X106800454Y-40886837D01*
X106810000Y-40773250D01*
X106717917Y-40681167D01*
X106705537Y-40658006D01*
X106626185Y-40561315D01*
X106536241Y-40487500D01*
X106626185Y-40413685D01*
X106705537Y-40316994D01*
X106717917Y-40293833D01*
X106810000Y-40201750D01*
X106800454Y-40088163D01*
X106800812Y-40086982D01*
X106813072Y-39962500D01*
X106813072Y-39412500D01*
X106800812Y-39288018D01*
X106800655Y-39287500D01*
X106800812Y-39286982D01*
X106813072Y-39162500D01*
X106813072Y-38612500D01*
X106800812Y-38488018D01*
X106800655Y-38487500D01*
X106800812Y-38486982D01*
X106813072Y-38362500D01*
X106813072Y-37812500D01*
X106800812Y-37688018D01*
X106800655Y-37687500D01*
X106800812Y-37686982D01*
X106813072Y-37562500D01*
X106813072Y-37012500D01*
X106800812Y-36888018D01*
X106800655Y-36887500D01*
X106800812Y-36886982D01*
X106813072Y-36762500D01*
X106813072Y-36212500D01*
X106800812Y-36088018D01*
X106800655Y-36087500D01*
X106800812Y-36086982D01*
X106813072Y-35962500D01*
X106813072Y-35412500D01*
X106809038Y-35371538D01*
X106850000Y-35375572D01*
X107400000Y-35375572D01*
X107524482Y-35363312D01*
X107525000Y-35363155D01*
X107525518Y-35363312D01*
X107650000Y-35375572D01*
X108200000Y-35375572D01*
X108324482Y-35363312D01*
X108325000Y-35363155D01*
X108325518Y-35363312D01*
X108450000Y-35375572D01*
X109000000Y-35375572D01*
X109124482Y-35363312D01*
X109125663Y-35362954D01*
X109239250Y-35372500D01*
X109331333Y-35280417D01*
X109354494Y-35268037D01*
X109451185Y-35188685D01*
X109525000Y-35098741D01*
X109598815Y-35188685D01*
X109695506Y-35268037D01*
X109718667Y-35280417D01*
X109810750Y-35372500D01*
X109924337Y-35362954D01*
X109925518Y-35363312D01*
X110050000Y-35375572D01*
X110600000Y-35375572D01*
X110724482Y-35363312D01*
X110725000Y-35363155D01*
X110725518Y-35363312D01*
X110850000Y-35375572D01*
X111400000Y-35375572D01*
X111524482Y-35363312D01*
X111525000Y-35363155D01*
X111525518Y-35363312D01*
X111650000Y-35375572D01*
X112200000Y-35375572D01*
X112324482Y-35363312D01*
X112325000Y-35363155D01*
X112325518Y-35363312D01*
X112450000Y-35375572D01*
X113000000Y-35375572D01*
X113124482Y-35363312D01*
X113125000Y-35363155D01*
X113125518Y-35363312D01*
X113250000Y-35375572D01*
X113800000Y-35375572D01*
X113924482Y-35363312D01*
X113925000Y-35363155D01*
X113925518Y-35363312D01*
X114050000Y-35375572D01*
X114600000Y-35375572D01*
X114724482Y-35363312D01*
X114725000Y-35363155D01*
X114725518Y-35363312D01*
X114850000Y-35375572D01*
X115400000Y-35375572D01*
X115442552Y-35371381D01*
X115440000Y-35401750D01*
X115598750Y-35560500D01*
X116698000Y-35560500D01*
X116698000Y-34936250D01*
X116539250Y-34777500D01*
X116078213Y-34774436D01*
X116034028Y-34778564D01*
X116038072Y-34737500D01*
X116038072Y-34293750D01*
X119311928Y-34293750D01*
X119315000Y-34495500D01*
X119473750Y-34654250D01*
X120523000Y-34654250D01*
X120523000Y-33817500D01*
X120777000Y-33817500D01*
X120777000Y-34654250D01*
X121826250Y-34654250D01*
X121985000Y-34495500D01*
X121988072Y-34293750D01*
X121975812Y-34169268D01*
X121939502Y-34049570D01*
X121880537Y-33939256D01*
X121801185Y-33842565D01*
X121704494Y-33763213D01*
X121594180Y-33704248D01*
X121474482Y-33667938D01*
X121350000Y-33655678D01*
X120935750Y-33658750D01*
X120777000Y-33817500D01*
X120523000Y-33817500D01*
X120364250Y-33658750D01*
X119950000Y-33655678D01*
X119825518Y-33667938D01*
X119705820Y-33704248D01*
X119595506Y-33763213D01*
X119498815Y-33842565D01*
X119419463Y-33939256D01*
X119360498Y-34049570D01*
X119324188Y-34169268D01*
X119311928Y-34293750D01*
X116038072Y-34293750D01*
X116038072Y-33237500D01*
X116025812Y-33113018D01*
X115989502Y-32993320D01*
X115930537Y-32883006D01*
X115851185Y-32786315D01*
X115754494Y-32706963D01*
X115644180Y-32647998D01*
X115524482Y-32611688D01*
X115400000Y-32599428D01*
X114850000Y-32599428D01*
X114725518Y-32611688D01*
X114725000Y-32611845D01*
X114724482Y-32611688D01*
X114600000Y-32599428D01*
X114050000Y-32599428D01*
X113925518Y-32611688D01*
X113925000Y-32611845D01*
X113924482Y-32611688D01*
X113800000Y-32599428D01*
X113250000Y-32599428D01*
X113125518Y-32611688D01*
X113125000Y-32611845D01*
X113124482Y-32611688D01*
X113000000Y-32599428D01*
X112450000Y-32599428D01*
X112325518Y-32611688D01*
X112325000Y-32611845D01*
X112324482Y-32611688D01*
X112200000Y-32599428D01*
X111887000Y-32599428D01*
X111887000Y-32588380D01*
X114074846Y-30400534D01*
X114103922Y-30376672D01*
X114181358Y-30282316D01*
X114199145Y-30260643D01*
X114224495Y-30213216D01*
X114286982Y-30207062D01*
X114406680Y-30170752D01*
X114516994Y-30111787D01*
X114613685Y-30032435D01*
X114693037Y-29935744D01*
X114752002Y-29825430D01*
X114788312Y-29705732D01*
X114800572Y-29581250D01*
X114800572Y-29480750D01*
X115515047Y-29480750D01*
X115601458Y-29586042D01*
X115735086Y-29695708D01*
X115887541Y-29777197D01*
X116052965Y-29827378D01*
X116225000Y-29844322D01*
X117137500Y-29844322D01*
X117309535Y-29827378D01*
X117474959Y-29777197D01*
X117627414Y-29695708D01*
X117761042Y-29586042D01*
X117870708Y-29452414D01*
X117952197Y-29299959D01*
X118002378Y-29134535D01*
X118019322Y-28962500D01*
X118019322Y-28475000D01*
X118002378Y-28302965D01*
X117952197Y-28137541D01*
X117870708Y-27985086D01*
X117761042Y-27851458D01*
X117754686Y-27846242D01*
X117832435Y-27782435D01*
X117911787Y-27685744D01*
X117970752Y-27575430D01*
X118007062Y-27455732D01*
X118019322Y-27331250D01*
X118016250Y-27129500D01*
X117857500Y-26970750D01*
X116808250Y-26970750D01*
X116808250Y-26990750D01*
X116554250Y-26990750D01*
X116554250Y-26970750D01*
X115505000Y-26970750D01*
X115346250Y-27129500D01*
X115343178Y-27331250D01*
X115355438Y-27455732D01*
X115391748Y-27575430D01*
X115450713Y-27685744D01*
X115530065Y-27782435D01*
X115607814Y-27846242D01*
X115601458Y-27851458D01*
X115515047Y-27956750D01*
X114757972Y-27956750D01*
X114752002Y-27937070D01*
X114693037Y-27826756D01*
X114655691Y-27781250D01*
X114693037Y-27735744D01*
X114752002Y-27625430D01*
X114788312Y-27505732D01*
X114800572Y-27381250D01*
X114797500Y-26967000D01*
X114638750Y-26808250D01*
X113689500Y-26808250D01*
X113689500Y-26828250D01*
X113435500Y-26828250D01*
X113435500Y-26808250D01*
X113415500Y-26808250D01*
X113415500Y-26554250D01*
X113435500Y-26554250D01*
X113435500Y-25505000D01*
X113689500Y-25505000D01*
X113689500Y-26554250D01*
X114638750Y-26554250D01*
X114797500Y-26395500D01*
X114797791Y-26356250D01*
X115343178Y-26356250D01*
X115346250Y-26558000D01*
X115505000Y-26716750D01*
X116554250Y-26716750D01*
X116554250Y-25880000D01*
X116808250Y-25880000D01*
X116808250Y-26716750D01*
X117857500Y-26716750D01*
X118016250Y-26558000D01*
X118019322Y-26356250D01*
X118007062Y-26231768D01*
X117970752Y-26112070D01*
X117911787Y-26001756D01*
X117832435Y-25905065D01*
X117735744Y-25825713D01*
X117625430Y-25766748D01*
X117505732Y-25730438D01*
X117381250Y-25718178D01*
X116967000Y-25721250D01*
X116808250Y-25880000D01*
X116554250Y-25880000D01*
X116395500Y-25721250D01*
X115981250Y-25718178D01*
X115856768Y-25730438D01*
X115737070Y-25766748D01*
X115626756Y-25825713D01*
X115530065Y-25905065D01*
X115450713Y-26001756D01*
X115391748Y-26112070D01*
X115355438Y-26231768D01*
X115343178Y-26356250D01*
X114797791Y-26356250D01*
X114800572Y-25981250D01*
X114788312Y-25856768D01*
X114752002Y-25737070D01*
X114693037Y-25626756D01*
X114613685Y-25530065D01*
X114516994Y-25450713D01*
X114406680Y-25391748D01*
X114286982Y-25355438D01*
X114162500Y-25343178D01*
X113848250Y-25346250D01*
X113689500Y-25505000D01*
X113435500Y-25505000D01*
X113276750Y-25346250D01*
X112962500Y-25343178D01*
X112838018Y-25355438D01*
X112718320Y-25391748D01*
X112712500Y-25394859D01*
X112706680Y-25391748D01*
X112586982Y-25355438D01*
X112462500Y-25343178D01*
X111262500Y-25343178D01*
X111138018Y-25355438D01*
X111018320Y-25391748D01*
X110908006Y-25450713D01*
X110811315Y-25530065D01*
X110731963Y-25626756D01*
X110672998Y-25737070D01*
X110636688Y-25856768D01*
X110624428Y-25981250D01*
X110624428Y-26081750D01*
X109909953Y-26081750D01*
X109823542Y-25976458D01*
X109689914Y-25866792D01*
X109537459Y-25785303D01*
X109372035Y-25735122D01*
X109200000Y-25718178D01*
X108287500Y-25718178D01*
X108115465Y-25735122D01*
X107950041Y-25785303D01*
X107797586Y-25866792D01*
X107663958Y-25976458D01*
X107554292Y-26110086D01*
X107472803Y-26262541D01*
X107422622Y-26427965D01*
X107405678Y-26600000D01*
X107405678Y-27087500D01*
X107422622Y-27259535D01*
X107472803Y-27424959D01*
X107554292Y-27577414D01*
X107663958Y-27711042D01*
X107670314Y-27716258D01*
X107592565Y-27780065D01*
X107513213Y-27876756D01*
X107454248Y-27987070D01*
X107417938Y-28106768D01*
X107405678Y-28231250D01*
X107408750Y-28433000D01*
X107567500Y-28591750D01*
X108616750Y-28591750D01*
X108616750Y-28571750D01*
X108870750Y-28571750D01*
X108870750Y-28591750D01*
X108890750Y-28591750D01*
X108890750Y-28845750D01*
X108870750Y-28845750D01*
X108870750Y-29682500D01*
X109029500Y-29841250D01*
X109443750Y-29844322D01*
X109563000Y-29832577D01*
X109563001Y-32829955D01*
X109553070Y-32842055D01*
X109550500Y-32815956D01*
X109550500Y-32815947D01*
X109538556Y-32694674D01*
X109491353Y-32539066D01*
X109414699Y-32395658D01*
X109311541Y-32269959D01*
X109280039Y-32244107D01*
X106242182Y-29206250D01*
X107405678Y-29206250D01*
X107417938Y-29330732D01*
X107454248Y-29450430D01*
X107513213Y-29560744D01*
X107592565Y-29657435D01*
X107689256Y-29736787D01*
X107799570Y-29795752D01*
X107919268Y-29832062D01*
X108043750Y-29844322D01*
X108458000Y-29841250D01*
X108616750Y-29682500D01*
X108616750Y-28845750D01*
X107567500Y-28845750D01*
X107408750Y-29004500D01*
X107405678Y-29206250D01*
X106242182Y-29206250D01*
X105055898Y-28019966D01*
X105030041Y-27988459D01*
X104904342Y-27885301D01*
X104760934Y-27808647D01*
X104605326Y-27761444D01*
X104484053Y-27749500D01*
X104484050Y-27749500D01*
X104443500Y-27745506D01*
X104402950Y-27749500D01*
X102227503Y-27749500D01*
X102090256Y-27657795D01*
X101901898Y-27579774D01*
X101701939Y-27540000D01*
X101498061Y-27540000D01*
X101298102Y-27579774D01*
X101141628Y-27644588D01*
X101133208Y-27628836D01*
X101023542Y-27495208D01*
X100889914Y-27385542D01*
X100737459Y-27304053D01*
X100572035Y-27253872D01*
X100400000Y-27236928D01*
X99912500Y-27236928D01*
X99740465Y-27253872D01*
X99575041Y-27304053D01*
X99422586Y-27385542D01*
X99288958Y-27495208D01*
X99218750Y-27580756D01*
X99148542Y-27495208D01*
X99014914Y-27385542D01*
X98862459Y-27304053D01*
X98697035Y-27253872D01*
X98525000Y-27236928D01*
X98037500Y-27236928D01*
X97865465Y-27253872D01*
X97700041Y-27304053D01*
X97547586Y-27385542D01*
X97413958Y-27495208D01*
X97304292Y-27628836D01*
X97222803Y-27781291D01*
X97172622Y-27946715D01*
X97155678Y-28118750D01*
X97155678Y-29031250D01*
X97172622Y-29203285D01*
X97222803Y-29368709D01*
X97304292Y-29521164D01*
X97413958Y-29654792D01*
X97519251Y-29741204D01*
X97519250Y-30717001D01*
X97329352Y-30754774D01*
X97140994Y-30832795D01*
X96971476Y-30946063D01*
X96827313Y-31090226D01*
X96714045Y-31259744D01*
X96636024Y-31448102D01*
X96596250Y-31648061D01*
X96596250Y-31851939D01*
X96636024Y-32051898D01*
X96714045Y-32240256D01*
X96827313Y-32409774D01*
X96971476Y-32553937D01*
X97140994Y-32667205D01*
X97329352Y-32745226D01*
X97529311Y-32785000D01*
X97733189Y-32785000D01*
X97933148Y-32745226D01*
X98121506Y-32667205D01*
X98291024Y-32553937D01*
X98334522Y-32510439D01*
X98430628Y-32500974D01*
X98574265Y-32457402D01*
X98706642Y-32386645D01*
X98822672Y-32291422D01*
X98917895Y-32175392D01*
X98988652Y-32043015D01*
X99032224Y-31899378D01*
X99046936Y-31750000D01*
X99043250Y-31712574D01*
X99043250Y-30414630D01*
X100890970Y-32262351D01*
X100914828Y-32291422D01*
X101030858Y-32386645D01*
X101163235Y-32457402D01*
X101306872Y-32500974D01*
X101418824Y-32512000D01*
X101418826Y-32512000D01*
X101456249Y-32515686D01*
X101493672Y-32512000D01*
X106375870Y-32512000D01*
X106544594Y-32680724D01*
X106495506Y-32706963D01*
X106398815Y-32786315D01*
X106319463Y-32883006D01*
X106260498Y-32993320D01*
X106224188Y-33113018D01*
X106211928Y-33237500D01*
X106211928Y-34737500D01*
X106215962Y-34778462D01*
X106175000Y-34774428D01*
X104675000Y-34774428D01*
X104550518Y-34786688D01*
X104430820Y-34822998D01*
X104320506Y-34881963D01*
X104223815Y-34961315D01*
X104144463Y-35058006D01*
X104085498Y-35168320D01*
X104049188Y-35288018D01*
X104036928Y-35412500D01*
X104036928Y-35962500D01*
X104046429Y-36058967D01*
X104039294Y-36053112D01*
X103731822Y-35745640D01*
X103731822Y-35331250D01*
X103714878Y-35159215D01*
X103664697Y-34993791D01*
X103583208Y-34841336D01*
X103473542Y-34707708D01*
X103339914Y-34598042D01*
X103324162Y-34589622D01*
X103388976Y-34433148D01*
X103428750Y-34233189D01*
X103428750Y-34029311D01*
X103388976Y-33829352D01*
X103310955Y-33640994D01*
X103197687Y-33471476D01*
X103053524Y-33327313D01*
X102884006Y-33214045D01*
X102695648Y-33136024D01*
X102495689Y-33096250D01*
X102291811Y-33096250D01*
X102091852Y-33136024D01*
X101903494Y-33214045D01*
X101733976Y-33327313D01*
X101589813Y-33471476D01*
X101476545Y-33640994D01*
X101398524Y-33829352D01*
X101358750Y-34029311D01*
X101358750Y-34233189D01*
X101398524Y-34433148D01*
X101463338Y-34589622D01*
X101447586Y-34598042D01*
X101313958Y-34707708D01*
X101204292Y-34841336D01*
X101122803Y-34993791D01*
X101072622Y-35159215D01*
X101055678Y-35331250D01*
X101055678Y-35818750D01*
X101072622Y-35990785D01*
X101122803Y-36156209D01*
X101204292Y-36308664D01*
X101313958Y-36442292D01*
X101320314Y-36447508D01*
X101242565Y-36511315D01*
X101163213Y-36608006D01*
X101104248Y-36718320D01*
X101067938Y-36838018D01*
X101055678Y-36962500D01*
X101058750Y-37164250D01*
X101217500Y-37323000D01*
X102266750Y-37323000D01*
X102266750Y-37303000D01*
X102520750Y-37303000D01*
X102520750Y-37323000D01*
X102540750Y-37323000D01*
X102540750Y-37577000D01*
X102520750Y-37577000D01*
X102520750Y-37597000D01*
X102266750Y-37597000D01*
X102266750Y-37577000D01*
X101217500Y-37577000D01*
X101058750Y-37735750D01*
X101055678Y-37937500D01*
X101067938Y-38061982D01*
X101104248Y-38181680D01*
X101163213Y-38291994D01*
X101242565Y-38388685D01*
X101339256Y-38468037D01*
X101449570Y-38527002D01*
X101569268Y-38563312D01*
X101693750Y-38575572D01*
X102108000Y-38572500D01*
X102262957Y-38417543D01*
X102189681Y-38594445D01*
X102149907Y-38794404D01*
X102149907Y-38998282D01*
X102189681Y-39198241D01*
X102267702Y-39386599D01*
X102380970Y-39556117D01*
X102525133Y-39700280D01*
X102694651Y-39813548D01*
X102883009Y-39891569D01*
X103082968Y-39931343D01*
X103142276Y-39931343D01*
X103410784Y-40199851D01*
X103434642Y-40228922D01*
X103463712Y-40252779D01*
X103550671Y-40324145D01*
X103618687Y-40360500D01*
X103683049Y-40394902D01*
X103826686Y-40438474D01*
X103938638Y-40449500D01*
X103938641Y-40449500D01*
X103976064Y-40453186D01*
X104013487Y-40449500D01*
X104267456Y-40449500D01*
X104313759Y-40487500D01*
X104267456Y-40525500D01*
X96228130Y-40525500D01*
X91030325Y-35327695D01*
X91031822Y-35312500D01*
X91031822Y-34825000D01*
X91014878Y-34652965D01*
X90964697Y-34487541D01*
X90883208Y-34335086D01*
X90773542Y-34201458D01*
X90687994Y-34131250D01*
X90773542Y-34061042D01*
X90883208Y-33927414D01*
X90964697Y-33774959D01*
X91014878Y-33609535D01*
X91031822Y-33437500D01*
X91031822Y-32950000D01*
X91014878Y-32777965D01*
X90964697Y-32612541D01*
X90883208Y-32460086D01*
X90773542Y-32326458D01*
X90639914Y-32216792D01*
X90487459Y-32135303D01*
X90322035Y-32085122D01*
X90150000Y-32068178D01*
X89662000Y-32068178D01*
X89662000Y-28488072D01*
X89950000Y-28488072D01*
X90074482Y-28475812D01*
X90099266Y-28468294D01*
X90118639Y-28474404D01*
X90218250Y-28485000D01*
X90377000Y-28326250D01*
X90377000Y-28321033D01*
X90401185Y-28301185D01*
X90480537Y-28204494D01*
X90539502Y-28094180D01*
X90575812Y-27974482D01*
X90588072Y-27850000D01*
X90588072Y-25600000D01*
X90575812Y-25475518D01*
X90539502Y-25355820D01*
X90480537Y-25245506D01*
X90401185Y-25148815D01*
X90377000Y-25128967D01*
X90377000Y-25123750D01*
X90623000Y-25123750D01*
X90623000Y-26598000D01*
X90647000Y-26598000D01*
X90647000Y-26852000D01*
X90623000Y-26852000D01*
X90623000Y-28326250D01*
X90781750Y-28485000D01*
X90881361Y-28474404D01*
X91000652Y-28436779D01*
X91110311Y-28376604D01*
X91206123Y-28296193D01*
X91284406Y-28198634D01*
X91340123Y-28091578D01*
X91494866Y-28280134D01*
X91720986Y-28465706D01*
X91978966Y-28603599D01*
X92258889Y-28688513D01*
X92550000Y-28717185D01*
X92841110Y-28688513D01*
X93121033Y-28603599D01*
X93379013Y-28465706D01*
X93605134Y-28280134D01*
X93790706Y-28054014D01*
X93928599Y-27796034D01*
X94013513Y-27516111D01*
X94035000Y-27297950D01*
X94035000Y-26152050D01*
X94013513Y-25933889D01*
X93928599Y-25653966D01*
X93790706Y-25395986D01*
X93605134Y-25169866D01*
X93379014Y-24984294D01*
X93121034Y-24846401D01*
X92841111Y-24761487D01*
X92550000Y-24732815D01*
X92258890Y-24761487D01*
X91978967Y-24846401D01*
X91720987Y-24984294D01*
X91494867Y-25169866D01*
X91340123Y-25358421D01*
X91284406Y-25251366D01*
X91206123Y-25153807D01*
X91110311Y-25073396D01*
X91000652Y-25013221D01*
X90881361Y-24975596D01*
X90781750Y-24965000D01*
X90623000Y-25123750D01*
X90377000Y-25123750D01*
X90218250Y-24965000D01*
X90118639Y-24975596D01*
X90099266Y-24981706D01*
X90074482Y-24974188D01*
X89950000Y-24961928D01*
X89450000Y-24961928D01*
X89325518Y-24974188D01*
X89300000Y-24981929D01*
X89274482Y-24974188D01*
X89150000Y-24961928D01*
X88650000Y-24961928D01*
X88525518Y-24974188D01*
X88500000Y-24981929D01*
X88474482Y-24974188D01*
X88350000Y-24961928D01*
X87850000Y-24961928D01*
X87725518Y-24974188D01*
X87700000Y-24981929D01*
X87674482Y-24974188D01*
X87550000Y-24961928D01*
X87050000Y-24961928D01*
X86925518Y-24974188D01*
X86805820Y-25010498D01*
X86695506Y-25069463D01*
X86598815Y-25148815D01*
X86519463Y-25245506D01*
X86460498Y-25355820D01*
X86459754Y-25358271D01*
X86305134Y-25169866D01*
X86079014Y-24984294D01*
X85821034Y-24846401D01*
X85541111Y-24761487D01*
X85250000Y-24732815D01*
X84958890Y-24761487D01*
X84678967Y-24846401D01*
X84420987Y-24984294D01*
X84194867Y-25169866D01*
X84009294Y-25395986D01*
X83871401Y-25653966D01*
X83786487Y-25933889D01*
X83765000Y-26152050D01*
X83765000Y-27297949D01*
X83786487Y-27516110D01*
X83871401Y-27796033D01*
X84009294Y-28054013D01*
X84194866Y-28280134D01*
X84420986Y-28465706D01*
X84678966Y-28603599D01*
X84958889Y-28688513D01*
X85250000Y-28717185D01*
X85541110Y-28688513D01*
X85733379Y-28630189D01*
X84376216Y-29987352D01*
X84344709Y-30013209D01*
X84275464Y-30097585D01*
X84241551Y-30138908D01*
X84224530Y-30170752D01*
X84164897Y-30282317D01*
X84117694Y-30437925D01*
X84107380Y-30542652D01*
X84101756Y-30599750D01*
X84105750Y-30640301D01*
X84105751Y-36256007D01*
X83966400Y-36298278D01*
X83812864Y-36380345D01*
X83678288Y-36490788D01*
X83567845Y-36625364D01*
X83485778Y-36778900D01*
X83435242Y-36945496D01*
X83418178Y-37118750D01*
X83418178Y-37868750D01*
X83435242Y-38042004D01*
X83485778Y-38208600D01*
X83567845Y-38362136D01*
X83678288Y-38496712D01*
X83812864Y-38607155D01*
X83966400Y-38689222D01*
X84132996Y-38739758D01*
X84306250Y-38756822D01*
X85556250Y-38756822D01*
X85729504Y-38739758D01*
X85896100Y-38689222D01*
X86049636Y-38607155D01*
X86184212Y-38496712D01*
X86294655Y-38362136D01*
X86376722Y-38208600D01*
X86427258Y-38042004D01*
X86444322Y-37868750D01*
X86444322Y-37118750D01*
X86427258Y-36945496D01*
X86376722Y-36778900D01*
X86294655Y-36625364D01*
X86184212Y-36490788D01*
X86049636Y-36380345D01*
X85896100Y-36298278D01*
X85756750Y-36256007D01*
X85756750Y-30941682D01*
X87338000Y-29360432D01*
X87338001Y-32068178D01*
X86856250Y-32068178D01*
X86684215Y-32085122D01*
X86518791Y-32135303D01*
X86366336Y-32216792D01*
X86232708Y-32326458D01*
X86123042Y-32460086D01*
X86041553Y-32612541D01*
X85991372Y-32777965D01*
X85974428Y-32950000D01*
X85974428Y-33437500D01*
X85991372Y-33609535D01*
X86041553Y-33774959D01*
X86123042Y-33927414D01*
X86232708Y-34061042D01*
X86318256Y-34131250D01*
X86232708Y-34201458D01*
X86123042Y-34335086D01*
X86041553Y-34487541D01*
X85991372Y-34652965D01*
X85974428Y-34825000D01*
X85974428Y-35312500D01*
X85991372Y-35484535D01*
X86041553Y-35649959D01*
X86123042Y-35802414D01*
X86232708Y-35936042D01*
X86366336Y-36045708D01*
X86518791Y-36127197D01*
X86684215Y-36177378D01*
X86856250Y-36194322D01*
X87360442Y-36194322D01*
X88190970Y-37024851D01*
X88214828Y-37053922D01*
X88243898Y-37077779D01*
X88330857Y-37149145D01*
X88359117Y-37164250D01*
X88463235Y-37219902D01*
X88606872Y-37263474D01*
X88718824Y-37274500D01*
X88718827Y-37274500D01*
X88756250Y-37278186D01*
X88793673Y-37274500D01*
X90171870Y-37274500D01*
X94684720Y-41787351D01*
X94708578Y-41816422D01*
X94781898Y-41876594D01*
X95505150Y-42599846D01*
X95529012Y-42628922D01*
X95568129Y-42661024D01*
X95599781Y-42687000D01*
X88491934Y-42687000D01*
X86444322Y-40639389D01*
X86444322Y-39918750D01*
X86427258Y-39745496D01*
X86376722Y-39578900D01*
X86294655Y-39425364D01*
X86184212Y-39290788D01*
X86049636Y-39180345D01*
X85896100Y-39098278D01*
X85729504Y-39047742D01*
X85556250Y-39030678D01*
X84306250Y-39030678D01*
X84132996Y-39047742D01*
X83966400Y-39098278D01*
X83812864Y-39180345D01*
X83678288Y-39290788D01*
X83567845Y-39425364D01*
X83485778Y-39578900D01*
X83435242Y-39745496D01*
X83418178Y-39918750D01*
X83418178Y-40668750D01*
X83435242Y-40842004D01*
X83485778Y-41008600D01*
X83567845Y-41162136D01*
X83678288Y-41296712D01*
X83812864Y-41407155D01*
X83966400Y-41489222D01*
X84132996Y-41539758D01*
X84306250Y-41556822D01*
X85026890Y-41556822D01*
X87537611Y-44067545D01*
X87563459Y-44099041D01*
X87594955Y-44124889D01*
X87594958Y-44124892D01*
X87689157Y-44202199D01*
X87785929Y-44253925D01*
X87832566Y-44278853D01*
X87988174Y-44326056D01*
X88109447Y-44338000D01*
X88109449Y-44338000D01*
X88150000Y-44341994D01*
X88190550Y-44338000D01*
X95010751Y-44338000D01*
X95008750Y-44348061D01*
X95008750Y-44551939D01*
X95048524Y-44751898D01*
X95126545Y-44940256D01*
X95239813Y-45109774D01*
X95383976Y-45253937D01*
X95553494Y-45367205D01*
X95741852Y-45445226D01*
X95941811Y-45485000D01*
X96145689Y-45485000D01*
X96296250Y-45455052D01*
X96296250Y-45514502D01*
X96454998Y-45514502D01*
X96296250Y-45673250D01*
X96293178Y-45875000D01*
X96305438Y-45999482D01*
X96341748Y-46119180D01*
X96400713Y-46229494D01*
X96480065Y-46326185D01*
X96576756Y-46405537D01*
X96687070Y-46464502D01*
X96806768Y-46500812D01*
X96931250Y-46513072D01*
X97345500Y-46510000D01*
X97504250Y-46351250D01*
X97504250Y-45514500D01*
X97758250Y-45514500D01*
X97758250Y-46351250D01*
X97917000Y-46510000D01*
X98331250Y-46513072D01*
X98455732Y-46500812D01*
X98575430Y-46464502D01*
X98685744Y-46405537D01*
X98782435Y-46326185D01*
X98861787Y-46229494D01*
X98920752Y-46119180D01*
X98957062Y-45999482D01*
X98962550Y-45943750D01*
X99536928Y-45943750D01*
X99549188Y-46068232D01*
X99585498Y-46187930D01*
X99644463Y-46298244D01*
X99723815Y-46394935D01*
X99820506Y-46474287D01*
X99930820Y-46533252D01*
X100050518Y-46569562D01*
X100175000Y-46581822D01*
X100376750Y-46578750D01*
X100535500Y-46420000D01*
X100535500Y-45370750D01*
X99698750Y-45370750D01*
X99540000Y-45529500D01*
X99536928Y-45943750D01*
X98962550Y-45943750D01*
X98969322Y-45875000D01*
X98966250Y-45673250D01*
X98807500Y-45514500D01*
X97758250Y-45514500D01*
X97504250Y-45514500D01*
X97484250Y-45514500D01*
X97484250Y-45260500D01*
X97504250Y-45260500D01*
X97504250Y-45240500D01*
X97758250Y-45240500D01*
X97758250Y-45260500D01*
X98807500Y-45260500D01*
X98966250Y-45101750D01*
X98969322Y-44900000D01*
X98957062Y-44775518D01*
X98920752Y-44655820D01*
X98918618Y-44651827D01*
X99116811Y-44691250D01*
X99320689Y-44691250D01*
X99520648Y-44651476D01*
X99537675Y-44644423D01*
X99540000Y-44958000D01*
X99698750Y-45116750D01*
X100535500Y-45116750D01*
X100535500Y-44067500D01*
X100376750Y-43908750D01*
X100224264Y-43906428D01*
X100253750Y-43758189D01*
X100253750Y-43554311D01*
X100213976Y-43354352D01*
X100135955Y-43165994D01*
X100022687Y-42996476D01*
X99878524Y-42852313D01*
X99874314Y-42849500D01*
X101358750Y-42849500D01*
X101358750Y-42964439D01*
X101398524Y-43164398D01*
X101476545Y-43352756D01*
X101589813Y-43522274D01*
X101631751Y-43564212D01*
X101631750Y-44129809D01*
X101601185Y-44092565D01*
X101504494Y-44013213D01*
X101394180Y-43954248D01*
X101274482Y-43917938D01*
X101150000Y-43905678D01*
X100948250Y-43908750D01*
X100789500Y-44067500D01*
X100789500Y-45116750D01*
X100809500Y-45116750D01*
X100809500Y-45370750D01*
X100789500Y-45370750D01*
X100789500Y-46420000D01*
X100948250Y-46578750D01*
X101150000Y-46581822D01*
X101274482Y-46569562D01*
X101394180Y-46533252D01*
X101504494Y-46474287D01*
X101601185Y-46394935D01*
X101664992Y-46317186D01*
X101670208Y-46323542D01*
X101803836Y-46433208D01*
X101956291Y-46514697D01*
X102121715Y-46564878D01*
X102293750Y-46581822D01*
X102781250Y-46581822D01*
X102953285Y-46564878D01*
X103118709Y-46514697D01*
X103271164Y-46433208D01*
X103404792Y-46323542D01*
X103514458Y-46189914D01*
X103595947Y-46037459D01*
X103646128Y-45872035D01*
X103663072Y-45700000D01*
X103663072Y-44787500D01*
X103646128Y-44615465D01*
X103638337Y-44589783D01*
X103677756Y-44573455D01*
X103847274Y-44460187D01*
X103991437Y-44316024D01*
X104078941Y-44185065D01*
X104085498Y-44206680D01*
X104144463Y-44316994D01*
X104223815Y-44413685D01*
X104320506Y-44493037D01*
X104430820Y-44552002D01*
X104550518Y-44588312D01*
X104675000Y-44600572D01*
X106175000Y-44600572D01*
X106215962Y-44596538D01*
X106211928Y-44637500D01*
X106211928Y-46137500D01*
X106224188Y-46261982D01*
X106260498Y-46381680D01*
X106299500Y-46454647D01*
X106299501Y-51283066D01*
X106222495Y-51360072D01*
X106060602Y-51392274D01*
X105872244Y-51470295D01*
X105702726Y-51583563D01*
X105558563Y-51727726D01*
X105445295Y-51897244D01*
X105367274Y-52085602D01*
X105327500Y-52285561D01*
X105327500Y-52489439D01*
X105367274Y-52689398D01*
X105445295Y-52877756D01*
X105558563Y-53047274D01*
X105702726Y-53191437D01*
X105872244Y-53304705D01*
X106060602Y-53382726D01*
X106260561Y-53422500D01*
X106464439Y-53422500D01*
X106664398Y-53382726D01*
X106852756Y-53304705D01*
X107022274Y-53191437D01*
X107166437Y-53047274D01*
X107279705Y-52877756D01*
X107357726Y-52689398D01*
X107389928Y-52527505D01*
X107680044Y-52237389D01*
X107711541Y-52211541D01*
X107737389Y-52180045D01*
X107737392Y-52180042D01*
X107814699Y-52085843D01*
X107891353Y-51942434D01*
X107905545Y-51895648D01*
X107938556Y-51786826D01*
X107950500Y-51665553D01*
X107950500Y-51665551D01*
X107954494Y-51625000D01*
X107950500Y-51584450D01*
X107950500Y-50706250D01*
X112380678Y-50706250D01*
X112392938Y-50830732D01*
X112429248Y-50950430D01*
X112488213Y-51060744D01*
X112567565Y-51157435D01*
X112664256Y-51236787D01*
X112774570Y-51295752D01*
X112894268Y-51332062D01*
X113018750Y-51344322D01*
X113220500Y-51341250D01*
X113379250Y-51182500D01*
X113379250Y-50133250D01*
X112542500Y-50133250D01*
X112383750Y-50292000D01*
X112380678Y-50706250D01*
X107950500Y-50706250D01*
X107950500Y-49306250D01*
X112380678Y-49306250D01*
X112383750Y-49720500D01*
X112542500Y-49879250D01*
X113379250Y-49879250D01*
X113379250Y-48830000D01*
X113220500Y-48671250D01*
X113018750Y-48668178D01*
X112894268Y-48680438D01*
X112774570Y-48716748D01*
X112664256Y-48775713D01*
X112567565Y-48855065D01*
X112488213Y-48951756D01*
X112429248Y-49062070D01*
X112392938Y-49181768D01*
X112380678Y-49306250D01*
X107950500Y-49306250D01*
X107950500Y-46772500D01*
X108052002Y-46772500D01*
X108052002Y-46632334D01*
X108095506Y-46668037D01*
X108118667Y-46680417D01*
X108210750Y-46772500D01*
X108324337Y-46762954D01*
X108325518Y-46763312D01*
X108450000Y-46775572D01*
X109000000Y-46775572D01*
X109124482Y-46763312D01*
X109125000Y-46763155D01*
X109125518Y-46763312D01*
X109250000Y-46775572D01*
X109800000Y-46775572D01*
X109924482Y-46763312D01*
X109925000Y-46763155D01*
X109925518Y-46763312D01*
X110050000Y-46775572D01*
X110600000Y-46775572D01*
X110724482Y-46763312D01*
X110725000Y-46763155D01*
X110725518Y-46763312D01*
X110850000Y-46775572D01*
X111400000Y-46775572D01*
X111524482Y-46763312D01*
X111525000Y-46763155D01*
X111525518Y-46763312D01*
X111650000Y-46775572D01*
X112200000Y-46775572D01*
X112324482Y-46763312D01*
X112325000Y-46763155D01*
X112325518Y-46763312D01*
X112450000Y-46775572D01*
X113000000Y-46775572D01*
X113124482Y-46763312D01*
X113125000Y-46763155D01*
X113125518Y-46763312D01*
X113250000Y-46775572D01*
X113800000Y-46775572D01*
X113924482Y-46763312D01*
X113925663Y-46762954D01*
X114039250Y-46772500D01*
X114131333Y-46680417D01*
X114154494Y-46668037D01*
X114251185Y-46588685D01*
X114325000Y-46498741D01*
X114398815Y-46588685D01*
X114495506Y-46668037D01*
X114518667Y-46680417D01*
X114555751Y-46717501D01*
X114555750Y-48892160D01*
X114513958Y-48926458D01*
X114508742Y-48932814D01*
X114444935Y-48855065D01*
X114348244Y-48775713D01*
X114237930Y-48716748D01*
X114118232Y-48680438D01*
X113993750Y-48668178D01*
X113792000Y-48671250D01*
X113633250Y-48830000D01*
X113633250Y-49879250D01*
X113653250Y-49879250D01*
X113653250Y-50133250D01*
X113633250Y-50133250D01*
X113633250Y-51182500D01*
X113792000Y-51341250D01*
X113993750Y-51344322D01*
X114118232Y-51332062D01*
X114237930Y-51295752D01*
X114348244Y-51236787D01*
X114444935Y-51157435D01*
X114508742Y-51079686D01*
X114513958Y-51086042D01*
X114647586Y-51195708D01*
X114800041Y-51277197D01*
X114965465Y-51327378D01*
X115137500Y-51344322D01*
X115264389Y-51344322D01*
X115653822Y-51733755D01*
X115686024Y-51895648D01*
X115764045Y-52084006D01*
X115877313Y-52253524D01*
X116021476Y-52397687D01*
X116190994Y-52510955D01*
X116379352Y-52588976D01*
X116579311Y-52628750D01*
X116783189Y-52628750D01*
X116983148Y-52588976D01*
X117171506Y-52510955D01*
X117341024Y-52397687D01*
X117485187Y-52253524D01*
X117598455Y-52084006D01*
X117676476Y-51895648D01*
X117716250Y-51695689D01*
X117716250Y-51491811D01*
X117676476Y-51291852D01*
X117598455Y-51103494D01*
X117485187Y-50933976D01*
X117341024Y-50789813D01*
X117171506Y-50676545D01*
X116983148Y-50598524D01*
X116821255Y-50566322D01*
X116506822Y-50251889D01*
X116506822Y-49550000D01*
X116489878Y-49377965D01*
X116439697Y-49212541D01*
X116358208Y-49060086D01*
X116248542Y-48926458D01*
X116206750Y-48892160D01*
X116206750Y-46668750D01*
X118518178Y-46668750D01*
X118530438Y-46793232D01*
X118566748Y-46912930D01*
X118625713Y-47023244D01*
X118705065Y-47119935D01*
X118801756Y-47199287D01*
X118912070Y-47258252D01*
X119031768Y-47294562D01*
X119156250Y-47306822D01*
X119570500Y-47303750D01*
X119729250Y-47145000D01*
X119729250Y-46308250D01*
X119983250Y-46308250D01*
X119983250Y-47145000D01*
X120142000Y-47303750D01*
X120556250Y-47306822D01*
X120680732Y-47294562D01*
X120800430Y-47258252D01*
X120910744Y-47199287D01*
X121007435Y-47119935D01*
X121086787Y-47023244D01*
X121145752Y-46912930D01*
X121182062Y-46793232D01*
X121194322Y-46668750D01*
X121191250Y-46467000D01*
X121032500Y-46308250D01*
X119983250Y-46308250D01*
X119729250Y-46308250D01*
X118680000Y-46308250D01*
X118521250Y-46467000D01*
X118518178Y-46668750D01*
X116206750Y-46668750D01*
X116206750Y-45684300D01*
X116210744Y-45643749D01*
X116200207Y-45536765D01*
X116194806Y-45481924D01*
X116147603Y-45326316D01*
X116070949Y-45182908D01*
X116038072Y-45142847D01*
X116038072Y-44637500D01*
X116034038Y-44596538D01*
X116075000Y-44600572D01*
X116166269Y-44600572D01*
X116188355Y-44641892D01*
X116199786Y-44655820D01*
X116283578Y-44757922D01*
X116312656Y-44781786D01*
X116349463Y-44818593D01*
X116373328Y-44847672D01*
X116489358Y-44942895D01*
X116621735Y-45013652D01*
X116765372Y-45057224D01*
X116877324Y-45068250D01*
X116877327Y-45068250D01*
X116914750Y-45071936D01*
X116952173Y-45068250D01*
X118690047Y-45068250D01*
X118776458Y-45173542D01*
X118782814Y-45178758D01*
X118705065Y-45242565D01*
X118625713Y-45339256D01*
X118566748Y-45449570D01*
X118530438Y-45569268D01*
X118518178Y-45693750D01*
X118521250Y-45895500D01*
X118680000Y-46054250D01*
X119729250Y-46054250D01*
X119729250Y-46034250D01*
X119983250Y-46034250D01*
X119983250Y-46054250D01*
X121032500Y-46054250D01*
X121191250Y-45895500D01*
X121194322Y-45693750D01*
X121182062Y-45569268D01*
X121145752Y-45449570D01*
X121086787Y-45339256D01*
X121007435Y-45242565D01*
X120929686Y-45178758D01*
X120936042Y-45173542D01*
X121045708Y-45039914D01*
X121127197Y-44887459D01*
X121177378Y-44722035D01*
X121194322Y-44550000D01*
X121194322Y-44062500D01*
X121177378Y-43890465D01*
X121127197Y-43725041D01*
X121045708Y-43572586D01*
X120936042Y-43438958D01*
X120802414Y-43329292D01*
X120649959Y-43247803D01*
X120484535Y-43197622D01*
X120312500Y-43180678D01*
X119400000Y-43180678D01*
X119227965Y-43197622D01*
X119062541Y-43247803D01*
X118910086Y-43329292D01*
X118776458Y-43438958D01*
X118690047Y-43544250D01*
X118213072Y-43544250D01*
X118213072Y-43412500D01*
X118200812Y-43288018D01*
X118200655Y-43287500D01*
X118200812Y-43286982D01*
X118213072Y-43162500D01*
X118213072Y-42849500D01*
X125115620Y-42849500D01*
X126873000Y-44606880D01*
X126873000Y-58077500D01*
X81788529Y-58077500D01*
X81422540Y-58041614D01*
X81101538Y-57944698D01*
X80805475Y-57787279D01*
X80545627Y-57575351D01*
X80331894Y-57316992D01*
X80172412Y-57022036D01*
X80073257Y-56701719D01*
X80038918Y-56375000D01*
X82674428Y-56375000D01*
X82686688Y-56499482D01*
X82722998Y-56619180D01*
X82781963Y-56729494D01*
X82861315Y-56826185D01*
X82958006Y-56905537D01*
X83068320Y-56964502D01*
X83188018Y-57000812D01*
X83312500Y-57013072D01*
X83926750Y-57010000D01*
X84085500Y-56851250D01*
X84085500Y-55952000D01*
X84339500Y-55952000D01*
X84339500Y-56851250D01*
X84498250Y-57010000D01*
X85112500Y-57013072D01*
X85236982Y-57000812D01*
X85356680Y-56964502D01*
X85466994Y-56905537D01*
X85563685Y-56826185D01*
X85643037Y-56729494D01*
X85702002Y-56619180D01*
X85738312Y-56499482D01*
X85750572Y-56375000D01*
X85747500Y-56110750D01*
X85588750Y-55952000D01*
X84339500Y-55952000D01*
X84085500Y-55952000D01*
X82836250Y-55952000D01*
X82677500Y-56110750D01*
X82674428Y-56375000D01*
X80038918Y-56375000D01*
X80035000Y-56337729D01*
X80035000Y-55275000D01*
X82674428Y-55275000D01*
X82677500Y-55539250D01*
X82836250Y-55698000D01*
X84085500Y-55698000D01*
X84085500Y-54798750D01*
X84339500Y-54798750D01*
X84339500Y-55698000D01*
X85588750Y-55698000D01*
X85747500Y-55539250D01*
X85750572Y-55275000D01*
X88874428Y-55275000D01*
X88874428Y-56375000D01*
X88886688Y-56499482D01*
X88922998Y-56619180D01*
X88981963Y-56729494D01*
X89061315Y-56826185D01*
X89158006Y-56905537D01*
X89268320Y-56964502D01*
X89388018Y-57000812D01*
X89512500Y-57013072D01*
X91312500Y-57013072D01*
X91436982Y-57000812D01*
X91556680Y-56964502D01*
X91666994Y-56905537D01*
X91763685Y-56826185D01*
X91843037Y-56729494D01*
X91902002Y-56619180D01*
X91938312Y-56499482D01*
X91950572Y-56375000D01*
X91950572Y-55275000D01*
X91938312Y-55150518D01*
X91902002Y-55030820D01*
X91843037Y-54920506D01*
X91763685Y-54823815D01*
X91666994Y-54744463D01*
X91556680Y-54685498D01*
X91436982Y-54649188D01*
X91312500Y-54636928D01*
X89512500Y-54636928D01*
X89388018Y-54649188D01*
X89268320Y-54685498D01*
X89158006Y-54744463D01*
X89061315Y-54823815D01*
X88981963Y-54920506D01*
X88922998Y-55030820D01*
X88886688Y-55150518D01*
X88874428Y-55275000D01*
X85750572Y-55275000D01*
X85738312Y-55150518D01*
X85702002Y-55030820D01*
X85643037Y-54920506D01*
X85563685Y-54823815D01*
X85466994Y-54744463D01*
X85356680Y-54685498D01*
X85236982Y-54649188D01*
X85112500Y-54636928D01*
X84498250Y-54640000D01*
X84339500Y-54798750D01*
X84085500Y-54798750D01*
X83926750Y-54640000D01*
X83312500Y-54636928D01*
X83188018Y-54649188D01*
X83068320Y-54685498D01*
X82958006Y-54744463D01*
X82861315Y-54823815D01*
X82781963Y-54920506D01*
X82722998Y-55030820D01*
X82686688Y-55150518D01*
X82674428Y-55275000D01*
X80035000Y-55275000D01*
X80035000Y-51575000D01*
X82674428Y-51575000D01*
X82674428Y-52675000D01*
X82686688Y-52799482D01*
X82722998Y-52919180D01*
X82781963Y-53029494D01*
X82861315Y-53126185D01*
X82958006Y-53205537D01*
X83068320Y-53264502D01*
X83188018Y-53300812D01*
X83312500Y-53313072D01*
X85112500Y-53313072D01*
X85236982Y-53300812D01*
X85356680Y-53264502D01*
X85466994Y-53205537D01*
X85563685Y-53126185D01*
X85643037Y-53029494D01*
X85702002Y-52919180D01*
X85738312Y-52799482D01*
X85750572Y-52675000D01*
X85750572Y-51575000D01*
X88874428Y-51575000D01*
X88874428Y-52675000D01*
X88886688Y-52799482D01*
X88922998Y-52919180D01*
X88981963Y-53029494D01*
X89061315Y-53126185D01*
X89158006Y-53205537D01*
X89268320Y-53264502D01*
X89388018Y-53300812D01*
X89512500Y-53313072D01*
X91312500Y-53313072D01*
X91436982Y-53300812D01*
X91556680Y-53264502D01*
X91666994Y-53205537D01*
X91763685Y-53126185D01*
X91843037Y-53029494D01*
X91902002Y-52919180D01*
X91911764Y-52887000D01*
X92300077Y-52887000D01*
X92337500Y-52890686D01*
X92374923Y-52887000D01*
X92374926Y-52887000D01*
X92486878Y-52875974D01*
X92630515Y-52832402D01*
X92762892Y-52761645D01*
X92878922Y-52666422D01*
X92902783Y-52637347D01*
X92911380Y-52628750D01*
X92970689Y-52628750D01*
X93170648Y-52588976D01*
X93359006Y-52510955D01*
X93528524Y-52397687D01*
X93672687Y-52253524D01*
X93785955Y-52084006D01*
X93863976Y-51895648D01*
X93903750Y-51695689D01*
X93903750Y-51491811D01*
X93863976Y-51291852D01*
X93785955Y-51103494D01*
X93672687Y-50933976D01*
X93528524Y-50789813D01*
X93359006Y-50676545D01*
X93170648Y-50598524D01*
X92970689Y-50558750D01*
X92766811Y-50558750D01*
X92566852Y-50598524D01*
X92378494Y-50676545D01*
X92208976Y-50789813D01*
X92064813Y-50933976D01*
X91951545Y-51103494D01*
X91876863Y-51283790D01*
X91843037Y-51220506D01*
X91763685Y-51123815D01*
X91666994Y-51044463D01*
X91556680Y-50985498D01*
X91436982Y-50949188D01*
X91312500Y-50936928D01*
X89512500Y-50936928D01*
X89388018Y-50949188D01*
X89268320Y-50985498D01*
X89158006Y-51044463D01*
X89061315Y-51123815D01*
X88981963Y-51220506D01*
X88922998Y-51330820D01*
X88886688Y-51450518D01*
X88874428Y-51575000D01*
X85750572Y-51575000D01*
X85738312Y-51450518D01*
X85702002Y-51330820D01*
X85643037Y-51220506D01*
X85563685Y-51123815D01*
X85466994Y-51044463D01*
X85356680Y-50985498D01*
X85236982Y-50949188D01*
X85112500Y-50936928D01*
X83312500Y-50936928D01*
X83188018Y-50949188D01*
X83068320Y-50985498D01*
X82958006Y-51044463D01*
X82861315Y-51123815D01*
X82781963Y-51220506D01*
X82722998Y-51330820D01*
X82686688Y-51450518D01*
X82674428Y-51575000D01*
X80035000Y-51575000D01*
X80035000Y-23051029D01*
X80070886Y-22685040D01*
X80167801Y-22364040D01*
X80325221Y-22067975D01*
X80537149Y-21808127D01*
X80795510Y-21594392D01*
X81090464Y-21434912D01*
X81410782Y-21335756D01*
X81774762Y-21297500D01*
X83827860Y-21297500D01*
X83786487Y-21433889D01*
X83786487Y-21433889D01*
G37*
X83786487Y-21433889D02*
X83765000Y-21652050D01*
X83765000Y-22797949D01*
X83786487Y-23016110D01*
X83871401Y-23296033D01*
X84009294Y-23554013D01*
X84194866Y-23780134D01*
X84420986Y-23965706D01*
X84678966Y-24103599D01*
X84958889Y-24188513D01*
X85250000Y-24217185D01*
X85541110Y-24188513D01*
X85821033Y-24103599D01*
X86079013Y-23965706D01*
X86305134Y-23780134D01*
X86490706Y-23554014D01*
X86628599Y-23296034D01*
X86713513Y-23016111D01*
X86735000Y-22797950D01*
X86735000Y-21652050D01*
X86713513Y-21433889D01*
X86672140Y-21297500D01*
X91127860Y-21297500D01*
X91086487Y-21433889D01*
X91065000Y-21652050D01*
X91065000Y-22797949D01*
X91086487Y-23016110D01*
X91171401Y-23296033D01*
X91309294Y-23554013D01*
X91494866Y-23780134D01*
X91720986Y-23965706D01*
X91978966Y-24103599D01*
X92258889Y-24188513D01*
X92550000Y-24217185D01*
X92841110Y-24188513D01*
X93121033Y-24103599D01*
X93379013Y-23965706D01*
X93605134Y-23780134D01*
X93790706Y-23554014D01*
X93928599Y-23296034D01*
X94013513Y-23016111D01*
X94035000Y-22797950D01*
X94035000Y-21652050D01*
X94013513Y-21433889D01*
X93972140Y-21297500D01*
X126873000Y-21297500D01*
X126873000Y-38925500D01*
X118213072Y-38925500D01*
X118213072Y-38612500D01*
X118200812Y-38488018D01*
X118200655Y-38487500D01*
X118200812Y-38486982D01*
X118213072Y-38362500D01*
X118213072Y-37812500D01*
X118200812Y-37688018D01*
X118200655Y-37687500D01*
X118200812Y-37686982D01*
X118213072Y-37562500D01*
X118213072Y-37313000D01*
X119349009Y-37313000D01*
X119389158Y-37345949D01*
X119456195Y-37381781D01*
X119460542Y-37389914D01*
X119570208Y-37523542D01*
X119703836Y-37633208D01*
X119856291Y-37714697D01*
X120021715Y-37764878D01*
X120193750Y-37781822D01*
X121106250Y-37781822D01*
X121278285Y-37764878D01*
X121443709Y-37714697D01*
X121596164Y-37633208D01*
X121729792Y-37523542D01*
X121764090Y-37481750D01*
X123598382Y-37481750D01*
X123623524Y-37608148D01*
X123701545Y-37796506D01*
X123814813Y-37966024D01*
X123958976Y-38110187D01*
X124128494Y-38223455D01*
X124316852Y-38301476D01*
X124516811Y-38341250D01*
X124720689Y-38341250D01*
X124920648Y-38301476D01*
X125109006Y-38223455D01*
X125278524Y-38110187D01*
X125422687Y-37966024D01*
X125535955Y-37796506D01*
X125613976Y-37608148D01*
X125653750Y-37408189D01*
X125653750Y-37204311D01*
X125613976Y-37004352D01*
X125535955Y-36815994D01*
X125422687Y-36646476D01*
X125278524Y-36502313D01*
X125109006Y-36389045D01*
X124920648Y-36311024D01*
X124758754Y-36278822D01*
X124581147Y-36101215D01*
X124555291Y-36069709D01*
X124429592Y-35966551D01*
X124286184Y-35889897D01*
X124130576Y-35842694D01*
X124009303Y-35830750D01*
X124009300Y-35830750D01*
X123968750Y-35826756D01*
X123928200Y-35830750D01*
X121764090Y-35830750D01*
X121729792Y-35788958D01*
X121723436Y-35783742D01*
X121801185Y-35719935D01*
X121880537Y-35623244D01*
X121939502Y-35512930D01*
X121975812Y-35393232D01*
X121988072Y-35268750D01*
X121985000Y-35067000D01*
X121826250Y-34908250D01*
X120777000Y-34908250D01*
X120777000Y-34928250D01*
X120523000Y-34928250D01*
X120523000Y-34908250D01*
X119473750Y-34908250D01*
X119315000Y-35067000D01*
X119311928Y-35268750D01*
X119324188Y-35393232D01*
X119360498Y-35512930D01*
X119419463Y-35623244D01*
X119451269Y-35662000D01*
X118210000Y-35662000D01*
X118210000Y-35560498D01*
X118051252Y-35560498D01*
X118210000Y-35401750D01*
X118200177Y-35284869D01*
X118163265Y-35165355D01*
X118103746Y-35055339D01*
X118023908Y-34959049D01*
X117926818Y-34880184D01*
X117816208Y-34821776D01*
X117696329Y-34786070D01*
X117571787Y-34774436D01*
X117110750Y-34777500D01*
X116952000Y-34936250D01*
X116952000Y-35560500D01*
X116972000Y-35560500D01*
X116972000Y-35574428D01*
X116075000Y-35574428D01*
X115950518Y-35586688D01*
X115830820Y-35622998D01*
X115720506Y-35681963D01*
X115623815Y-35761315D01*
X115544463Y-35858006D01*
X115532083Y-35881167D01*
X115440000Y-35973250D01*
X115449546Y-36086837D01*
X115449188Y-36088018D01*
X115436928Y-36212500D01*
X115436928Y-36762500D01*
X115449188Y-36886982D01*
X115449345Y-36887500D01*
X115449188Y-36888018D01*
X115436928Y-37012500D01*
X115436928Y-37562500D01*
X115449188Y-37686982D01*
X115449345Y-37687500D01*
X115449188Y-37688018D01*
X115436928Y-37812500D01*
X115436928Y-38362500D01*
X115449188Y-38486982D01*
X115449345Y-38487500D01*
X115449188Y-38488018D01*
X115436928Y-38612500D01*
X115436928Y-39162500D01*
X115449188Y-39286982D01*
X115449345Y-39287500D01*
X115449188Y-39288018D01*
X115436928Y-39412500D01*
X115436928Y-39962500D01*
X115449188Y-40086982D01*
X115449345Y-40087500D01*
X115449188Y-40088018D01*
X115436928Y-40212500D01*
X115436928Y-40762500D01*
X115449188Y-40886982D01*
X115449345Y-40887500D01*
X115449188Y-40888018D01*
X115436928Y-41012500D01*
X115436928Y-41562500D01*
X115449188Y-41686982D01*
X115449345Y-41687500D01*
X115449188Y-41688018D01*
X115436928Y-41812500D01*
X115436928Y-42362500D01*
X115449188Y-42486982D01*
X115449345Y-42487500D01*
X115449188Y-42488018D01*
X115436928Y-42612500D01*
X115436928Y-43162500D01*
X115449188Y-43286982D01*
X115449345Y-43287500D01*
X115449188Y-43288018D01*
X115436928Y-43412500D01*
X115436928Y-43962500D01*
X115440962Y-44003462D01*
X115400000Y-43999428D01*
X114850000Y-43999428D01*
X114725518Y-44011688D01*
X114724337Y-44012046D01*
X114610750Y-44002500D01*
X114518667Y-44094583D01*
X114495506Y-44106963D01*
X114398815Y-44186315D01*
X114325000Y-44276259D01*
X114251185Y-44186315D01*
X114154494Y-44106963D01*
X114131333Y-44094583D01*
X114039250Y-44002500D01*
X113925663Y-44012046D01*
X113924482Y-44011688D01*
X113800000Y-43999428D01*
X113250000Y-43999428D01*
X113125518Y-44011688D01*
X113125000Y-44011845D01*
X113124482Y-44011688D01*
X113000000Y-43999428D01*
X112450000Y-43999428D01*
X112325518Y-44011688D01*
X112325000Y-44011845D01*
X112324482Y-44011688D01*
X112200000Y-43999428D01*
X111650000Y-43999428D01*
X111525518Y-44011688D01*
X111525000Y-44011845D01*
X111524482Y-44011688D01*
X111400000Y-43999428D01*
X110850000Y-43999428D01*
X110725518Y-44011688D01*
X110725000Y-44011845D01*
X110724482Y-44011688D01*
X110600000Y-43999428D01*
X110050000Y-43999428D01*
X109925518Y-44011688D01*
X109925000Y-44011845D01*
X109924482Y-44011688D01*
X109800000Y-43999428D01*
X109250000Y-43999428D01*
X109125518Y-44011688D01*
X109125000Y-44011845D01*
X109124482Y-44011688D01*
X109000000Y-43999428D01*
X108450000Y-43999428D01*
X108325518Y-44011688D01*
X108324337Y-44012046D01*
X108210750Y-44002500D01*
X108118667Y-44094583D01*
X108095506Y-44106963D01*
X107998815Y-44186315D01*
X107925000Y-44276259D01*
X107851185Y-44186315D01*
X107754494Y-44106963D01*
X107731333Y-44094583D01*
X107639250Y-44002500D01*
X107525663Y-44012046D01*
X107524482Y-44011688D01*
X107400000Y-43999428D01*
X106850000Y-43999428D01*
X106809038Y-44003462D01*
X106813072Y-43962500D01*
X106813072Y-43412500D01*
X106800812Y-43288018D01*
X106800655Y-43287500D01*
X106800812Y-43286982D01*
X106813072Y-43162500D01*
X106813072Y-42612500D01*
X106800812Y-42488018D01*
X106800655Y-42487500D01*
X106800812Y-42486982D01*
X106813072Y-42362500D01*
X106813072Y-41812500D01*
X106800812Y-41688018D01*
X106800655Y-41687500D01*
X106800812Y-41686982D01*
X106813072Y-41562500D01*
X106813072Y-41012500D01*
X106800812Y-40888018D01*
X106800454Y-40886837D01*
X106810000Y-40773250D01*
X106717917Y-40681167D01*
X106705537Y-40658006D01*
X106626185Y-40561315D01*
X106536241Y-40487500D01*
X106626185Y-40413685D01*
X106705537Y-40316994D01*
X106717917Y-40293833D01*
X106810000Y-40201750D01*
X106800454Y-40088163D01*
X106800812Y-40086982D01*
X106813072Y-39962500D01*
X106813072Y-39412500D01*
X106800812Y-39288018D01*
X106800655Y-39287500D01*
X106800812Y-39286982D01*
X106813072Y-39162500D01*
X106813072Y-38612500D01*
X106800812Y-38488018D01*
X106800655Y-38487500D01*
X106800812Y-38486982D01*
X106813072Y-38362500D01*
X106813072Y-37812500D01*
X106800812Y-37688018D01*
X106800655Y-37687500D01*
X106800812Y-37686982D01*
X106813072Y-37562500D01*
X106813072Y-37012500D01*
X106800812Y-36888018D01*
X106800655Y-36887500D01*
X106800812Y-36886982D01*
X106813072Y-36762500D01*
X106813072Y-36212500D01*
X106800812Y-36088018D01*
X106800655Y-36087500D01*
X106800812Y-36086982D01*
X106813072Y-35962500D01*
X106813072Y-35412500D01*
X106809038Y-35371538D01*
X106850000Y-35375572D01*
X107400000Y-35375572D01*
X107524482Y-35363312D01*
X107525000Y-35363155D01*
X107525518Y-35363312D01*
X107650000Y-35375572D01*
X108200000Y-35375572D01*
X108324482Y-35363312D01*
X108325000Y-35363155D01*
X108325518Y-35363312D01*
X108450000Y-35375572D01*
X109000000Y-35375572D01*
X109124482Y-35363312D01*
X109125663Y-35362954D01*
X109239250Y-35372500D01*
X109331333Y-35280417D01*
X109354494Y-35268037D01*
X109451185Y-35188685D01*
X109525000Y-35098741D01*
X109598815Y-35188685D01*
X109695506Y-35268037D01*
X109718667Y-35280417D01*
X109810750Y-35372500D01*
X109924337Y-35362954D01*
X109925518Y-35363312D01*
X110050000Y-35375572D01*
X110600000Y-35375572D01*
X110724482Y-35363312D01*
X110725000Y-35363155D01*
X110725518Y-35363312D01*
X110850000Y-35375572D01*
X111400000Y-35375572D01*
X111524482Y-35363312D01*
X111525000Y-35363155D01*
X111525518Y-35363312D01*
X111650000Y-35375572D01*
X112200000Y-35375572D01*
X112324482Y-35363312D01*
X112325000Y-35363155D01*
X112325518Y-35363312D01*
X112450000Y-35375572D01*
X113000000Y-35375572D01*
X113124482Y-35363312D01*
X113125000Y-35363155D01*
X113125518Y-35363312D01*
X113250000Y-35375572D01*
X113800000Y-35375572D01*
X113924482Y-35363312D01*
X113925000Y-35363155D01*
X113925518Y-35363312D01*
X114050000Y-35375572D01*
X114600000Y-35375572D01*
X114724482Y-35363312D01*
X114725000Y-35363155D01*
X114725518Y-35363312D01*
X114850000Y-35375572D01*
X115400000Y-35375572D01*
X115442552Y-35371381D01*
X115440000Y-35401750D01*
X115598750Y-35560500D01*
X116698000Y-35560500D01*
X116698000Y-34936250D01*
X116539250Y-34777500D01*
X116078213Y-34774436D01*
X116034028Y-34778564D01*
X116038072Y-34737500D01*
X116038072Y-34293750D01*
X119311928Y-34293750D01*
X119315000Y-34495500D01*
X119473750Y-34654250D01*
X120523000Y-34654250D01*
X120523000Y-33817500D01*
X120777000Y-33817500D01*
X120777000Y-34654250D01*
X121826250Y-34654250D01*
X121985000Y-34495500D01*
X121988072Y-34293750D01*
X121975812Y-34169268D01*
X121939502Y-34049570D01*
X121880537Y-33939256D01*
X121801185Y-33842565D01*
X121704494Y-33763213D01*
X121594180Y-33704248D01*
X121474482Y-33667938D01*
X121350000Y-33655678D01*
X120935750Y-33658750D01*
X120777000Y-33817500D01*
X120523000Y-33817500D01*
X120364250Y-33658750D01*
X119950000Y-33655678D01*
X119825518Y-33667938D01*
X119705820Y-33704248D01*
X119595506Y-33763213D01*
X119498815Y-33842565D01*
X119419463Y-33939256D01*
X119360498Y-34049570D01*
X119324188Y-34169268D01*
X119311928Y-34293750D01*
X116038072Y-34293750D01*
X116038072Y-33237500D01*
X116025812Y-33113018D01*
X115989502Y-32993320D01*
X115930537Y-32883006D01*
X115851185Y-32786315D01*
X115754494Y-32706963D01*
X115644180Y-32647998D01*
X115524482Y-32611688D01*
X115400000Y-32599428D01*
X114850000Y-32599428D01*
X114725518Y-32611688D01*
X114725000Y-32611845D01*
X114724482Y-32611688D01*
X114600000Y-32599428D01*
X114050000Y-32599428D01*
X113925518Y-32611688D01*
X113925000Y-32611845D01*
X113924482Y-32611688D01*
X113800000Y-32599428D01*
X113250000Y-32599428D01*
X113125518Y-32611688D01*
X113125000Y-32611845D01*
X113124482Y-32611688D01*
X113000000Y-32599428D01*
X112450000Y-32599428D01*
X112325518Y-32611688D01*
X112325000Y-32611845D01*
X112324482Y-32611688D01*
X112200000Y-32599428D01*
X111887000Y-32599428D01*
X111887000Y-32588380D01*
X114074846Y-30400534D01*
X114103922Y-30376672D01*
X114181358Y-30282316D01*
X114199145Y-30260643D01*
X114224495Y-30213216D01*
X114286982Y-30207062D01*
X114406680Y-30170752D01*
X114516994Y-30111787D01*
X114613685Y-30032435D01*
X114693037Y-29935744D01*
X114752002Y-29825430D01*
X114788312Y-29705732D01*
X114800572Y-29581250D01*
X114800572Y-29480750D01*
X115515047Y-29480750D01*
X115601458Y-29586042D01*
X115735086Y-29695708D01*
X115887541Y-29777197D01*
X116052965Y-29827378D01*
X116225000Y-29844322D01*
X117137500Y-29844322D01*
X117309535Y-29827378D01*
X117474959Y-29777197D01*
X117627414Y-29695708D01*
X117761042Y-29586042D01*
X117870708Y-29452414D01*
X117952197Y-29299959D01*
X118002378Y-29134535D01*
X118019322Y-28962500D01*
X118019322Y-28475000D01*
X118002378Y-28302965D01*
X117952197Y-28137541D01*
X117870708Y-27985086D01*
X117761042Y-27851458D01*
X117754686Y-27846242D01*
X117832435Y-27782435D01*
X117911787Y-27685744D01*
X117970752Y-27575430D01*
X118007062Y-27455732D01*
X118019322Y-27331250D01*
X118016250Y-27129500D01*
X117857500Y-26970750D01*
X116808250Y-26970750D01*
X116808250Y-26990750D01*
X116554250Y-26990750D01*
X116554250Y-26970750D01*
X115505000Y-26970750D01*
X115346250Y-27129500D01*
X115343178Y-27331250D01*
X115355438Y-27455732D01*
X115391748Y-27575430D01*
X115450713Y-27685744D01*
X115530065Y-27782435D01*
X115607814Y-27846242D01*
X115601458Y-27851458D01*
X115515047Y-27956750D01*
X114757972Y-27956750D01*
X114752002Y-27937070D01*
X114693037Y-27826756D01*
X114655691Y-27781250D01*
X114693037Y-27735744D01*
X114752002Y-27625430D01*
X114788312Y-27505732D01*
X114800572Y-27381250D01*
X114797500Y-26967000D01*
X114638750Y-26808250D01*
X113689500Y-26808250D01*
X113689500Y-26828250D01*
X113435500Y-26828250D01*
X113435500Y-26808250D01*
X113415500Y-26808250D01*
X113415500Y-26554250D01*
X113435500Y-26554250D01*
X113435500Y-25505000D01*
X113689500Y-25505000D01*
X113689500Y-26554250D01*
X114638750Y-26554250D01*
X114797500Y-26395500D01*
X114797791Y-26356250D01*
X115343178Y-26356250D01*
X115346250Y-26558000D01*
X115505000Y-26716750D01*
X116554250Y-26716750D01*
X116554250Y-25880000D01*
X116808250Y-25880000D01*
X116808250Y-26716750D01*
X117857500Y-26716750D01*
X118016250Y-26558000D01*
X118019322Y-26356250D01*
X118007062Y-26231768D01*
X117970752Y-26112070D01*
X117911787Y-26001756D01*
X117832435Y-25905065D01*
X117735744Y-25825713D01*
X117625430Y-25766748D01*
X117505732Y-25730438D01*
X117381250Y-25718178D01*
X116967000Y-25721250D01*
X116808250Y-25880000D01*
X116554250Y-25880000D01*
X116395500Y-25721250D01*
X115981250Y-25718178D01*
X115856768Y-25730438D01*
X115737070Y-25766748D01*
X115626756Y-25825713D01*
X115530065Y-25905065D01*
X115450713Y-26001756D01*
X115391748Y-26112070D01*
X115355438Y-26231768D01*
X115343178Y-26356250D01*
X114797791Y-26356250D01*
X114800572Y-25981250D01*
X114788312Y-25856768D01*
X114752002Y-25737070D01*
X114693037Y-25626756D01*
X114613685Y-25530065D01*
X114516994Y-25450713D01*
X114406680Y-25391748D01*
X114286982Y-25355438D01*
X114162500Y-25343178D01*
X113848250Y-25346250D01*
X113689500Y-25505000D01*
X113435500Y-25505000D01*
X113276750Y-25346250D01*
X112962500Y-25343178D01*
X112838018Y-25355438D01*
X112718320Y-25391748D01*
X112712500Y-25394859D01*
X112706680Y-25391748D01*
X112586982Y-25355438D01*
X112462500Y-25343178D01*
X111262500Y-25343178D01*
X111138018Y-25355438D01*
X111018320Y-25391748D01*
X110908006Y-25450713D01*
X110811315Y-25530065D01*
X110731963Y-25626756D01*
X110672998Y-25737070D01*
X110636688Y-25856768D01*
X110624428Y-25981250D01*
X110624428Y-26081750D01*
X109909953Y-26081750D01*
X109823542Y-25976458D01*
X109689914Y-25866792D01*
X109537459Y-25785303D01*
X109372035Y-25735122D01*
X109200000Y-25718178D01*
X108287500Y-25718178D01*
X108115465Y-25735122D01*
X107950041Y-25785303D01*
X107797586Y-25866792D01*
X107663958Y-25976458D01*
X107554292Y-26110086D01*
X107472803Y-26262541D01*
X107422622Y-26427965D01*
X107405678Y-26600000D01*
X107405678Y-27087500D01*
X107422622Y-27259535D01*
X107472803Y-27424959D01*
X107554292Y-27577414D01*
X107663958Y-27711042D01*
X107670314Y-27716258D01*
X107592565Y-27780065D01*
X107513213Y-27876756D01*
X107454248Y-27987070D01*
X107417938Y-28106768D01*
X107405678Y-28231250D01*
X107408750Y-28433000D01*
X107567500Y-28591750D01*
X108616750Y-28591750D01*
X108616750Y-28571750D01*
X108870750Y-28571750D01*
X108870750Y-28591750D01*
X108890750Y-28591750D01*
X108890750Y-28845750D01*
X108870750Y-28845750D01*
X108870750Y-29682500D01*
X109029500Y-29841250D01*
X109443750Y-29844322D01*
X109563000Y-29832577D01*
X109563001Y-32829955D01*
X109553070Y-32842055D01*
X109550500Y-32815956D01*
X109550500Y-32815947D01*
X109538556Y-32694674D01*
X109491353Y-32539066D01*
X109414699Y-32395658D01*
X109311541Y-32269959D01*
X109280039Y-32244107D01*
X106242182Y-29206250D01*
X107405678Y-29206250D01*
X107417938Y-29330732D01*
X107454248Y-29450430D01*
X107513213Y-29560744D01*
X107592565Y-29657435D01*
X107689256Y-29736787D01*
X107799570Y-29795752D01*
X107919268Y-29832062D01*
X108043750Y-29844322D01*
X108458000Y-29841250D01*
X108616750Y-29682500D01*
X108616750Y-28845750D01*
X107567500Y-28845750D01*
X107408750Y-29004500D01*
X107405678Y-29206250D01*
X106242182Y-29206250D01*
X105055898Y-28019966D01*
X105030041Y-27988459D01*
X104904342Y-27885301D01*
X104760934Y-27808647D01*
X104605326Y-27761444D01*
X104484053Y-27749500D01*
X104484050Y-27749500D01*
X104443500Y-27745506D01*
X104402950Y-27749500D01*
X102227503Y-27749500D01*
X102090256Y-27657795D01*
X101901898Y-27579774D01*
X101701939Y-27540000D01*
X101498061Y-27540000D01*
X101298102Y-27579774D01*
X101141628Y-27644588D01*
X101133208Y-27628836D01*
X101023542Y-27495208D01*
X100889914Y-27385542D01*
X100737459Y-27304053D01*
X100572035Y-27253872D01*
X100400000Y-27236928D01*
X99912500Y-27236928D01*
X99740465Y-27253872D01*
X99575041Y-27304053D01*
X99422586Y-27385542D01*
X99288958Y-27495208D01*
X99218750Y-27580756D01*
X99148542Y-27495208D01*
X99014914Y-27385542D01*
X98862459Y-27304053D01*
X98697035Y-27253872D01*
X98525000Y-27236928D01*
X98037500Y-27236928D01*
X97865465Y-27253872D01*
X97700041Y-27304053D01*
X97547586Y-27385542D01*
X97413958Y-27495208D01*
X97304292Y-27628836D01*
X97222803Y-27781291D01*
X97172622Y-27946715D01*
X97155678Y-28118750D01*
X97155678Y-29031250D01*
X97172622Y-29203285D01*
X97222803Y-29368709D01*
X97304292Y-29521164D01*
X97413958Y-29654792D01*
X97519251Y-29741204D01*
X97519250Y-30717001D01*
X97329352Y-30754774D01*
X97140994Y-30832795D01*
X96971476Y-30946063D01*
X96827313Y-31090226D01*
X96714045Y-31259744D01*
X96636024Y-31448102D01*
X96596250Y-31648061D01*
X96596250Y-31851939D01*
X96636024Y-32051898D01*
X96714045Y-32240256D01*
X96827313Y-32409774D01*
X96971476Y-32553937D01*
X97140994Y-32667205D01*
X97329352Y-32745226D01*
X97529311Y-32785000D01*
X97733189Y-32785000D01*
X97933148Y-32745226D01*
X98121506Y-32667205D01*
X98291024Y-32553937D01*
X98334522Y-32510439D01*
X98430628Y-32500974D01*
X98574265Y-32457402D01*
X98706642Y-32386645D01*
X98822672Y-32291422D01*
X98917895Y-32175392D01*
X98988652Y-32043015D01*
X99032224Y-31899378D01*
X99046936Y-31750000D01*
X99043250Y-31712574D01*
X99043250Y-30414630D01*
X100890970Y-32262351D01*
X100914828Y-32291422D01*
X101030858Y-32386645D01*
X101163235Y-32457402D01*
X101306872Y-32500974D01*
X101418824Y-32512000D01*
X101418826Y-32512000D01*
X101456249Y-32515686D01*
X101493672Y-32512000D01*
X106375870Y-32512000D01*
X106544594Y-32680724D01*
X106495506Y-32706963D01*
X106398815Y-32786315D01*
X106319463Y-32883006D01*
X106260498Y-32993320D01*
X106224188Y-33113018D01*
X106211928Y-33237500D01*
X106211928Y-34737500D01*
X106215962Y-34778462D01*
X106175000Y-34774428D01*
X104675000Y-34774428D01*
X104550518Y-34786688D01*
X104430820Y-34822998D01*
X104320506Y-34881963D01*
X104223815Y-34961315D01*
X104144463Y-35058006D01*
X104085498Y-35168320D01*
X104049188Y-35288018D01*
X104036928Y-35412500D01*
X104036928Y-35962500D01*
X104046429Y-36058967D01*
X104039294Y-36053112D01*
X103731822Y-35745640D01*
X103731822Y-35331250D01*
X103714878Y-35159215D01*
X103664697Y-34993791D01*
X103583208Y-34841336D01*
X103473542Y-34707708D01*
X103339914Y-34598042D01*
X103324162Y-34589622D01*
X103388976Y-34433148D01*
X103428750Y-34233189D01*
X103428750Y-34029311D01*
X103388976Y-33829352D01*
X103310955Y-33640994D01*
X103197687Y-33471476D01*
X103053524Y-33327313D01*
X102884006Y-33214045D01*
X102695648Y-33136024D01*
X102495689Y-33096250D01*
X102291811Y-33096250D01*
X102091852Y-33136024D01*
X101903494Y-33214045D01*
X101733976Y-33327313D01*
X101589813Y-33471476D01*
X101476545Y-33640994D01*
X101398524Y-33829352D01*
X101358750Y-34029311D01*
X101358750Y-34233189D01*
X101398524Y-34433148D01*
X101463338Y-34589622D01*
X101447586Y-34598042D01*
X101313958Y-34707708D01*
X101204292Y-34841336D01*
X101122803Y-34993791D01*
X101072622Y-35159215D01*
X101055678Y-35331250D01*
X101055678Y-35818750D01*
X101072622Y-35990785D01*
X101122803Y-36156209D01*
X101204292Y-36308664D01*
X101313958Y-36442292D01*
X101320314Y-36447508D01*
X101242565Y-36511315D01*
X101163213Y-36608006D01*
X101104248Y-36718320D01*
X101067938Y-36838018D01*
X101055678Y-36962500D01*
X101058750Y-37164250D01*
X101217500Y-37323000D01*
X102266750Y-37323000D01*
X102266750Y-37303000D01*
X102520750Y-37303000D01*
X102520750Y-37323000D01*
X102540750Y-37323000D01*
X102540750Y-37577000D01*
X102520750Y-37577000D01*
X102520750Y-37597000D01*
X102266750Y-37597000D01*
X102266750Y-37577000D01*
X101217500Y-37577000D01*
X101058750Y-37735750D01*
X101055678Y-37937500D01*
X101067938Y-38061982D01*
X101104248Y-38181680D01*
X101163213Y-38291994D01*
X101242565Y-38388685D01*
X101339256Y-38468037D01*
X101449570Y-38527002D01*
X101569268Y-38563312D01*
X101693750Y-38575572D01*
X102108000Y-38572500D01*
X102262957Y-38417543D01*
X102189681Y-38594445D01*
X102149907Y-38794404D01*
X102149907Y-38998282D01*
X102189681Y-39198241D01*
X102267702Y-39386599D01*
X102380970Y-39556117D01*
X102525133Y-39700280D01*
X102694651Y-39813548D01*
X102883009Y-39891569D01*
X103082968Y-39931343D01*
X103142276Y-39931343D01*
X103410784Y-40199851D01*
X103434642Y-40228922D01*
X103463712Y-40252779D01*
X103550671Y-40324145D01*
X103618687Y-40360500D01*
X103683049Y-40394902D01*
X103826686Y-40438474D01*
X103938638Y-40449500D01*
X103938641Y-40449500D01*
X103976064Y-40453186D01*
X104013487Y-40449500D01*
X104267456Y-40449500D01*
X104313759Y-40487500D01*
X104267456Y-40525500D01*
X96228130Y-40525500D01*
X91030325Y-35327695D01*
X91031822Y-35312500D01*
X91031822Y-34825000D01*
X91014878Y-34652965D01*
X90964697Y-34487541D01*
X90883208Y-34335086D01*
X90773542Y-34201458D01*
X90687994Y-34131250D01*
X90773542Y-34061042D01*
X90883208Y-33927414D01*
X90964697Y-33774959D01*
X91014878Y-33609535D01*
X91031822Y-33437500D01*
X91031822Y-32950000D01*
X91014878Y-32777965D01*
X90964697Y-32612541D01*
X90883208Y-32460086D01*
X90773542Y-32326458D01*
X90639914Y-32216792D01*
X90487459Y-32135303D01*
X90322035Y-32085122D01*
X90150000Y-32068178D01*
X89662000Y-32068178D01*
X89662000Y-28488072D01*
X89950000Y-28488072D01*
X90074482Y-28475812D01*
X90099266Y-28468294D01*
X90118639Y-28474404D01*
X90218250Y-28485000D01*
X90377000Y-28326250D01*
X90377000Y-28321033D01*
X90401185Y-28301185D01*
X90480537Y-28204494D01*
X90539502Y-28094180D01*
X90575812Y-27974482D01*
X90588072Y-27850000D01*
X90588072Y-25600000D01*
X90575812Y-25475518D01*
X90539502Y-25355820D01*
X90480537Y-25245506D01*
X90401185Y-25148815D01*
X90377000Y-25128967D01*
X90377000Y-25123750D01*
X90623000Y-25123750D01*
X90623000Y-26598000D01*
X90647000Y-26598000D01*
X90647000Y-26852000D01*
X90623000Y-26852000D01*
X90623000Y-28326250D01*
X90781750Y-28485000D01*
X90881361Y-28474404D01*
X91000652Y-28436779D01*
X91110311Y-28376604D01*
X91206123Y-28296193D01*
X91284406Y-28198634D01*
X91340123Y-28091578D01*
X91494866Y-28280134D01*
X91720986Y-28465706D01*
X91978966Y-28603599D01*
X92258889Y-28688513D01*
X92550000Y-28717185D01*
X92841110Y-28688513D01*
X93121033Y-28603599D01*
X93379013Y-28465706D01*
X93605134Y-28280134D01*
X93790706Y-28054014D01*
X93928599Y-27796034D01*
X94013513Y-27516111D01*
X94035000Y-27297950D01*
X94035000Y-26152050D01*
X94013513Y-25933889D01*
X93928599Y-25653966D01*
X93790706Y-25395986D01*
X93605134Y-25169866D01*
X93379014Y-24984294D01*
X93121034Y-24846401D01*
X92841111Y-24761487D01*
X92550000Y-24732815D01*
X92258890Y-24761487D01*
X91978967Y-24846401D01*
X91720987Y-24984294D01*
X91494867Y-25169866D01*
X91340123Y-25358421D01*
X91284406Y-25251366D01*
X91206123Y-25153807D01*
X91110311Y-25073396D01*
X91000652Y-25013221D01*
X90881361Y-24975596D01*
X90781750Y-24965000D01*
X90623000Y-25123750D01*
X90377000Y-25123750D01*
X90218250Y-24965000D01*
X90118639Y-24975596D01*
X90099266Y-24981706D01*
X90074482Y-24974188D01*
X89950000Y-24961928D01*
X89450000Y-24961928D01*
X89325518Y-24974188D01*
X89300000Y-24981929D01*
X89274482Y-24974188D01*
X89150000Y-24961928D01*
X88650000Y-24961928D01*
X88525518Y-24974188D01*
X88500000Y-24981929D01*
X88474482Y-24974188D01*
X88350000Y-24961928D01*
X87850000Y-24961928D01*
X87725518Y-24974188D01*
X87700000Y-24981929D01*
X87674482Y-24974188D01*
X87550000Y-24961928D01*
X87050000Y-24961928D01*
X86925518Y-24974188D01*
X86805820Y-25010498D01*
X86695506Y-25069463D01*
X86598815Y-25148815D01*
X86519463Y-25245506D01*
X86460498Y-25355820D01*
X86459754Y-25358271D01*
X86305134Y-25169866D01*
X86079014Y-24984294D01*
X85821034Y-24846401D01*
X85541111Y-24761487D01*
X85250000Y-24732815D01*
X84958890Y-24761487D01*
X84678967Y-24846401D01*
X84420987Y-24984294D01*
X84194867Y-25169866D01*
X84009294Y-25395986D01*
X83871401Y-25653966D01*
X83786487Y-25933889D01*
X83765000Y-26152050D01*
X83765000Y-27297949D01*
X83786487Y-27516110D01*
X83871401Y-27796033D01*
X84009294Y-28054013D01*
X84194866Y-28280134D01*
X84420986Y-28465706D01*
X84678966Y-28603599D01*
X84958889Y-28688513D01*
X85250000Y-28717185D01*
X85541110Y-28688513D01*
X85733379Y-28630189D01*
X84376216Y-29987352D01*
X84344709Y-30013209D01*
X84275464Y-30097585D01*
X84241551Y-30138908D01*
X84224530Y-30170752D01*
X84164897Y-30282317D01*
X84117694Y-30437925D01*
X84107380Y-30542652D01*
X84101756Y-30599750D01*
X84105750Y-30640301D01*
X84105751Y-36256007D01*
X83966400Y-36298278D01*
X83812864Y-36380345D01*
X83678288Y-36490788D01*
X83567845Y-36625364D01*
X83485778Y-36778900D01*
X83435242Y-36945496D01*
X83418178Y-37118750D01*
X83418178Y-37868750D01*
X83435242Y-38042004D01*
X83485778Y-38208600D01*
X83567845Y-38362136D01*
X83678288Y-38496712D01*
X83812864Y-38607155D01*
X83966400Y-38689222D01*
X84132996Y-38739758D01*
X84306250Y-38756822D01*
X85556250Y-38756822D01*
X85729504Y-38739758D01*
X85896100Y-38689222D01*
X86049636Y-38607155D01*
X86184212Y-38496712D01*
X86294655Y-38362136D01*
X86376722Y-38208600D01*
X86427258Y-38042004D01*
X86444322Y-37868750D01*
X86444322Y-37118750D01*
X86427258Y-36945496D01*
X86376722Y-36778900D01*
X86294655Y-36625364D01*
X86184212Y-36490788D01*
X86049636Y-36380345D01*
X85896100Y-36298278D01*
X85756750Y-36256007D01*
X85756750Y-30941682D01*
X87338000Y-29360432D01*
X87338001Y-32068178D01*
X86856250Y-32068178D01*
X86684215Y-32085122D01*
X86518791Y-32135303D01*
X86366336Y-32216792D01*
X86232708Y-32326458D01*
X86123042Y-32460086D01*
X86041553Y-32612541D01*
X85991372Y-32777965D01*
X85974428Y-32950000D01*
X85974428Y-33437500D01*
X85991372Y-33609535D01*
X86041553Y-33774959D01*
X86123042Y-33927414D01*
X86232708Y-34061042D01*
X86318256Y-34131250D01*
X86232708Y-34201458D01*
X86123042Y-34335086D01*
X86041553Y-34487541D01*
X85991372Y-34652965D01*
X85974428Y-34825000D01*
X85974428Y-35312500D01*
X85991372Y-35484535D01*
X86041553Y-35649959D01*
X86123042Y-35802414D01*
X86232708Y-35936042D01*
X86366336Y-36045708D01*
X86518791Y-36127197D01*
X86684215Y-36177378D01*
X86856250Y-36194322D01*
X87360442Y-36194322D01*
X88190970Y-37024851D01*
X88214828Y-37053922D01*
X88243898Y-37077779D01*
X88330857Y-37149145D01*
X88359117Y-37164250D01*
X88463235Y-37219902D01*
X88606872Y-37263474D01*
X88718824Y-37274500D01*
X88718827Y-37274500D01*
X88756250Y-37278186D01*
X88793673Y-37274500D01*
X90171870Y-37274500D01*
X94684720Y-41787351D01*
X94708578Y-41816422D01*
X94781898Y-41876594D01*
X95505150Y-42599846D01*
X95529012Y-42628922D01*
X95568129Y-42661024D01*
X95599781Y-42687000D01*
X88491934Y-42687000D01*
X86444322Y-40639389D01*
X86444322Y-39918750D01*
X86427258Y-39745496D01*
X86376722Y-39578900D01*
X86294655Y-39425364D01*
X86184212Y-39290788D01*
X86049636Y-39180345D01*
X85896100Y-39098278D01*
X85729504Y-39047742D01*
X85556250Y-39030678D01*
X84306250Y-39030678D01*
X84132996Y-39047742D01*
X83966400Y-39098278D01*
X83812864Y-39180345D01*
X83678288Y-39290788D01*
X83567845Y-39425364D01*
X83485778Y-39578900D01*
X83435242Y-39745496D01*
X83418178Y-39918750D01*
X83418178Y-40668750D01*
X83435242Y-40842004D01*
X83485778Y-41008600D01*
X83567845Y-41162136D01*
X83678288Y-41296712D01*
X83812864Y-41407155D01*
X83966400Y-41489222D01*
X84132996Y-41539758D01*
X84306250Y-41556822D01*
X85026890Y-41556822D01*
X87537611Y-44067545D01*
X87563459Y-44099041D01*
X87594955Y-44124889D01*
X87594958Y-44124892D01*
X87689157Y-44202199D01*
X87785929Y-44253925D01*
X87832566Y-44278853D01*
X87988174Y-44326056D01*
X88109447Y-44338000D01*
X88109449Y-44338000D01*
X88150000Y-44341994D01*
X88190550Y-44338000D01*
X95010751Y-44338000D01*
X95008750Y-44348061D01*
X95008750Y-44551939D01*
X95048524Y-44751898D01*
X95126545Y-44940256D01*
X95239813Y-45109774D01*
X95383976Y-45253937D01*
X95553494Y-45367205D01*
X95741852Y-45445226D01*
X95941811Y-45485000D01*
X96145689Y-45485000D01*
X96296250Y-45455052D01*
X96296250Y-45514502D01*
X96454998Y-45514502D01*
X96296250Y-45673250D01*
X96293178Y-45875000D01*
X96305438Y-45999482D01*
X96341748Y-46119180D01*
X96400713Y-46229494D01*
X96480065Y-46326185D01*
X96576756Y-46405537D01*
X96687070Y-46464502D01*
X96806768Y-46500812D01*
X96931250Y-46513072D01*
X97345500Y-46510000D01*
X97504250Y-46351250D01*
X97504250Y-45514500D01*
X97758250Y-45514500D01*
X97758250Y-46351250D01*
X97917000Y-46510000D01*
X98331250Y-46513072D01*
X98455732Y-46500812D01*
X98575430Y-46464502D01*
X98685744Y-46405537D01*
X98782435Y-46326185D01*
X98861787Y-46229494D01*
X98920752Y-46119180D01*
X98957062Y-45999482D01*
X98962550Y-45943750D01*
X99536928Y-45943750D01*
X99549188Y-46068232D01*
X99585498Y-46187930D01*
X99644463Y-46298244D01*
X99723815Y-46394935D01*
X99820506Y-46474287D01*
X99930820Y-46533252D01*
X100050518Y-46569562D01*
X100175000Y-46581822D01*
X100376750Y-46578750D01*
X100535500Y-46420000D01*
X100535500Y-45370750D01*
X99698750Y-45370750D01*
X99540000Y-45529500D01*
X99536928Y-45943750D01*
X98962550Y-45943750D01*
X98969322Y-45875000D01*
X98966250Y-45673250D01*
X98807500Y-45514500D01*
X97758250Y-45514500D01*
X97504250Y-45514500D01*
X97484250Y-45514500D01*
X97484250Y-45260500D01*
X97504250Y-45260500D01*
X97504250Y-45240500D01*
X97758250Y-45240500D01*
X97758250Y-45260500D01*
X98807500Y-45260500D01*
X98966250Y-45101750D01*
X98969322Y-44900000D01*
X98957062Y-44775518D01*
X98920752Y-44655820D01*
X98918618Y-44651827D01*
X99116811Y-44691250D01*
X99320689Y-44691250D01*
X99520648Y-44651476D01*
X99537675Y-44644423D01*
X99540000Y-44958000D01*
X99698750Y-45116750D01*
X100535500Y-45116750D01*
X100535500Y-44067500D01*
X100376750Y-43908750D01*
X100224264Y-43906428D01*
X100253750Y-43758189D01*
X100253750Y-43554311D01*
X100213976Y-43354352D01*
X100135955Y-43165994D01*
X100022687Y-42996476D01*
X99878524Y-42852313D01*
X99874314Y-42849500D01*
X101358750Y-42849500D01*
X101358750Y-42964439D01*
X101398524Y-43164398D01*
X101476545Y-43352756D01*
X101589813Y-43522274D01*
X101631751Y-43564212D01*
X101631750Y-44129809D01*
X101601185Y-44092565D01*
X101504494Y-44013213D01*
X101394180Y-43954248D01*
X101274482Y-43917938D01*
X101150000Y-43905678D01*
X100948250Y-43908750D01*
X100789500Y-44067500D01*
X100789500Y-45116750D01*
X100809500Y-45116750D01*
X100809500Y-45370750D01*
X100789500Y-45370750D01*
X100789500Y-46420000D01*
X100948250Y-46578750D01*
X101150000Y-46581822D01*
X101274482Y-46569562D01*
X101394180Y-46533252D01*
X101504494Y-46474287D01*
X101601185Y-46394935D01*
X101664992Y-46317186D01*
X101670208Y-46323542D01*
X101803836Y-46433208D01*
X101956291Y-46514697D01*
X102121715Y-46564878D01*
X102293750Y-46581822D01*
X102781250Y-46581822D01*
X102953285Y-46564878D01*
X103118709Y-46514697D01*
X103271164Y-46433208D01*
X103404792Y-46323542D01*
X103514458Y-46189914D01*
X103595947Y-46037459D01*
X103646128Y-45872035D01*
X103663072Y-45700000D01*
X103663072Y-44787500D01*
X103646128Y-44615465D01*
X103638337Y-44589783D01*
X103677756Y-44573455D01*
X103847274Y-44460187D01*
X103991437Y-44316024D01*
X104078941Y-44185065D01*
X104085498Y-44206680D01*
X104144463Y-44316994D01*
X104223815Y-44413685D01*
X104320506Y-44493037D01*
X104430820Y-44552002D01*
X104550518Y-44588312D01*
X104675000Y-44600572D01*
X106175000Y-44600572D01*
X106215962Y-44596538D01*
X106211928Y-44637500D01*
X106211928Y-46137500D01*
X106224188Y-46261982D01*
X106260498Y-46381680D01*
X106299500Y-46454647D01*
X106299501Y-51283066D01*
X106222495Y-51360072D01*
X106060602Y-51392274D01*
X105872244Y-51470295D01*
X105702726Y-51583563D01*
X105558563Y-51727726D01*
X105445295Y-51897244D01*
X105367274Y-52085602D01*
X105327500Y-52285561D01*
X105327500Y-52489439D01*
X105367274Y-52689398D01*
X105445295Y-52877756D01*
X105558563Y-53047274D01*
X105702726Y-53191437D01*
X105872244Y-53304705D01*
X106060602Y-53382726D01*
X106260561Y-53422500D01*
X106464439Y-53422500D01*
X106664398Y-53382726D01*
X106852756Y-53304705D01*
X107022274Y-53191437D01*
X107166437Y-53047274D01*
X107279705Y-52877756D01*
X107357726Y-52689398D01*
X107389928Y-52527505D01*
X107680044Y-52237389D01*
X107711541Y-52211541D01*
X107737389Y-52180045D01*
X107737392Y-52180042D01*
X107814699Y-52085843D01*
X107891353Y-51942434D01*
X107905545Y-51895648D01*
X107938556Y-51786826D01*
X107950500Y-51665553D01*
X107950500Y-51665551D01*
X107954494Y-51625000D01*
X107950500Y-51584450D01*
X107950500Y-50706250D01*
X112380678Y-50706250D01*
X112392938Y-50830732D01*
X112429248Y-50950430D01*
X112488213Y-51060744D01*
X112567565Y-51157435D01*
X112664256Y-51236787D01*
X112774570Y-51295752D01*
X112894268Y-51332062D01*
X113018750Y-51344322D01*
X113220500Y-51341250D01*
X113379250Y-51182500D01*
X113379250Y-50133250D01*
X112542500Y-50133250D01*
X112383750Y-50292000D01*
X112380678Y-50706250D01*
X107950500Y-50706250D01*
X107950500Y-49306250D01*
X112380678Y-49306250D01*
X112383750Y-49720500D01*
X112542500Y-49879250D01*
X113379250Y-49879250D01*
X113379250Y-48830000D01*
X113220500Y-48671250D01*
X113018750Y-48668178D01*
X112894268Y-48680438D01*
X112774570Y-48716748D01*
X112664256Y-48775713D01*
X112567565Y-48855065D01*
X112488213Y-48951756D01*
X112429248Y-49062070D01*
X112392938Y-49181768D01*
X112380678Y-49306250D01*
X107950500Y-49306250D01*
X107950500Y-46772500D01*
X108052002Y-46772500D01*
X108052002Y-46632334D01*
X108095506Y-46668037D01*
X108118667Y-46680417D01*
X108210750Y-46772500D01*
X108324337Y-46762954D01*
X108325518Y-46763312D01*
X108450000Y-46775572D01*
X109000000Y-46775572D01*
X109124482Y-46763312D01*
X109125000Y-46763155D01*
X109125518Y-46763312D01*
X109250000Y-46775572D01*
X109800000Y-46775572D01*
X109924482Y-46763312D01*
X109925000Y-46763155D01*
X109925518Y-46763312D01*
X110050000Y-46775572D01*
X110600000Y-46775572D01*
X110724482Y-46763312D01*
X110725000Y-46763155D01*
X110725518Y-46763312D01*
X110850000Y-46775572D01*
X111400000Y-46775572D01*
X111524482Y-46763312D01*
X111525000Y-46763155D01*
X111525518Y-46763312D01*
X111650000Y-46775572D01*
X112200000Y-46775572D01*
X112324482Y-46763312D01*
X112325000Y-46763155D01*
X112325518Y-46763312D01*
X112450000Y-46775572D01*
X113000000Y-46775572D01*
X113124482Y-46763312D01*
X113125000Y-46763155D01*
X113125518Y-46763312D01*
X113250000Y-46775572D01*
X113800000Y-46775572D01*
X113924482Y-46763312D01*
X113925663Y-46762954D01*
X114039250Y-46772500D01*
X114131333Y-46680417D01*
X114154494Y-46668037D01*
X114251185Y-46588685D01*
X114325000Y-46498741D01*
X114398815Y-46588685D01*
X114495506Y-46668037D01*
X114518667Y-46680417D01*
X114555751Y-46717501D01*
X114555750Y-48892160D01*
X114513958Y-48926458D01*
X114508742Y-48932814D01*
X114444935Y-48855065D01*
X114348244Y-48775713D01*
X114237930Y-48716748D01*
X114118232Y-48680438D01*
X113993750Y-48668178D01*
X113792000Y-48671250D01*
X113633250Y-48830000D01*
X113633250Y-49879250D01*
X113653250Y-49879250D01*
X113653250Y-50133250D01*
X113633250Y-50133250D01*
X113633250Y-51182500D01*
X113792000Y-51341250D01*
X113993750Y-51344322D01*
X114118232Y-51332062D01*
X114237930Y-51295752D01*
X114348244Y-51236787D01*
X114444935Y-51157435D01*
X114508742Y-51079686D01*
X114513958Y-51086042D01*
X114647586Y-51195708D01*
X114800041Y-51277197D01*
X114965465Y-51327378D01*
X115137500Y-51344322D01*
X115264389Y-51344322D01*
X115653822Y-51733755D01*
X115686024Y-51895648D01*
X115764045Y-52084006D01*
X115877313Y-52253524D01*
X116021476Y-52397687D01*
X116190994Y-52510955D01*
X116379352Y-52588976D01*
X116579311Y-52628750D01*
X116783189Y-52628750D01*
X116983148Y-52588976D01*
X117171506Y-52510955D01*
X117341024Y-52397687D01*
X117485187Y-52253524D01*
X117598455Y-52084006D01*
X117676476Y-51895648D01*
X117716250Y-51695689D01*
X117716250Y-51491811D01*
X117676476Y-51291852D01*
X117598455Y-51103494D01*
X117485187Y-50933976D01*
X117341024Y-50789813D01*
X117171506Y-50676545D01*
X116983148Y-50598524D01*
X116821255Y-50566322D01*
X116506822Y-50251889D01*
X116506822Y-49550000D01*
X116489878Y-49377965D01*
X116439697Y-49212541D01*
X116358208Y-49060086D01*
X116248542Y-48926458D01*
X116206750Y-48892160D01*
X116206750Y-46668750D01*
X118518178Y-46668750D01*
X118530438Y-46793232D01*
X118566748Y-46912930D01*
X118625713Y-47023244D01*
X118705065Y-47119935D01*
X118801756Y-47199287D01*
X118912070Y-47258252D01*
X119031768Y-47294562D01*
X119156250Y-47306822D01*
X119570500Y-47303750D01*
X119729250Y-47145000D01*
X119729250Y-46308250D01*
X119983250Y-46308250D01*
X119983250Y-47145000D01*
X120142000Y-47303750D01*
X120556250Y-47306822D01*
X120680732Y-47294562D01*
X120800430Y-47258252D01*
X120910744Y-47199287D01*
X121007435Y-47119935D01*
X121086787Y-47023244D01*
X121145752Y-46912930D01*
X121182062Y-46793232D01*
X121194322Y-46668750D01*
X121191250Y-46467000D01*
X121032500Y-46308250D01*
X119983250Y-46308250D01*
X119729250Y-46308250D01*
X118680000Y-46308250D01*
X118521250Y-46467000D01*
X118518178Y-46668750D01*
X116206750Y-46668750D01*
X116206750Y-45684300D01*
X116210744Y-45643749D01*
X116200207Y-45536765D01*
X116194806Y-45481924D01*
X116147603Y-45326316D01*
X116070949Y-45182908D01*
X116038072Y-45142847D01*
X116038072Y-44637500D01*
X116034038Y-44596538D01*
X116075000Y-44600572D01*
X116166269Y-44600572D01*
X116188355Y-44641892D01*
X116199786Y-44655820D01*
X116283578Y-44757922D01*
X116312656Y-44781786D01*
X116349463Y-44818593D01*
X116373328Y-44847672D01*
X116489358Y-44942895D01*
X116621735Y-45013652D01*
X116765372Y-45057224D01*
X116877324Y-45068250D01*
X116877327Y-45068250D01*
X116914750Y-45071936D01*
X116952173Y-45068250D01*
X118690047Y-45068250D01*
X118776458Y-45173542D01*
X118782814Y-45178758D01*
X118705065Y-45242565D01*
X118625713Y-45339256D01*
X118566748Y-45449570D01*
X118530438Y-45569268D01*
X118518178Y-45693750D01*
X118521250Y-45895500D01*
X118680000Y-46054250D01*
X119729250Y-46054250D01*
X119729250Y-46034250D01*
X119983250Y-46034250D01*
X119983250Y-46054250D01*
X121032500Y-46054250D01*
X121191250Y-45895500D01*
X121194322Y-45693750D01*
X121182062Y-45569268D01*
X121145752Y-45449570D01*
X121086787Y-45339256D01*
X121007435Y-45242565D01*
X120929686Y-45178758D01*
X120936042Y-45173542D01*
X121045708Y-45039914D01*
X121127197Y-44887459D01*
X121177378Y-44722035D01*
X121194322Y-44550000D01*
X121194322Y-44062500D01*
X121177378Y-43890465D01*
X121127197Y-43725041D01*
X121045708Y-43572586D01*
X120936042Y-43438958D01*
X120802414Y-43329292D01*
X120649959Y-43247803D01*
X120484535Y-43197622D01*
X120312500Y-43180678D01*
X119400000Y-43180678D01*
X119227965Y-43197622D01*
X119062541Y-43247803D01*
X118910086Y-43329292D01*
X118776458Y-43438958D01*
X118690047Y-43544250D01*
X118213072Y-43544250D01*
X118213072Y-43412500D01*
X118200812Y-43288018D01*
X118200655Y-43287500D01*
X118200812Y-43286982D01*
X118213072Y-43162500D01*
X118213072Y-42849500D01*
X125115620Y-42849500D01*
X126873000Y-44606880D01*
X126873000Y-58077500D01*
X81788529Y-58077500D01*
X81422540Y-58041614D01*
X81101538Y-57944698D01*
X80805475Y-57787279D01*
X80545627Y-57575351D01*
X80331894Y-57316992D01*
X80172412Y-57022036D01*
X80073257Y-56701719D01*
X80038918Y-56375000D01*
X82674428Y-56375000D01*
X82686688Y-56499482D01*
X82722998Y-56619180D01*
X82781963Y-56729494D01*
X82861315Y-56826185D01*
X82958006Y-56905537D01*
X83068320Y-56964502D01*
X83188018Y-57000812D01*
X83312500Y-57013072D01*
X83926750Y-57010000D01*
X84085500Y-56851250D01*
X84085500Y-55952000D01*
X84339500Y-55952000D01*
X84339500Y-56851250D01*
X84498250Y-57010000D01*
X85112500Y-57013072D01*
X85236982Y-57000812D01*
X85356680Y-56964502D01*
X85466994Y-56905537D01*
X85563685Y-56826185D01*
X85643037Y-56729494D01*
X85702002Y-56619180D01*
X85738312Y-56499482D01*
X85750572Y-56375000D01*
X85747500Y-56110750D01*
X85588750Y-55952000D01*
X84339500Y-55952000D01*
X84085500Y-55952000D01*
X82836250Y-55952000D01*
X82677500Y-56110750D01*
X82674428Y-56375000D01*
X80038918Y-56375000D01*
X80035000Y-56337729D01*
X80035000Y-55275000D01*
X82674428Y-55275000D01*
X82677500Y-55539250D01*
X82836250Y-55698000D01*
X84085500Y-55698000D01*
X84085500Y-54798750D01*
X84339500Y-54798750D01*
X84339500Y-55698000D01*
X85588750Y-55698000D01*
X85747500Y-55539250D01*
X85750572Y-55275000D01*
X88874428Y-55275000D01*
X88874428Y-56375000D01*
X88886688Y-56499482D01*
X88922998Y-56619180D01*
X88981963Y-56729494D01*
X89061315Y-56826185D01*
X89158006Y-56905537D01*
X89268320Y-56964502D01*
X89388018Y-57000812D01*
X89512500Y-57013072D01*
X91312500Y-57013072D01*
X91436982Y-57000812D01*
X91556680Y-56964502D01*
X91666994Y-56905537D01*
X91763685Y-56826185D01*
X91843037Y-56729494D01*
X91902002Y-56619180D01*
X91938312Y-56499482D01*
X91950572Y-56375000D01*
X91950572Y-55275000D01*
X91938312Y-55150518D01*
X91902002Y-55030820D01*
X91843037Y-54920506D01*
X91763685Y-54823815D01*
X91666994Y-54744463D01*
X91556680Y-54685498D01*
X91436982Y-54649188D01*
X91312500Y-54636928D01*
X89512500Y-54636928D01*
X89388018Y-54649188D01*
X89268320Y-54685498D01*
X89158006Y-54744463D01*
X89061315Y-54823815D01*
X88981963Y-54920506D01*
X88922998Y-55030820D01*
X88886688Y-55150518D01*
X88874428Y-55275000D01*
X85750572Y-55275000D01*
X85738312Y-55150518D01*
X85702002Y-55030820D01*
X85643037Y-54920506D01*
X85563685Y-54823815D01*
X85466994Y-54744463D01*
X85356680Y-54685498D01*
X85236982Y-54649188D01*
X85112500Y-54636928D01*
X84498250Y-54640000D01*
X84339500Y-54798750D01*
X84085500Y-54798750D01*
X83926750Y-54640000D01*
X83312500Y-54636928D01*
X83188018Y-54649188D01*
X83068320Y-54685498D01*
X82958006Y-54744463D01*
X82861315Y-54823815D01*
X82781963Y-54920506D01*
X82722998Y-55030820D01*
X82686688Y-55150518D01*
X82674428Y-55275000D01*
X80035000Y-55275000D01*
X80035000Y-51575000D01*
X82674428Y-51575000D01*
X82674428Y-52675000D01*
X82686688Y-52799482D01*
X82722998Y-52919180D01*
X82781963Y-53029494D01*
X82861315Y-53126185D01*
X82958006Y-53205537D01*
X83068320Y-53264502D01*
X83188018Y-53300812D01*
X83312500Y-53313072D01*
X85112500Y-53313072D01*
X85236982Y-53300812D01*
X85356680Y-53264502D01*
X85466994Y-53205537D01*
X85563685Y-53126185D01*
X85643037Y-53029494D01*
X85702002Y-52919180D01*
X85738312Y-52799482D01*
X85750572Y-52675000D01*
X85750572Y-51575000D01*
X88874428Y-51575000D01*
X88874428Y-52675000D01*
X88886688Y-52799482D01*
X88922998Y-52919180D01*
X88981963Y-53029494D01*
X89061315Y-53126185D01*
X89158006Y-53205537D01*
X89268320Y-53264502D01*
X89388018Y-53300812D01*
X89512500Y-53313072D01*
X91312500Y-53313072D01*
X91436982Y-53300812D01*
X91556680Y-53264502D01*
X91666994Y-53205537D01*
X91763685Y-53126185D01*
X91843037Y-53029494D01*
X91902002Y-52919180D01*
X91911764Y-52887000D01*
X92300077Y-52887000D01*
X92337500Y-52890686D01*
X92374923Y-52887000D01*
X92374926Y-52887000D01*
X92486878Y-52875974D01*
X92630515Y-52832402D01*
X92762892Y-52761645D01*
X92878922Y-52666422D01*
X92902783Y-52637347D01*
X92911380Y-52628750D01*
X92970689Y-52628750D01*
X93170648Y-52588976D01*
X93359006Y-52510955D01*
X93528524Y-52397687D01*
X93672687Y-52253524D01*
X93785955Y-52084006D01*
X93863976Y-51895648D01*
X93903750Y-51695689D01*
X93903750Y-51491811D01*
X93863976Y-51291852D01*
X93785955Y-51103494D01*
X93672687Y-50933976D01*
X93528524Y-50789813D01*
X93359006Y-50676545D01*
X93170648Y-50598524D01*
X92970689Y-50558750D01*
X92766811Y-50558750D01*
X92566852Y-50598524D01*
X92378494Y-50676545D01*
X92208976Y-50789813D01*
X92064813Y-50933976D01*
X91951545Y-51103494D01*
X91876863Y-51283790D01*
X91843037Y-51220506D01*
X91763685Y-51123815D01*
X91666994Y-51044463D01*
X91556680Y-50985498D01*
X91436982Y-50949188D01*
X91312500Y-50936928D01*
X89512500Y-50936928D01*
X89388018Y-50949188D01*
X89268320Y-50985498D01*
X89158006Y-51044463D01*
X89061315Y-51123815D01*
X88981963Y-51220506D01*
X88922998Y-51330820D01*
X88886688Y-51450518D01*
X88874428Y-51575000D01*
X85750572Y-51575000D01*
X85738312Y-51450518D01*
X85702002Y-51330820D01*
X85643037Y-51220506D01*
X85563685Y-51123815D01*
X85466994Y-51044463D01*
X85356680Y-50985498D01*
X85236982Y-50949188D01*
X85112500Y-50936928D01*
X83312500Y-50936928D01*
X83188018Y-50949188D01*
X83068320Y-50985498D01*
X82958006Y-51044463D01*
X82861315Y-51123815D01*
X82781963Y-51220506D01*
X82722998Y-51330820D01*
X82686688Y-51450518D01*
X82674428Y-51575000D01*
X80035000Y-51575000D01*
X80035000Y-23051029D01*
X80070886Y-22685040D01*
X80167801Y-22364040D01*
X80325221Y-22067975D01*
X80537149Y-21808127D01*
X80795510Y-21594392D01*
X81090464Y-21434912D01*
X81410782Y-21335756D01*
X81774762Y-21297500D01*
X83827860Y-21297500D01*
X83786487Y-21433889D01*
G36*
X111989500Y-28754250D02*
G01*
X112009500Y-28754250D01*
X112009500Y-29008250D01*
X111989500Y-29008250D01*
X111989500Y-30057500D01*
X112126060Y-30194060D01*
X111087000Y-31233120D01*
X111087000Y-30191586D01*
X111138018Y-30207062D01*
X111262500Y-30219322D01*
X111576750Y-30216250D01*
X111735500Y-30057500D01*
X111735500Y-29008250D01*
X111715500Y-29008250D01*
X111715500Y-28754250D01*
X111735500Y-28754250D01*
X111735500Y-28734250D01*
X111989500Y-28734250D01*
X111989500Y-28754250D01*
X111989500Y-28754250D01*
G37*
X111989500Y-28754250D02*
X112009500Y-28754250D01*
X112009500Y-29008250D01*
X111989500Y-29008250D01*
X111989500Y-30057500D01*
X112126060Y-30194060D01*
X111087000Y-31233120D01*
X111087000Y-30191586D01*
X111138018Y-30207062D01*
X111262500Y-30219322D01*
X111576750Y-30216250D01*
X111735500Y-30057500D01*
X111735500Y-29008250D01*
X111715500Y-29008250D01*
X111715500Y-28754250D01*
X111735500Y-28754250D01*
X111735500Y-28734250D01*
X111989500Y-28734250D01*
X111989500Y-28754250D01*
M02*
