G04 #@! TF.GenerationSoftware,KiCad,Pcbnew,(5.1.4)-1*
G04 #@! TF.CreationDate,2023-09-10T14:26:21-07:00*
G04 #@! TF.ProjectId,KeyboardPCBProj,4b657962-6f61-4726-9450-434250726f6a,rev?*
G04 #@! TF.SameCoordinates,Original*
G04 #@! TF.FileFunction,Legend,Top*
G04 #@! TF.FilePolarity,Positive*
%FSLAX46Y46*%
G04 Gerber Fmt 4.6, Leading zero omitted, Abs format (unit mm)*
G04 Created by KiCad (PCBNEW (5.1.4)-1) date 2023-09-10 14:26:21*
%MOMM*%
%LPD*%
G04 APERTURE LIST*
%ADD10C,0.150000*%
%ADD11O,1.802000X2.802000*%
%ADD12C,1.852000*%
%ADD13C,4.089800*%
G04 APERTURE END LIST*
D10*
X94766666Y-56522916D02*
X95242857Y-56522916D01*
X94671428Y-56808630D02*
X95004761Y-55808630D01*
X95338095Y-56808630D01*
X95671428Y-56808630D02*
X95671428Y-55808630D01*
X96338095Y-55808630D02*
X96433333Y-55808630D01*
X96528571Y-55856250D01*
X96576190Y-55903869D01*
X96623809Y-55999107D01*
X96671428Y-56189583D01*
X96671428Y-56427678D01*
X96623809Y-56618154D01*
X96576190Y-56713392D01*
X96528571Y-56761011D01*
X96433333Y-56808630D01*
X96338095Y-56808630D01*
X96242857Y-56761011D01*
X96195238Y-56713392D01*
X96147619Y-56618154D01*
X96100000Y-56427678D01*
X96100000Y-56189583D01*
X96147619Y-55999107D01*
X96195238Y-55903869D01*
X96242857Y-55856250D01*
X96338095Y-55808630D01*
X97004761Y-55808630D02*
X97623809Y-55808630D01*
X97290476Y-56189583D01*
X97433333Y-56189583D01*
X97528571Y-56237202D01*
X97576190Y-56284821D01*
X97623809Y-56380059D01*
X97623809Y-56618154D01*
X97576190Y-56713392D01*
X97528571Y-56761011D01*
X97433333Y-56808630D01*
X97147619Y-56808630D01*
X97052380Y-56761011D01*
X97004761Y-56713392D01*
X98671428Y-56141964D02*
X99052380Y-56141964D01*
X98814285Y-55808630D02*
X98814285Y-56665773D01*
X98861904Y-56761011D01*
X98957142Y-56808630D01*
X99052380Y-56808630D01*
X99766666Y-56761011D02*
X99671428Y-56808630D01*
X99480952Y-56808630D01*
X99385714Y-56761011D01*
X99338095Y-56665773D01*
X99338095Y-56284821D01*
X99385714Y-56189583D01*
X99480952Y-56141964D01*
X99671428Y-56141964D01*
X99766666Y-56189583D01*
X99814285Y-56284821D01*
X99814285Y-56380059D01*
X99338095Y-56475297D01*
X100195238Y-56761011D02*
X100290476Y-56808630D01*
X100480952Y-56808630D01*
X100576190Y-56761011D01*
X100623809Y-56665773D01*
X100623809Y-56618154D01*
X100576190Y-56522916D01*
X100480952Y-56475297D01*
X100338095Y-56475297D01*
X100242857Y-56427678D01*
X100195238Y-56332440D01*
X100195238Y-56284821D01*
X100242857Y-56189583D01*
X100338095Y-56141964D01*
X100480952Y-56141964D01*
X100576190Y-56189583D01*
X100909523Y-56141964D02*
X101290476Y-56141964D01*
X101052380Y-55808630D02*
X101052380Y-56665773D01*
X101100000Y-56761011D01*
X101195238Y-56808630D01*
X101290476Y-56808630D01*
X102338095Y-55903869D02*
X102385714Y-55856250D01*
X102480952Y-55808630D01*
X102719047Y-55808630D01*
X102814285Y-55856250D01*
X102861904Y-55903869D01*
X102909523Y-55999107D01*
X102909523Y-56094345D01*
X102861904Y-56237202D01*
X102290476Y-56808630D01*
X102909523Y-56808630D01*
X103242857Y-56808630D02*
X103766666Y-56141964D01*
X103242857Y-56141964D02*
X103766666Y-56808630D01*
X104100000Y-55903869D02*
X104147619Y-55856250D01*
X104242857Y-55808630D01*
X104480952Y-55808630D01*
X104576190Y-55856250D01*
X104623809Y-55903869D01*
X104671428Y-55999107D01*
X104671428Y-56094345D01*
X104623809Y-56237202D01*
X104052380Y-56808630D01*
X104671428Y-56808630D01*
X105861904Y-56808630D02*
X105861904Y-55808630D01*
X106242857Y-55808630D01*
X106338095Y-55856250D01*
X106385714Y-55903869D01*
X106433333Y-55999107D01*
X106433333Y-56141964D01*
X106385714Y-56237202D01*
X106338095Y-56284821D01*
X106242857Y-56332440D01*
X105861904Y-56332440D01*
X107433333Y-56713392D02*
X107385714Y-56761011D01*
X107242857Y-56808630D01*
X107147619Y-56808630D01*
X107004761Y-56761011D01*
X106909523Y-56665773D01*
X106861904Y-56570535D01*
X106814285Y-56380059D01*
X106814285Y-56237202D01*
X106861904Y-56046726D01*
X106909523Y-55951488D01*
X107004761Y-55856250D01*
X107147619Y-55808630D01*
X107242857Y-55808630D01*
X107385714Y-55856250D01*
X107433333Y-55903869D01*
X108195238Y-56284821D02*
X108338095Y-56332440D01*
X108385714Y-56380059D01*
X108433333Y-56475297D01*
X108433333Y-56618154D01*
X108385714Y-56713392D01*
X108338095Y-56761011D01*
X108242857Y-56808630D01*
X107861904Y-56808630D01*
X107861904Y-55808630D01*
X108195238Y-55808630D01*
X108290476Y-55856250D01*
X108338095Y-55903869D01*
X108385714Y-55999107D01*
X108385714Y-56094345D01*
X108338095Y-56189583D01*
X108290476Y-56237202D01*
X108195238Y-56284821D01*
X107861904Y-56284821D01*
%LPC*%
D11*
X85250000Y-26725000D03*
X92550000Y-26725000D03*
X92550000Y-22225000D03*
X85250000Y-22225000D03*
D12*
X160655000Y-49212500D03*
X150495000Y-49212500D03*
D13*
X155575000Y-49212500D03*
D12*
X141605000Y-49212500D03*
X131445000Y-49212500D03*
D13*
X136525000Y-49212500D03*
D12*
X160655000Y-30162500D03*
X150495000Y-30162500D03*
D13*
X155575000Y-30162500D03*
D12*
X141605000Y-30162500D03*
X131445000Y-30162500D03*
D13*
X136525000Y-30162500D03*
M02*
